M48
;DRILL file {Pcbnew (2012-apr-16-27)-stable} date Fri 30 Aug 2013 09:54:46 AM IST
;FORMAT={-:-/ absolute / inch / decimal}
FMAT,2
INCH,TZ
T1C0.032
T2C0.040
%
G90
G05
M72
T1
X3.800Y3.930
X3.800Y4.030
X3.800Y4.125
X3.800Y4.225
X3.900Y3.990
X3.900Y4.090
X3.960Y3.890
X3.960Y4.190
X4.000Y3.990
X4.000Y4.090
X4.090Y3.890
X4.090Y3.990
X4.090Y4.090
X4.090Y4.190
X4.390Y3.890
X4.390Y3.990
X4.390Y4.090
X4.390Y4.190
T2
X4.200Y3.890
X4.200Y3.990
X4.200Y4.090
X4.200Y4.190
X4.300Y3.890
X4.300Y3.990
X4.300Y4.090
X4.300Y4.190
T0
M30
