G04 (created by PCBNEW-RS274X (2012-apr-16-27)-stable) date Wed 04 Sep 2013 12:16:17 PM IST*
G01*
G70*
G90*
%MOIN*%
G04 Gerber Fmt 3.4, Leading zero omitted, Abs format*
%FSLAX34Y34*%
G04 APERTURE LIST*
%ADD10C,0.006000*%
%ADD11C,0.007100*%
%ADD12C,0.007200*%
%ADD13C,0.015000*%
%ADD14C,0.010000*%
%ADD15C,0.008000*%
G04 APERTURE END LIST*
G54D10*
G54D11*
X34000Y-43200D02*
X34000Y-38300D01*
G54D12*
X44500Y-43200D02*
X34000Y-43200D01*
X44500Y-38300D02*
X44500Y-43200D01*
X34000Y-38300D02*
X44500Y-38300D01*
G54D13*
X38000Y-42250D02*
X38000Y-41250D01*
X38559Y-42250D02*
X38548Y-42358D01*
X38516Y-42463D01*
X38465Y-42559D01*
X38396Y-42643D01*
X38312Y-42713D01*
X38216Y-42765D01*
X38112Y-42797D01*
X38003Y-42808D01*
X37896Y-42799D01*
X37791Y-42768D01*
X37694Y-42717D01*
X37609Y-42649D01*
X37539Y-42565D01*
X37487Y-42470D01*
X37454Y-42366D01*
X37442Y-42257D01*
X37451Y-42150D01*
X37481Y-42045D01*
X37531Y-41948D01*
X37598Y-41862D01*
X37681Y-41791D01*
X37777Y-41738D01*
X37880Y-41705D01*
X37989Y-41692D01*
X38097Y-41700D01*
X38202Y-41729D01*
X38299Y-41779D01*
X38385Y-41846D01*
X38456Y-41928D01*
X38510Y-42023D01*
X38545Y-42127D01*
X38558Y-42235D01*
X38559Y-42250D01*
G54D14*
X42900Y-42400D02*
X42900Y-41900D01*
X42900Y-41900D02*
X41900Y-41900D01*
X41900Y-41900D02*
X41900Y-42400D01*
X43400Y-42400D02*
X43400Y-38400D01*
X43400Y-38400D02*
X41400Y-38400D01*
X41400Y-38400D02*
X41400Y-42400D01*
X41400Y-42400D02*
X43400Y-42400D01*
G54D13*
X39000Y-40900D02*
X40000Y-40900D01*
X39559Y-40900D02*
X39548Y-41008D01*
X39516Y-41113D01*
X39465Y-41209D01*
X39396Y-41293D01*
X39312Y-41363D01*
X39216Y-41415D01*
X39112Y-41447D01*
X39003Y-41458D01*
X38896Y-41449D01*
X38791Y-41418D01*
X38694Y-41367D01*
X38609Y-41299D01*
X38539Y-41215D01*
X38487Y-41120D01*
X38454Y-41016D01*
X38442Y-40907D01*
X38451Y-40800D01*
X38481Y-40695D01*
X38531Y-40598D01*
X38598Y-40512D01*
X38681Y-40441D01*
X38777Y-40388D01*
X38880Y-40355D01*
X38989Y-40342D01*
X39097Y-40350D01*
X39202Y-40379D01*
X39299Y-40429D01*
X39385Y-40496D01*
X39456Y-40578D01*
X39510Y-40673D01*
X39545Y-40777D01*
X39558Y-40885D01*
X39559Y-40900D01*
X39000Y-39900D02*
X40000Y-39900D01*
X39559Y-39900D02*
X39548Y-40008D01*
X39516Y-40113D01*
X39465Y-40209D01*
X39396Y-40293D01*
X39312Y-40363D01*
X39216Y-40415D01*
X39112Y-40447D01*
X39003Y-40458D01*
X38896Y-40449D01*
X38791Y-40418D01*
X38694Y-40367D01*
X38609Y-40299D01*
X38539Y-40215D01*
X38487Y-40120D01*
X38454Y-40016D01*
X38442Y-39907D01*
X38451Y-39800D01*
X38481Y-39695D01*
X38531Y-39598D01*
X38598Y-39512D01*
X38681Y-39441D01*
X38777Y-39388D01*
X38880Y-39355D01*
X38989Y-39342D01*
X39097Y-39350D01*
X39202Y-39379D01*
X39299Y-39429D01*
X39385Y-39496D01*
X39456Y-39578D01*
X39510Y-39673D01*
X39545Y-39777D01*
X39558Y-39885D01*
X39559Y-39900D01*
X38000Y-39300D02*
X38000Y-40300D01*
X38559Y-39300D02*
X38548Y-39408D01*
X38516Y-39513D01*
X38465Y-39609D01*
X38396Y-39693D01*
X38312Y-39763D01*
X38216Y-39815D01*
X38112Y-39847D01*
X38003Y-39858D01*
X37896Y-39849D01*
X37791Y-39818D01*
X37694Y-39767D01*
X37609Y-39699D01*
X37539Y-39615D01*
X37487Y-39520D01*
X37454Y-39416D01*
X37442Y-39307D01*
X37451Y-39200D01*
X37481Y-39095D01*
X37531Y-38998D01*
X37598Y-38912D01*
X37681Y-38841D01*
X37777Y-38788D01*
X37880Y-38755D01*
X37989Y-38742D01*
X38097Y-38750D01*
X38202Y-38779D01*
X38299Y-38829D01*
X38385Y-38896D01*
X38456Y-38978D01*
X38510Y-39073D01*
X38545Y-39177D01*
X38558Y-39285D01*
X38559Y-39300D01*
G54D15*
X37223Y-42067D02*
X36961Y-41900D01*
X37223Y-41781D02*
X36673Y-41781D01*
X36673Y-41972D01*
X36699Y-42019D01*
X36725Y-42043D01*
X36777Y-42067D01*
X36856Y-42067D01*
X36908Y-42043D01*
X36935Y-42019D01*
X36961Y-41972D01*
X36961Y-41781D01*
X37223Y-42543D02*
X37223Y-42257D01*
X37223Y-42400D02*
X36673Y-42400D01*
X36751Y-42352D01*
X36804Y-42305D01*
X36830Y-42257D01*
X42839Y-43102D02*
X42839Y-42602D01*
X42368Y-43055D02*
X42389Y-43079D01*
X42453Y-43102D01*
X42496Y-43102D01*
X42561Y-43079D01*
X42603Y-43031D01*
X42625Y-42983D01*
X42646Y-42888D01*
X42646Y-42817D01*
X42625Y-42721D01*
X42603Y-42674D01*
X42561Y-42626D01*
X42496Y-42602D01*
X42453Y-42602D01*
X42389Y-42626D01*
X42368Y-42650D01*
X41939Y-43102D02*
X42196Y-43102D01*
X42068Y-43102D02*
X42068Y-42602D01*
X42111Y-42674D01*
X42153Y-42721D01*
X42196Y-42745D01*
X42460Y-38105D02*
X42460Y-38296D01*
X42602Y-38067D02*
X42102Y-38200D01*
X42602Y-38334D01*
X42102Y-38410D02*
X42102Y-38639D01*
X42602Y-38524D02*
X42102Y-38524D01*
X42102Y-38715D02*
X42102Y-38944D01*
X42602Y-38829D02*
X42102Y-38829D01*
X42602Y-39077D02*
X42102Y-39077D01*
X42602Y-39267D02*
X42102Y-39267D01*
X42602Y-39496D01*
X42102Y-39496D01*
X42364Y-39762D02*
X42602Y-39762D01*
X42102Y-39629D02*
X42364Y-39762D01*
X42102Y-39896D01*
X42317Y-40086D02*
X42293Y-40048D01*
X42269Y-40029D01*
X42221Y-40010D01*
X42198Y-40010D01*
X42150Y-40029D01*
X42126Y-40048D01*
X42102Y-40086D01*
X42102Y-40163D01*
X42126Y-40201D01*
X42150Y-40220D01*
X42198Y-40239D01*
X42221Y-40239D01*
X42269Y-40220D01*
X42293Y-40201D01*
X42317Y-40163D01*
X42317Y-40086D01*
X42340Y-40048D01*
X42364Y-40029D01*
X42412Y-40010D01*
X42507Y-40010D01*
X42555Y-40029D01*
X42579Y-40048D01*
X42602Y-40086D01*
X42602Y-40163D01*
X42579Y-40201D01*
X42555Y-40220D01*
X42507Y-40239D01*
X42412Y-40239D01*
X42364Y-40220D01*
X42340Y-40201D01*
X42317Y-40163D01*
X42102Y-40601D02*
X42102Y-40410D01*
X42340Y-40391D01*
X42317Y-40410D01*
X42293Y-40448D01*
X42293Y-40544D01*
X42317Y-40582D01*
X42340Y-40601D01*
X42388Y-40620D01*
X42507Y-40620D01*
X42555Y-40601D01*
X42579Y-40582D01*
X42602Y-40544D01*
X42602Y-40448D01*
X42579Y-40410D01*
X42555Y-40391D01*
X42412Y-40791D02*
X42412Y-41096D01*
X42150Y-41267D02*
X42126Y-41286D01*
X42102Y-41324D01*
X42102Y-41420D01*
X42126Y-41458D01*
X42150Y-41477D01*
X42198Y-41496D01*
X42245Y-41496D01*
X42317Y-41477D01*
X42602Y-41248D01*
X42602Y-41496D01*
X42102Y-41743D02*
X42102Y-41782D01*
X42126Y-41820D01*
X42150Y-41839D01*
X42198Y-41858D01*
X42293Y-41877D01*
X42412Y-41877D01*
X42507Y-41858D01*
X42555Y-41839D01*
X42579Y-41820D01*
X42602Y-41782D01*
X42602Y-41743D01*
X42579Y-41705D01*
X42555Y-41686D01*
X42507Y-41667D01*
X42412Y-41648D01*
X42293Y-41648D01*
X42198Y-41667D01*
X42150Y-41686D01*
X42126Y-41705D01*
X42102Y-41743D01*
X42602Y-42048D02*
X42102Y-42048D01*
X42102Y-42201D01*
X42126Y-42239D01*
X42150Y-42258D01*
X42198Y-42277D01*
X42269Y-42277D01*
X42317Y-42258D01*
X42340Y-42239D01*
X42364Y-42201D01*
X42364Y-42048D01*
X42102Y-42448D02*
X42507Y-42448D01*
X42555Y-42467D01*
X42579Y-42486D01*
X42602Y-42524D01*
X42602Y-42601D01*
X42579Y-42639D01*
X42555Y-42658D01*
X42507Y-42677D01*
X42102Y-42677D01*
X39183Y-40123D02*
X39350Y-39861D01*
X39469Y-40123D02*
X39469Y-39573D01*
X39278Y-39573D01*
X39231Y-39599D01*
X39207Y-39625D01*
X39183Y-39677D01*
X39183Y-39756D01*
X39207Y-39808D01*
X39231Y-39835D01*
X39278Y-39861D01*
X39469Y-39861D01*
X38993Y-39625D02*
X38969Y-39599D01*
X38921Y-39573D01*
X38802Y-39573D01*
X38755Y-39599D01*
X38731Y-39625D01*
X38707Y-39677D01*
X38707Y-39730D01*
X38731Y-39808D01*
X39017Y-40123D01*
X38707Y-40123D01*
X39183Y-39123D02*
X39350Y-38861D01*
X39469Y-39123D02*
X39469Y-38573D01*
X39278Y-38573D01*
X39231Y-38599D01*
X39207Y-38625D01*
X39183Y-38677D01*
X39183Y-38756D01*
X39207Y-38808D01*
X39231Y-38835D01*
X39278Y-38861D01*
X39469Y-38861D01*
X39017Y-38573D02*
X38707Y-38573D01*
X38874Y-38782D01*
X38802Y-38782D01*
X38755Y-38808D01*
X38731Y-38835D01*
X38707Y-38887D01*
X38707Y-39018D01*
X38731Y-39070D01*
X38755Y-39096D01*
X38802Y-39123D01*
X38945Y-39123D01*
X38993Y-39096D01*
X39017Y-39070D01*
X39223Y-39031D02*
X38673Y-39031D01*
X38673Y-39150D01*
X38699Y-39222D01*
X38751Y-39269D01*
X38804Y-39293D01*
X38908Y-39317D01*
X38987Y-39317D01*
X39092Y-39293D01*
X39144Y-39269D01*
X39196Y-39222D01*
X39223Y-39150D01*
X39223Y-39031D01*
X38725Y-39507D02*
X38699Y-39531D01*
X38673Y-39579D01*
X38673Y-39698D01*
X38699Y-39745D01*
X38725Y-39769D01*
X38777Y-39793D01*
X38830Y-39793D01*
X38908Y-39769D01*
X39223Y-39483D01*
X39223Y-39793D01*
M02*
