G75*
G70*
%OFA0B0*%
%FSLAX24Y24*%
%IPPOS*%
%LPD*%
%AMOC8*
5,1,8,0,0,1.08239X$1,22.5*
%
%ADD10C,0.0600*%
%ADD11OC8,0.0520*%
%ADD12C,0.0515*%
%ADD13R,0.0515X0.0515*%
%ADD14C,0.0760*%
%ADD15R,0.1500X0.1500*%
%ADD16C,0.0397*%
%ADD17C,0.0660*%
%ADD18C,0.0551*%
%ADD19C,0.0705*%
%ADD20C,0.0594*%
%ADD21OC8,0.0760*%
%ADD22R,0.0560X0.0560*%
%ADD23C,0.0560*%
%ADD24C,0.0240*%
%ADD25C,0.0160*%
%ADD26C,0.0320*%
D10*
X016350Y001230D02*
X016350Y001830D01*
X017350Y001830D02*
X017350Y001230D01*
X018350Y001230D02*
X018350Y001830D01*
X019350Y001830D02*
X019350Y001230D01*
X020350Y001230D02*
X020350Y001830D01*
X021350Y001830D02*
X021350Y001230D01*
X023400Y001180D02*
X023400Y001780D01*
X024400Y001780D02*
X024400Y001180D01*
X025400Y001180D02*
X025400Y001780D01*
X026400Y001780D02*
X026400Y001180D01*
X027400Y001180D02*
X027400Y001780D01*
X028400Y001780D02*
X028400Y001180D01*
X019980Y002890D02*
X019380Y002890D01*
X017420Y002890D02*
X016820Y002890D01*
X016820Y004670D02*
X017420Y004670D01*
X019380Y004670D02*
X019980Y004670D01*
X007080Y014490D02*
X006480Y014490D01*
X006480Y016270D02*
X007080Y016270D01*
X004520Y016270D02*
X003920Y016270D01*
X003920Y014490D02*
X004520Y014490D01*
X012800Y020180D02*
X012800Y020780D01*
X013800Y020780D02*
X013800Y020180D01*
X014800Y020180D02*
X014800Y020780D01*
X015800Y020780D02*
X015800Y020180D01*
X016800Y020180D02*
X016800Y020780D01*
X017800Y020780D02*
X017800Y020180D01*
X018800Y020180D02*
X018800Y020780D01*
X019800Y020780D02*
X019800Y020180D01*
X021350Y020180D02*
X021350Y020780D01*
X022350Y020780D02*
X022350Y020180D01*
X023350Y020180D02*
X023350Y020780D01*
X024350Y020780D02*
X024350Y020180D01*
X025350Y020180D02*
X025350Y020780D01*
X026350Y020780D02*
X026350Y020180D01*
X027350Y020180D02*
X027350Y020780D01*
X028350Y020780D02*
X028350Y020180D01*
D11*
X026350Y018230D03*
X022350Y018230D03*
X020500Y017080D03*
X020000Y017830D03*
X019500Y017080D03*
X016300Y017680D03*
X016300Y018880D03*
X016300Y016430D03*
X015550Y015130D03*
X014650Y013880D03*
X014650Y012680D03*
X014650Y011480D03*
X014650Y010280D03*
X014650Y009080D03*
X010650Y009080D03*
X010650Y010280D03*
X010650Y011480D03*
X010650Y012680D03*
X010650Y013880D03*
X011550Y015130D03*
X012300Y016430D03*
X012300Y017680D03*
X012300Y018880D03*
X009950Y016380D03*
X008950Y016380D03*
X004400Y013030D03*
X004400Y011030D03*
D12*
X008500Y019380D03*
X009250Y019380D03*
X010750Y019380D03*
D13*
X010000Y019380D03*
D14*
X007634Y006430D03*
X006650Y006430D03*
X005666Y006430D03*
X011516Y006230D03*
X012500Y006230D03*
X013484Y006230D03*
D15*
X014272Y003474D03*
X010728Y003474D03*
X008855Y003477D03*
X004445Y003477D03*
D16*
X006302Y008330D02*
X006698Y008330D01*
X006698Y009080D02*
X006302Y009080D01*
X006302Y009830D02*
X006698Y009830D01*
D17*
X020250Y011330D03*
X022250Y012630D03*
X024250Y012630D03*
X024250Y011330D03*
X024250Y015630D03*
X024250Y016630D03*
X022250Y016630D03*
X022250Y015630D03*
D18*
X008200Y012080D03*
X007200Y012080D03*
D19*
X026440Y012211D02*
X027145Y012211D01*
X027145Y014180D02*
X026440Y014180D01*
X026440Y016149D02*
X027145Y016149D01*
D20*
X028764Y008311D02*
X029357Y008311D01*
X029357Y007311D02*
X028764Y007311D01*
X028764Y006311D02*
X029357Y006311D01*
D21*
X018400Y012896D03*
X018400Y014864D03*
D22*
X004516Y018689D03*
D23*
X005500Y018689D03*
X006484Y018689D03*
X006484Y019949D03*
X005500Y019949D03*
X004516Y019949D03*
D24*
X004220Y016270D02*
X006780Y016270D01*
X014650Y011480D02*
X018700Y011480D01*
X019700Y012480D01*
X019700Y015280D01*
X021900Y017480D01*
X024300Y017480D01*
X025350Y018530D01*
X025350Y020480D01*
X024250Y011330D02*
X024300Y011280D01*
X011516Y006230D02*
X011500Y006214D01*
D25*
X003080Y000360D02*
X003080Y021600D01*
X030320Y021600D01*
X030320Y000360D01*
X003080Y000360D01*
X003080Y000497D02*
X030320Y000497D01*
X030320Y000656D02*
X003080Y000656D01*
X003080Y000814D02*
X016205Y000814D01*
X016262Y000790D02*
X016438Y000790D01*
X016599Y000857D01*
X016723Y000981D01*
X016790Y001142D01*
X016790Y001918D01*
X016723Y002079D01*
X016599Y002203D01*
X016438Y002270D01*
X016262Y002270D01*
X016101Y002203D01*
X015977Y002079D01*
X015910Y001918D01*
X015910Y001142D01*
X015977Y000981D01*
X016101Y000857D01*
X016262Y000790D01*
X016495Y000814D02*
X017205Y000814D01*
X017262Y000790D02*
X017438Y000790D01*
X017599Y000857D01*
X017723Y000981D01*
X017790Y001142D01*
X017790Y001918D01*
X017723Y002079D01*
X017599Y002203D01*
X017438Y002270D01*
X017262Y002270D01*
X017101Y002203D01*
X016977Y002079D01*
X016910Y001918D01*
X016910Y001142D01*
X016977Y000981D01*
X017101Y000857D01*
X017262Y000790D01*
X017495Y000814D02*
X018205Y000814D01*
X018262Y000790D02*
X018438Y000790D01*
X018599Y000857D01*
X018723Y000981D01*
X018790Y001142D01*
X018790Y001918D01*
X018723Y002079D01*
X018650Y002152D01*
X018650Y005480D01*
X026760Y005480D01*
X026870Y005526D01*
X028355Y007011D01*
X028446Y007011D01*
X028516Y006940D01*
X028677Y006874D01*
X029444Y006874D01*
X029605Y006940D01*
X029728Y007063D01*
X029794Y007224D01*
X029794Y007398D01*
X029728Y007558D01*
X029605Y007681D01*
X029444Y007748D01*
X028677Y007748D01*
X028516Y007681D01*
X028446Y007611D01*
X028171Y007611D01*
X028061Y007565D01*
X027976Y007481D01*
X026576Y006080D01*
X024600Y006080D01*
X024600Y011015D01*
X024648Y011064D01*
X024720Y011237D01*
X024720Y011376D01*
X025370Y012026D01*
X025454Y012110D01*
X025500Y012220D01*
X025500Y014740D01*
X025454Y014850D01*
X024720Y015584D01*
X024720Y015723D01*
X024648Y015896D01*
X024516Y016028D01*
X024343Y016100D01*
X024157Y016100D01*
X023984Y016028D01*
X023852Y015896D01*
X023780Y015723D01*
X023780Y015537D01*
X023852Y015364D01*
X023984Y015232D01*
X024157Y015160D01*
X024296Y015160D01*
X024900Y014556D01*
X024900Y012404D01*
X024296Y011800D01*
X024157Y011800D01*
X023984Y011728D01*
X023852Y011596D01*
X023780Y011423D01*
X023780Y011237D01*
X023852Y011064D01*
X023984Y010932D01*
X024000Y010925D01*
X024000Y006080D01*
X015340Y006080D01*
X015230Y006034D01*
X015146Y005950D01*
X014476Y005280D01*
X012224Y005280D01*
X011800Y005704D01*
X011800Y005785D01*
X011810Y005789D01*
X011957Y005935D01*
X012008Y006059D01*
X012059Y005935D01*
X012205Y005789D01*
X012397Y005710D01*
X012603Y005710D01*
X012795Y005789D01*
X012941Y005935D01*
X012970Y006006D01*
X013005Y005936D01*
X013057Y005865D01*
X013119Y005803D01*
X013191Y005751D01*
X013269Y005711D01*
X013353Y005684D01*
X013440Y005670D01*
X013456Y005670D01*
X013456Y006202D01*
X013513Y006202D01*
X013513Y006258D01*
X014044Y006258D01*
X014044Y006274D01*
X014030Y006361D01*
X014003Y006445D01*
X013963Y006524D01*
X013911Y006595D01*
X013849Y006657D01*
X013778Y006709D01*
X013699Y006749D01*
X013615Y006776D01*
X013528Y006790D01*
X013513Y006790D01*
X013513Y006258D01*
X013456Y006258D01*
X013456Y006790D01*
X013440Y006790D01*
X013353Y006776D01*
X013269Y006749D01*
X013191Y006709D01*
X013119Y006657D01*
X013057Y006595D01*
X013005Y006524D01*
X012970Y006454D01*
X012941Y006525D01*
X012795Y006671D01*
X012603Y006750D01*
X012397Y006750D01*
X012205Y006671D01*
X012059Y006525D01*
X012008Y006401D01*
X011957Y006525D01*
X011810Y006671D01*
X011619Y006750D01*
X011412Y006750D01*
X011221Y006671D01*
X011075Y006525D01*
X010996Y006333D01*
X010996Y006127D01*
X011075Y005935D01*
X011200Y005810D01*
X011200Y005520D01*
X011246Y005410D01*
X011846Y004810D01*
X011930Y004726D01*
X012040Y004680D01*
X014660Y004680D01*
X014770Y004726D01*
X015524Y005480D01*
X018050Y005480D01*
X018050Y002152D01*
X017977Y002079D01*
X017910Y001918D01*
X017910Y001142D01*
X017977Y000981D01*
X018101Y000857D01*
X018262Y000790D01*
X018495Y000814D02*
X019109Y000814D01*
X019098Y000819D02*
X019166Y000785D01*
X019238Y000762D01*
X019312Y000750D01*
X019330Y000750D01*
X019330Y001510D01*
X018870Y001510D01*
X018870Y001192D01*
X018882Y001118D01*
X018905Y001046D01*
X018939Y000978D01*
X018984Y000917D01*
X019037Y000864D01*
X019098Y000819D01*
X018944Y000973D02*
X018715Y000973D01*
X018785Y001131D02*
X018880Y001131D01*
X018870Y001290D02*
X018790Y001290D01*
X018790Y001448D02*
X018870Y001448D01*
X018870Y001550D02*
X019330Y001550D01*
X019330Y002310D01*
X019312Y002310D01*
X019238Y002298D01*
X019166Y002275D01*
X019098Y002241D01*
X018650Y002241D01*
X018650Y002399D02*
X030320Y002399D01*
X030320Y002241D02*
X021509Y002241D01*
X021438Y002270D02*
X021262Y002270D01*
X021101Y002203D01*
X020977Y002079D01*
X020910Y001918D01*
X020910Y001142D01*
X020977Y000981D01*
X021101Y000857D01*
X021262Y000790D01*
X021438Y000790D01*
X021599Y000857D01*
X021723Y000981D01*
X021790Y001142D01*
X021790Y001918D01*
X021723Y002079D01*
X021599Y002203D01*
X021438Y002270D01*
X021191Y002241D02*
X020602Y002241D01*
X020534Y002275D01*
X020462Y002298D01*
X020388Y002310D01*
X020370Y002310D01*
X020370Y001550D01*
X020330Y001550D01*
X020330Y002310D01*
X020312Y002310D01*
X020238Y002298D01*
X020166Y002275D01*
X020098Y002241D01*
X019602Y002241D01*
X019534Y002275D01*
X019462Y002298D01*
X019388Y002310D01*
X019370Y002310D01*
X019370Y001550D01*
X019330Y001550D01*
X019330Y001510D01*
X019370Y001510D01*
X019370Y001550D01*
X019830Y001550D01*
X019830Y001868D01*
X019818Y001942D01*
X019795Y002014D01*
X019761Y002082D01*
X019716Y002143D01*
X019663Y002196D01*
X019602Y002241D01*
X019760Y002082D02*
X019940Y002082D01*
X019939Y002082D02*
X019905Y002014D01*
X019882Y001942D01*
X019870Y001868D01*
X019870Y001550D01*
X020330Y001550D01*
X020330Y001510D01*
X019870Y001510D01*
X019870Y001192D01*
X019882Y001118D01*
X019905Y001046D01*
X019939Y000978D01*
X019984Y000917D01*
X020037Y000864D01*
X020098Y000819D01*
X020166Y000785D01*
X020238Y000762D01*
X020312Y000750D01*
X020330Y000750D01*
X020330Y001510D01*
X020370Y001510D01*
X020370Y001550D01*
X020830Y001550D01*
X020830Y001868D01*
X020818Y001942D01*
X020795Y002014D01*
X020761Y002082D01*
X020716Y002143D01*
X020663Y002196D01*
X020602Y002241D01*
X020760Y002082D02*
X020980Y002082D01*
X020912Y001924D02*
X020821Y001924D01*
X020830Y001765D02*
X020910Y001765D01*
X020910Y001607D02*
X020830Y001607D01*
X020830Y001510D02*
X020370Y001510D01*
X020370Y000750D01*
X020388Y000750D01*
X020462Y000762D01*
X020534Y000785D01*
X020602Y000819D01*
X020663Y000864D01*
X020716Y000917D01*
X020761Y000978D01*
X020795Y001046D01*
X020818Y001118D01*
X020830Y001192D01*
X020830Y001510D01*
X020830Y001448D02*
X020910Y001448D01*
X020910Y001290D02*
X020830Y001290D01*
X020820Y001131D02*
X020915Y001131D01*
X020985Y000973D02*
X020756Y000973D01*
X020591Y000814D02*
X021205Y000814D01*
X021495Y000814D02*
X023144Y000814D01*
X023151Y000807D02*
X023312Y000740D01*
X023488Y000740D01*
X023649Y000807D01*
X023773Y000931D01*
X023840Y001092D01*
X023840Y001868D01*
X023773Y002029D01*
X023649Y002153D01*
X023488Y002220D01*
X023312Y002220D01*
X023151Y002153D01*
X023027Y002029D01*
X022960Y001868D01*
X022960Y001092D01*
X023027Y000931D01*
X023151Y000807D01*
X023010Y000973D02*
X021715Y000973D01*
X021785Y001131D02*
X022960Y001131D01*
X022960Y001290D02*
X021790Y001290D01*
X021790Y001448D02*
X022960Y001448D01*
X022960Y001607D02*
X021790Y001607D01*
X021790Y001765D02*
X022960Y001765D01*
X022983Y001924D02*
X021788Y001924D01*
X021720Y002082D02*
X023080Y002082D01*
X023720Y002082D02*
X024080Y002082D01*
X024027Y002029D02*
X023960Y001868D01*
X023960Y001092D01*
X024027Y000931D01*
X024151Y000807D01*
X024312Y000740D01*
X024488Y000740D01*
X024649Y000807D01*
X024773Y000931D01*
X024840Y001092D01*
X024840Y001868D01*
X024773Y002029D01*
X024649Y002153D01*
X024488Y002220D01*
X024312Y002220D01*
X024151Y002153D01*
X024027Y002029D01*
X023983Y001924D02*
X023817Y001924D01*
X023840Y001765D02*
X023960Y001765D01*
X023960Y001607D02*
X023840Y001607D01*
X023840Y001448D02*
X023960Y001448D01*
X023960Y001290D02*
X023840Y001290D01*
X023840Y001131D02*
X023960Y001131D01*
X024010Y000973D02*
X023790Y000973D01*
X023656Y000814D02*
X024144Y000814D01*
X024656Y000814D02*
X025144Y000814D01*
X025151Y000807D02*
X025312Y000740D01*
X025488Y000740D01*
X025649Y000807D01*
X025773Y000931D01*
X025840Y001092D01*
X025840Y001868D01*
X025773Y002029D01*
X025649Y002153D01*
X025488Y002220D01*
X025312Y002220D01*
X025151Y002153D01*
X025027Y002029D01*
X024960Y001868D01*
X024960Y001092D01*
X025027Y000931D01*
X025151Y000807D01*
X025010Y000973D02*
X024790Y000973D01*
X024840Y001131D02*
X024960Y001131D01*
X024960Y001290D02*
X024840Y001290D01*
X024840Y001448D02*
X024960Y001448D01*
X024960Y001607D02*
X024840Y001607D01*
X024840Y001765D02*
X024960Y001765D01*
X024983Y001924D02*
X024817Y001924D01*
X024720Y002082D02*
X025080Y002082D01*
X025720Y002082D02*
X026080Y002082D01*
X026027Y002029D02*
X025960Y001868D01*
X025960Y001092D01*
X026027Y000931D01*
X026151Y000807D01*
X026312Y000740D01*
X026488Y000740D01*
X026649Y000807D01*
X026773Y000931D01*
X026840Y001092D01*
X026840Y001868D01*
X026773Y002029D01*
X026649Y002153D01*
X026488Y002220D01*
X026312Y002220D01*
X026151Y002153D01*
X026027Y002029D01*
X025983Y001924D02*
X025817Y001924D01*
X025840Y001765D02*
X025960Y001765D01*
X025960Y001607D02*
X025840Y001607D01*
X025840Y001448D02*
X025960Y001448D01*
X025960Y001290D02*
X025840Y001290D01*
X025840Y001131D02*
X025960Y001131D01*
X026010Y000973D02*
X025790Y000973D01*
X025656Y000814D02*
X026144Y000814D01*
X026656Y000814D02*
X027144Y000814D01*
X027151Y000807D02*
X027312Y000740D01*
X027488Y000740D01*
X027649Y000807D01*
X027773Y000931D01*
X027840Y001092D01*
X027840Y001868D01*
X027773Y002029D01*
X027649Y002153D01*
X027488Y002220D01*
X027312Y002220D01*
X027151Y002153D01*
X027027Y002029D01*
X026960Y001868D01*
X026960Y001092D01*
X027027Y000931D01*
X027151Y000807D01*
X027010Y000973D02*
X026790Y000973D01*
X026840Y001131D02*
X026960Y001131D01*
X026960Y001290D02*
X026840Y001290D01*
X026840Y001448D02*
X026960Y001448D01*
X026960Y001607D02*
X026840Y001607D01*
X026840Y001765D02*
X026960Y001765D01*
X026983Y001924D02*
X026817Y001924D01*
X026720Y002082D02*
X027080Y002082D01*
X027720Y002082D02*
X028080Y002082D01*
X028027Y002029D02*
X027960Y001868D01*
X027960Y001092D01*
X028027Y000931D01*
X028151Y000807D01*
X028312Y000740D01*
X028488Y000740D01*
X028649Y000807D01*
X028773Y000931D01*
X028840Y001092D01*
X028840Y001868D01*
X028773Y002029D01*
X028649Y002153D01*
X028488Y002220D01*
X028312Y002220D01*
X028151Y002153D01*
X028027Y002029D01*
X027983Y001924D02*
X027817Y001924D01*
X027840Y001765D02*
X027960Y001765D01*
X027960Y001607D02*
X027840Y001607D01*
X027840Y001448D02*
X027960Y001448D01*
X027960Y001290D02*
X027840Y001290D01*
X027840Y001131D02*
X027960Y001131D01*
X028010Y000973D02*
X027790Y000973D01*
X027656Y000814D02*
X028144Y000814D01*
X028656Y000814D02*
X030320Y000814D01*
X030320Y000973D02*
X028790Y000973D01*
X028840Y001131D02*
X030320Y001131D01*
X030320Y001290D02*
X028840Y001290D01*
X028840Y001448D02*
X030320Y001448D01*
X030320Y001607D02*
X028840Y001607D01*
X028840Y001765D02*
X030320Y001765D01*
X030320Y001924D02*
X028817Y001924D01*
X028720Y002082D02*
X030320Y002082D01*
X030320Y002558D02*
X020270Y002558D01*
X020229Y002517D02*
X020353Y002641D01*
X020420Y002802D01*
X020420Y002978D01*
X020353Y003139D01*
X020229Y003263D01*
X020068Y003330D01*
X019292Y003330D01*
X019131Y003263D01*
X019007Y003139D01*
X018940Y002978D01*
X018940Y002802D01*
X019007Y002641D01*
X019131Y002517D01*
X019292Y002450D01*
X020068Y002450D01*
X020229Y002517D01*
X020384Y002716D02*
X030320Y002716D01*
X030320Y002875D02*
X020420Y002875D01*
X020397Y003033D02*
X030320Y003033D01*
X030320Y003192D02*
X020301Y003192D01*
X019090Y002558D02*
X018650Y002558D01*
X018650Y002716D02*
X018976Y002716D01*
X018940Y002875D02*
X018650Y002875D01*
X018650Y003033D02*
X018963Y003033D01*
X019059Y003192D02*
X018650Y003192D01*
X018650Y003350D02*
X030320Y003350D01*
X030320Y003509D02*
X018650Y003509D01*
X018650Y003667D02*
X030320Y003667D01*
X030320Y003826D02*
X018650Y003826D01*
X018650Y003984D02*
X030320Y003984D01*
X030320Y004143D02*
X018650Y004143D01*
X018650Y004301D02*
X019071Y004301D01*
X019067Y004304D02*
X019128Y004259D01*
X019196Y004225D01*
X019268Y004202D01*
X019342Y004190D01*
X019660Y004190D01*
X019660Y004650D01*
X019700Y004650D01*
X019700Y004690D01*
X019660Y004690D01*
X019660Y005150D01*
X019342Y005150D01*
X019268Y005138D01*
X019196Y005115D01*
X019128Y005081D01*
X019067Y005036D01*
X019014Y004983D01*
X018969Y004922D01*
X018935Y004854D01*
X018912Y004782D01*
X018900Y004708D01*
X018900Y004690D01*
X019660Y004690D01*
X019660Y004650D01*
X018900Y004650D01*
X018900Y004632D01*
X018912Y004558D01*
X018935Y004486D01*
X018969Y004418D01*
X019014Y004357D01*
X019067Y004304D01*
X018949Y004460D02*
X018650Y004460D01*
X018650Y004618D02*
X018902Y004618D01*
X018911Y004777D02*
X018650Y004777D01*
X018650Y004935D02*
X018979Y004935D01*
X019154Y005094D02*
X018650Y005094D01*
X018650Y005252D02*
X030320Y005252D01*
X030320Y005094D02*
X020206Y005094D01*
X020232Y005081D02*
X020164Y005115D01*
X020092Y005138D01*
X020018Y005150D01*
X019700Y005150D01*
X019700Y004690D01*
X020460Y004690D01*
X020460Y004708D01*
X020448Y004782D01*
X020425Y004854D01*
X020391Y004922D01*
X020346Y004983D01*
X020293Y005036D01*
X020232Y005081D01*
X020381Y004935D02*
X030320Y004935D01*
X030320Y004777D02*
X020449Y004777D01*
X020460Y004650D02*
X019700Y004650D01*
X019700Y004190D01*
X020018Y004190D01*
X020092Y004202D01*
X020164Y004225D01*
X020232Y004259D01*
X020293Y004304D01*
X020346Y004357D01*
X020391Y004418D01*
X020425Y004486D01*
X020448Y004558D01*
X020460Y004632D01*
X020460Y004650D01*
X020458Y004618D02*
X030320Y004618D01*
X030320Y004460D02*
X020411Y004460D01*
X020289Y004301D02*
X030320Y004301D01*
X030320Y005411D02*
X018650Y005411D01*
X018050Y005411D02*
X015455Y005411D01*
X015296Y005252D02*
X018050Y005252D01*
X018050Y005094D02*
X017646Y005094D01*
X017672Y005081D02*
X017604Y005115D01*
X017532Y005138D01*
X017458Y005150D01*
X017140Y005150D01*
X017140Y004690D01*
X017100Y004690D01*
X017100Y005150D01*
X016782Y005150D01*
X016708Y005138D01*
X016636Y005115D01*
X016568Y005081D01*
X016507Y005036D01*
X016454Y004983D01*
X016409Y004922D01*
X016375Y004854D01*
X016352Y004782D01*
X016340Y004708D01*
X016340Y004690D01*
X017100Y004690D01*
X017100Y004650D01*
X017140Y004650D01*
X017140Y004690D01*
X017900Y004690D01*
X017900Y004708D01*
X017888Y004782D01*
X017865Y004854D01*
X017831Y004922D01*
X017786Y004983D01*
X017733Y005036D01*
X017672Y005081D01*
X017821Y004935D02*
X018050Y004935D01*
X018050Y004777D02*
X017889Y004777D01*
X017900Y004650D02*
X017140Y004650D01*
X017140Y004190D01*
X017458Y004190D01*
X017532Y004202D01*
X017604Y004225D01*
X017672Y004259D01*
X017733Y004304D01*
X017786Y004357D01*
X017831Y004418D01*
X017865Y004486D01*
X017888Y004558D01*
X017900Y004632D01*
X017900Y004650D01*
X017898Y004618D02*
X018050Y004618D01*
X018050Y004460D02*
X017851Y004460D01*
X017729Y004301D02*
X018050Y004301D01*
X018050Y004143D02*
X015162Y004143D01*
X015162Y004282D02*
X015080Y004364D01*
X013464Y004364D01*
X013382Y004282D01*
X013382Y002666D01*
X013464Y002584D01*
X015080Y002584D01*
X015162Y002666D01*
X015162Y004282D01*
X015143Y004301D02*
X016511Y004301D01*
X016507Y004304D02*
X016568Y004259D01*
X016636Y004225D01*
X016708Y004202D01*
X016782Y004190D01*
X017100Y004190D01*
X017100Y004650D01*
X016340Y004650D01*
X016340Y004632D01*
X016352Y004558D01*
X016375Y004486D01*
X016409Y004418D01*
X016454Y004357D01*
X016507Y004304D01*
X016389Y004460D02*
X003080Y004460D01*
X003080Y004618D02*
X016342Y004618D01*
X016351Y004777D02*
X014821Y004777D01*
X014979Y004935D02*
X016419Y004935D01*
X016594Y005094D02*
X015138Y005094D01*
X014765Y005569D02*
X011935Y005569D01*
X011800Y005728D02*
X012354Y005728D01*
X012646Y005728D02*
X013237Y005728D01*
X013456Y005728D02*
X013513Y005728D01*
X013513Y005670D02*
X013528Y005670D01*
X013615Y005684D01*
X013699Y005711D01*
X013778Y005751D01*
X013849Y005803D01*
X013911Y005865D01*
X013963Y005936D01*
X014003Y006015D01*
X014030Y006099D01*
X014044Y006186D01*
X014044Y006202D01*
X013513Y006202D01*
X013513Y005670D01*
X013513Y005886D02*
X013456Y005886D01*
X013456Y006045D02*
X013513Y006045D01*
X013513Y006203D02*
X024000Y006203D01*
X024000Y006362D02*
X014030Y006362D01*
X013965Y006520D02*
X024000Y006520D01*
X024000Y006679D02*
X013820Y006679D01*
X013513Y006679D02*
X013456Y006679D01*
X013456Y006520D02*
X013513Y006520D01*
X013513Y006362D02*
X013456Y006362D01*
X013149Y006679D02*
X012776Y006679D01*
X012943Y006520D02*
X013004Y006520D01*
X013042Y005886D02*
X012891Y005886D01*
X012109Y005886D02*
X011907Y005886D01*
X012002Y006045D02*
X012014Y006045D01*
X012057Y006520D02*
X011958Y006520D01*
X011792Y006679D02*
X012224Y006679D01*
X011240Y006679D02*
X008094Y006679D01*
X008075Y006725D02*
X007929Y006871D01*
X007738Y006950D01*
X007531Y006950D01*
X007340Y006871D01*
X007193Y006725D01*
X007164Y006654D01*
X007129Y006724D01*
X007077Y006795D01*
X007015Y006857D01*
X006944Y006909D01*
X006865Y006949D01*
X006781Y006976D01*
X006694Y006990D01*
X006668Y006990D01*
X006668Y006448D01*
X006632Y006448D01*
X006632Y006990D01*
X006606Y006990D01*
X006519Y006976D01*
X006435Y006949D01*
X006356Y006909D01*
X006285Y006857D01*
X006223Y006795D01*
X006171Y006724D01*
X006136Y006654D01*
X006107Y006725D01*
X005960Y006871D01*
X005769Y006950D01*
X005562Y006950D01*
X005371Y006871D01*
X005225Y006725D01*
X005146Y006533D01*
X005146Y006327D01*
X005225Y006135D01*
X005371Y005989D01*
X005562Y005910D01*
X005769Y005910D01*
X005960Y005989D01*
X006107Y006135D01*
X006136Y006206D01*
X006171Y006136D01*
X006223Y006065D01*
X006285Y006003D01*
X006356Y005951D01*
X006435Y005911D01*
X006519Y005884D01*
X006606Y005870D01*
X006632Y005870D01*
X006632Y006412D01*
X006668Y006412D01*
X006668Y005870D01*
X006694Y005870D01*
X006781Y005884D01*
X006865Y005911D01*
X006944Y005951D01*
X007015Y006003D01*
X007077Y006065D01*
X007129Y006136D01*
X007164Y006206D01*
X007193Y006135D01*
X007340Y005989D01*
X007531Y005910D01*
X007738Y005910D01*
X007929Y005989D01*
X008075Y006135D01*
X008154Y006327D01*
X008154Y006533D01*
X008075Y006725D01*
X007963Y006837D02*
X024000Y006837D01*
X024000Y006996D02*
X003080Y006996D01*
X003080Y007154D02*
X024000Y007154D01*
X024000Y007313D02*
X003080Y007313D01*
X003080Y007471D02*
X016149Y007471D01*
X016163Y007465D02*
X015931Y007562D01*
X015753Y007740D01*
X015656Y007972D01*
X015656Y008224D01*
X015753Y008457D01*
X015931Y008635D01*
X016163Y008731D01*
X016415Y008731D01*
X016647Y008635D01*
X016825Y008457D01*
X016922Y008224D01*
X016922Y007972D01*
X016825Y007740D01*
X016647Y007562D01*
X016415Y007465D01*
X016163Y007465D01*
X016428Y007471D02*
X024000Y007471D01*
X024000Y007630D02*
X016715Y007630D01*
X016845Y007788D02*
X024000Y007788D01*
X024000Y007947D02*
X016911Y007947D01*
X016922Y008105D02*
X024000Y008105D01*
X024000Y008264D02*
X016905Y008264D01*
X016840Y008422D02*
X024000Y008422D01*
X024000Y008581D02*
X016701Y008581D01*
X015877Y008581D02*
X006927Y008581D01*
X006890Y008617D02*
X006766Y008668D01*
X006234Y008668D01*
X006110Y008617D01*
X006015Y008522D01*
X005963Y008397D01*
X005963Y008263D01*
X006015Y008138D01*
X006110Y008043D01*
X006234Y007992D01*
X006766Y007992D01*
X006890Y008043D01*
X006985Y008138D01*
X007037Y008263D01*
X007037Y008397D01*
X006985Y008522D01*
X006890Y008617D01*
X006864Y008739D02*
X010425Y008739D01*
X010484Y008680D02*
X010816Y008680D01*
X011050Y008914D01*
X011050Y009246D01*
X010816Y009480D01*
X010484Y009480D01*
X010250Y009246D01*
X010250Y008914D01*
X010484Y008680D01*
X010267Y008898D02*
X007032Y008898D01*
X007034Y008901D02*
X007062Y008970D01*
X007077Y009043D01*
X007077Y009080D01*
X007077Y009117D01*
X007062Y009190D01*
X007034Y009259D01*
X006992Y009321D01*
X006940Y009374D01*
X006878Y009415D01*
X006809Y009444D01*
X006736Y009458D01*
X006500Y009458D01*
X006500Y009080D01*
X006500Y009080D01*
X007077Y009080D01*
X006500Y009080D01*
X006500Y009080D01*
X006500Y009458D01*
X006264Y009458D01*
X006191Y009444D01*
X006122Y009415D01*
X006060Y009374D01*
X006008Y009321D01*
X005966Y009259D01*
X005938Y009190D01*
X005923Y009117D01*
X005923Y009080D01*
X005923Y009043D01*
X005938Y008970D01*
X005966Y008901D01*
X006008Y008839D01*
X006060Y008786D01*
X006122Y008745D01*
X006191Y008716D01*
X006264Y008702D01*
X006500Y008702D01*
X006736Y008702D01*
X006809Y008716D01*
X006878Y008745D01*
X006940Y008786D01*
X006992Y008839D01*
X007034Y008901D01*
X007077Y009056D02*
X010250Y009056D01*
X010250Y009215D02*
X007052Y009215D01*
X006941Y009373D02*
X010377Y009373D01*
X010923Y009373D02*
X014321Y009373D01*
X014210Y009262D02*
X014210Y009080D01*
X014650Y009080D01*
X015090Y009080D01*
X015090Y009262D01*
X014832Y009520D01*
X014650Y009520D01*
X014650Y009080D01*
X014650Y009080D01*
X014650Y009080D01*
X015090Y009080D01*
X015090Y008898D01*
X014832Y008640D01*
X014650Y008640D01*
X014650Y009080D01*
X014650Y009080D01*
X014650Y009080D01*
X014650Y009520D01*
X014468Y009520D01*
X014210Y009262D01*
X014210Y009215D02*
X011050Y009215D01*
X011050Y009056D02*
X014210Y009056D01*
X014210Y009080D02*
X014210Y008898D01*
X014468Y008640D01*
X014650Y008640D01*
X014650Y009080D01*
X014210Y009080D01*
X014210Y008898D02*
X011033Y008898D01*
X010875Y008739D02*
X014369Y008739D01*
X014650Y008739D02*
X014650Y008739D01*
X014650Y008898D02*
X014650Y008898D01*
X014650Y009056D02*
X014650Y009056D01*
X014650Y009215D02*
X014650Y009215D01*
X014650Y009373D02*
X014650Y009373D01*
X014979Y009373D02*
X024000Y009373D01*
X024000Y009215D02*
X015090Y009215D01*
X015090Y009056D02*
X024000Y009056D01*
X024000Y008898D02*
X015090Y008898D01*
X014931Y008739D02*
X024000Y008739D01*
X024600Y008739D02*
X028656Y008739D01*
X028677Y008748D02*
X028516Y008681D01*
X028393Y008558D01*
X028327Y008398D01*
X028327Y008224D01*
X028393Y008063D01*
X028516Y007940D01*
X028677Y007874D01*
X029444Y007874D01*
X029605Y007940D01*
X029728Y008063D01*
X029794Y008224D01*
X029794Y008398D01*
X029728Y008558D01*
X029605Y008681D01*
X029444Y008748D01*
X028677Y008748D01*
X028416Y008581D02*
X027548Y008581D01*
X027494Y008635D02*
X027261Y008731D01*
X027010Y008731D01*
X026777Y008635D01*
X026599Y008457D01*
X026503Y008224D01*
X026503Y007972D01*
X026599Y007740D01*
X026777Y007562D01*
X027010Y007465D01*
X027261Y007465D01*
X027494Y007562D01*
X027672Y007740D01*
X027768Y007972D01*
X027768Y008224D01*
X027672Y008457D01*
X027494Y008635D01*
X027686Y008422D02*
X028337Y008422D01*
X028327Y008264D02*
X027752Y008264D01*
X027768Y008105D02*
X028376Y008105D01*
X028510Y007947D02*
X027758Y007947D01*
X027692Y007788D02*
X030320Y007788D01*
X030320Y007630D02*
X029656Y007630D01*
X029764Y007471D02*
X030320Y007471D01*
X030320Y007313D02*
X029794Y007313D01*
X029765Y007154D02*
X030320Y007154D01*
X030320Y006996D02*
X029660Y006996D01*
X029541Y006753D02*
X029469Y006776D01*
X029395Y006788D01*
X029079Y006788D01*
X029079Y006329D01*
X029834Y006329D01*
X029834Y006348D01*
X029823Y006422D01*
X029799Y006494D01*
X029765Y006561D01*
X029721Y006621D01*
X029668Y006674D01*
X029607Y006719D01*
X029541Y006753D01*
X029663Y006679D02*
X030320Y006679D01*
X030320Y006837D02*
X028181Y006837D01*
X028023Y006679D02*
X028459Y006679D01*
X028453Y006674D02*
X028400Y006621D01*
X028356Y006561D01*
X028322Y006494D01*
X028299Y006422D01*
X028287Y006348D01*
X028287Y006329D01*
X029042Y006329D01*
X029042Y006292D01*
X029079Y006292D01*
X029079Y005834D01*
X029395Y005834D01*
X029469Y005846D01*
X029541Y005869D01*
X029607Y005903D01*
X029668Y005947D01*
X029721Y006000D01*
X029765Y006061D01*
X029799Y006128D01*
X029823Y006199D01*
X029834Y006273D01*
X029834Y006292D01*
X029079Y006292D01*
X029079Y006329D01*
X029042Y006329D01*
X029042Y006788D01*
X028726Y006788D01*
X028652Y006776D01*
X028581Y006753D01*
X028514Y006719D01*
X028453Y006674D01*
X028335Y006520D02*
X027864Y006520D01*
X027706Y006362D02*
X028289Y006362D01*
X028287Y006292D02*
X028287Y006273D01*
X028299Y006199D01*
X028322Y006128D01*
X028356Y006061D01*
X028400Y006000D01*
X028453Y005947D01*
X028514Y005903D01*
X028581Y005869D01*
X028652Y005846D01*
X028726Y005834D01*
X029042Y005834D01*
X029042Y006292D01*
X028287Y006292D01*
X028298Y006203D02*
X027547Y006203D01*
X027389Y006045D02*
X028368Y006045D01*
X028547Y005886D02*
X027230Y005886D01*
X027072Y005728D02*
X030320Y005728D01*
X030320Y005886D02*
X029574Y005886D01*
X029753Y006045D02*
X030320Y006045D01*
X030320Y006203D02*
X029823Y006203D01*
X029832Y006362D02*
X030320Y006362D01*
X030320Y006520D02*
X029786Y006520D01*
X029079Y006520D02*
X029042Y006520D01*
X029042Y006362D02*
X029079Y006362D01*
X029079Y006203D02*
X029042Y006203D01*
X029042Y006045D02*
X029079Y006045D01*
X029079Y005886D02*
X029042Y005886D01*
X029042Y006679D02*
X029079Y006679D01*
X028461Y006996D02*
X028340Y006996D01*
X027967Y007471D02*
X027275Y007471D01*
X026996Y007471D02*
X024600Y007471D01*
X024600Y007313D02*
X027808Y007313D01*
X027650Y007154D02*
X024600Y007154D01*
X024600Y006996D02*
X027491Y006996D01*
X027333Y006837D02*
X024600Y006837D01*
X024600Y006679D02*
X027174Y006679D01*
X027016Y006520D02*
X024600Y006520D01*
X024600Y006362D02*
X026857Y006362D01*
X026699Y006203D02*
X024600Y006203D01*
X024600Y007630D02*
X026709Y007630D01*
X026579Y007788D02*
X024600Y007788D01*
X024600Y007947D02*
X026513Y007947D01*
X026503Y008105D02*
X024600Y008105D01*
X024600Y008264D02*
X026519Y008264D01*
X026585Y008422D02*
X024600Y008422D01*
X024600Y008581D02*
X026723Y008581D01*
X027562Y007630D02*
X028465Y007630D01*
X029611Y007947D02*
X030320Y007947D01*
X030320Y008105D02*
X029745Y008105D01*
X029794Y008264D02*
X030320Y008264D01*
X030320Y008422D02*
X029784Y008422D01*
X029705Y008581D02*
X030320Y008581D01*
X030320Y008739D02*
X029465Y008739D01*
X030320Y008898D02*
X024600Y008898D01*
X024600Y009056D02*
X030320Y009056D01*
X030320Y009215D02*
X024600Y009215D01*
X024600Y009373D02*
X030320Y009373D01*
X030320Y009532D02*
X024600Y009532D01*
X024600Y009690D02*
X030320Y009690D01*
X030320Y009849D02*
X024600Y009849D01*
X024600Y010007D02*
X030320Y010007D01*
X030320Y010166D02*
X024600Y010166D01*
X024600Y010324D02*
X030320Y010324D01*
X030320Y010483D02*
X024600Y010483D01*
X024600Y010641D02*
X030320Y010641D01*
X030320Y010800D02*
X024600Y010800D01*
X024600Y010958D02*
X030320Y010958D01*
X030320Y011117D02*
X024670Y011117D01*
X024720Y011275D02*
X030320Y011275D01*
X030320Y011434D02*
X024778Y011434D01*
X024936Y011592D02*
X030320Y011592D01*
X030320Y011751D02*
X027319Y011751D01*
X027243Y011719D02*
X027424Y011794D01*
X027562Y011933D01*
X027637Y012114D01*
X027637Y012309D01*
X027562Y012490D01*
X027424Y012629D01*
X027243Y012704D01*
X026342Y012704D01*
X026161Y012629D01*
X026022Y012490D01*
X025947Y012309D01*
X025947Y012114D01*
X026022Y011933D01*
X026161Y011794D01*
X026342Y011719D01*
X027243Y011719D01*
X027539Y011909D02*
X030320Y011909D01*
X030320Y012068D02*
X027618Y012068D01*
X027637Y012226D02*
X030320Y012226D01*
X030320Y012385D02*
X027606Y012385D01*
X027510Y012543D02*
X030320Y012543D01*
X030320Y012702D02*
X027249Y012702D01*
X026336Y012702D02*
X025500Y012702D01*
X025500Y012860D02*
X030320Y012860D01*
X030320Y013019D02*
X025500Y013019D01*
X025500Y013177D02*
X030320Y013177D01*
X030320Y013336D02*
X025500Y013336D01*
X025500Y013494D02*
X030320Y013494D01*
X030320Y013653D02*
X025500Y013653D01*
X025500Y013811D02*
X026112Y013811D01*
X026161Y013762D02*
X026342Y013688D01*
X027243Y013688D01*
X027424Y013762D01*
X027562Y013901D01*
X027637Y014082D01*
X027637Y014278D01*
X027562Y014459D01*
X027424Y014598D01*
X027243Y014672D01*
X026342Y014672D01*
X026161Y014598D01*
X026022Y014459D01*
X025947Y014278D01*
X025947Y014082D01*
X026022Y013901D01*
X026161Y013762D01*
X025994Y013970D02*
X025500Y013970D01*
X025500Y014128D02*
X025947Y014128D01*
X025951Y014287D02*
X025500Y014287D01*
X025500Y014445D02*
X026016Y014445D01*
X026175Y014604D02*
X025500Y014604D01*
X025491Y014762D02*
X030320Y014762D01*
X030320Y014604D02*
X027409Y014604D01*
X027568Y014445D02*
X030320Y014445D01*
X030320Y014287D02*
X027634Y014287D01*
X027637Y014128D02*
X030320Y014128D01*
X030320Y013970D02*
X027591Y013970D01*
X027472Y013811D02*
X030320Y013811D01*
X030320Y014921D02*
X025384Y014921D01*
X025225Y015079D02*
X030320Y015079D01*
X030320Y015238D02*
X025067Y015238D01*
X024908Y015396D02*
X030320Y015396D01*
X030320Y015555D02*
X024750Y015555D01*
X024720Y015713D02*
X026204Y015713D01*
X026161Y015731D02*
X026342Y015656D01*
X027243Y015656D01*
X027424Y015731D01*
X027562Y015870D01*
X027637Y016051D01*
X027637Y016246D01*
X027562Y016427D01*
X027424Y016566D01*
X027243Y016641D01*
X026342Y016641D01*
X026161Y016566D01*
X026022Y016427D01*
X025947Y016246D01*
X025947Y016051D01*
X026022Y015870D01*
X026161Y015731D01*
X026021Y015872D02*
X024659Y015872D01*
X024512Y016030D02*
X025956Y016030D01*
X025947Y016189D02*
X024412Y016189D01*
X024343Y016160D02*
X024516Y016232D01*
X024648Y016364D01*
X024720Y016537D01*
X024720Y016723D01*
X024648Y016896D01*
X024516Y017028D01*
X024343Y017100D01*
X024157Y017100D01*
X023984Y017028D01*
X023852Y016896D01*
X023780Y016723D01*
X023780Y016537D01*
X023852Y016364D01*
X023984Y016232D01*
X024157Y016160D01*
X024343Y016160D01*
X024088Y016189D02*
X022412Y016189D01*
X022343Y016160D02*
X022516Y016232D01*
X022648Y016364D01*
X022720Y016537D01*
X022720Y016723D01*
X022648Y016896D01*
X022516Y017028D01*
X022343Y017100D01*
X022157Y017100D01*
X021984Y017028D01*
X021852Y016896D01*
X021780Y016723D01*
X021780Y016537D01*
X021852Y016364D01*
X021984Y016232D01*
X022157Y016160D01*
X022343Y016160D01*
X022343Y016100D02*
X022157Y016100D01*
X021984Y016028D01*
X021852Y015896D01*
X021780Y015723D01*
X021780Y015537D01*
X021852Y015364D01*
X021984Y015232D01*
X022157Y015160D01*
X022343Y015160D01*
X022516Y015232D01*
X022648Y015364D01*
X022720Y015537D01*
X022720Y015723D01*
X022648Y015896D01*
X022516Y016028D01*
X022343Y016100D01*
X022512Y016030D02*
X023988Y016030D01*
X023841Y015872D02*
X022659Y015872D01*
X022720Y015713D02*
X023780Y015713D01*
X023780Y015555D02*
X022720Y015555D01*
X022662Y015396D02*
X023838Y015396D01*
X023978Y015238D02*
X022522Y015238D01*
X021978Y015238D02*
X020025Y015238D01*
X019960Y015172D02*
X022008Y017220D01*
X024352Y017220D01*
X024447Y017260D01*
X025497Y018310D01*
X025570Y018383D01*
X025610Y018478D01*
X025610Y019818D01*
X025723Y019931D01*
X025790Y020092D01*
X025790Y020868D01*
X025723Y021029D01*
X025599Y021153D01*
X025438Y021220D01*
X025262Y021220D01*
X025101Y021153D01*
X024977Y021029D01*
X024910Y020868D01*
X024910Y020092D01*
X024977Y019931D01*
X025090Y019818D01*
X025090Y018638D01*
X024192Y017740D01*
X021848Y017740D01*
X021753Y017700D01*
X021680Y017627D01*
X019480Y015427D01*
X019440Y015332D01*
X019440Y012588D01*
X018592Y011740D01*
X014956Y011740D01*
X014816Y011880D01*
X014484Y011880D01*
X014250Y011646D01*
X014250Y011314D01*
X014484Y011080D01*
X014816Y011080D01*
X014956Y011220D01*
X018752Y011220D01*
X018847Y011260D01*
X019920Y012333D01*
X019960Y012428D01*
X019960Y015172D01*
X019960Y015079D02*
X024377Y015079D01*
X024535Y014921D02*
X019960Y014921D01*
X019960Y014762D02*
X024694Y014762D01*
X024852Y014604D02*
X019960Y014604D01*
X019960Y014445D02*
X024900Y014445D01*
X024900Y014287D02*
X019960Y014287D01*
X019960Y014128D02*
X024900Y014128D01*
X024900Y013970D02*
X019960Y013970D01*
X019960Y013811D02*
X024900Y013811D01*
X024900Y013653D02*
X019960Y013653D01*
X019960Y013494D02*
X024900Y013494D01*
X024900Y013336D02*
X019960Y013336D01*
X019960Y013177D02*
X024900Y013177D01*
X024900Y013019D02*
X024526Y013019D01*
X024516Y013028D02*
X024343Y013100D01*
X024157Y013100D01*
X023984Y013028D01*
X023852Y012896D01*
X023780Y012723D01*
X023780Y012537D01*
X023852Y012364D01*
X023984Y012232D01*
X024157Y012160D01*
X024343Y012160D01*
X024516Y012232D01*
X024648Y012364D01*
X024720Y012537D01*
X024720Y012723D01*
X024648Y012896D01*
X024516Y013028D01*
X024663Y012860D02*
X024900Y012860D01*
X024900Y012702D02*
X024720Y012702D01*
X024720Y012543D02*
X024900Y012543D01*
X024880Y012385D02*
X024657Y012385D01*
X024722Y012226D02*
X024503Y012226D01*
X024563Y012068D02*
X019655Y012068D01*
X019814Y012226D02*
X021997Y012226D01*
X021984Y012232D02*
X022157Y012160D01*
X022343Y012160D01*
X022516Y012232D01*
X022648Y012364D01*
X022720Y012537D01*
X022720Y012723D01*
X022648Y012896D01*
X022516Y013028D01*
X022343Y013100D01*
X022157Y013100D01*
X021984Y013028D01*
X021852Y012896D01*
X021780Y012723D01*
X021780Y012537D01*
X021852Y012364D01*
X021984Y012232D01*
X021843Y012385D02*
X019942Y012385D01*
X019960Y012543D02*
X021780Y012543D01*
X021780Y012702D02*
X019960Y012702D01*
X019960Y012860D02*
X021837Y012860D01*
X021974Y013019D02*
X019960Y013019D01*
X019440Y013019D02*
X018960Y013019D01*
X018960Y013128D02*
X018632Y013456D01*
X018400Y013456D01*
X018168Y013456D01*
X017840Y013128D01*
X017840Y012896D01*
X018400Y012896D01*
X018400Y013456D01*
X018400Y012896D01*
X018400Y012896D01*
X018400Y012896D01*
X018960Y012896D01*
X018960Y013128D01*
X018911Y013177D02*
X019440Y013177D01*
X019440Y013336D02*
X018752Y013336D01*
X018400Y013336D02*
X018400Y013336D01*
X018400Y013177D02*
X018400Y013177D01*
X018400Y013019D02*
X018400Y013019D01*
X018400Y012896D02*
X018400Y012896D01*
X017840Y012896D01*
X017840Y012664D01*
X018168Y012336D01*
X018400Y012336D01*
X018632Y012336D01*
X018960Y012664D01*
X018960Y012896D01*
X018400Y012896D01*
X018400Y012336D01*
X018400Y012896D01*
X018400Y012896D01*
X018400Y012860D02*
X018400Y012860D01*
X018400Y012702D02*
X018400Y012702D01*
X018400Y012543D02*
X018400Y012543D01*
X018400Y012385D02*
X018400Y012385D01*
X018681Y012385D02*
X019237Y012385D01*
X019395Y012543D02*
X018839Y012543D01*
X018960Y012702D02*
X019440Y012702D01*
X019440Y012860D02*
X018960Y012860D01*
X019078Y012226D02*
X008589Y012226D01*
X008616Y012163D02*
X008552Y012315D01*
X008435Y012432D01*
X008283Y012496D01*
X008117Y012496D01*
X007965Y012432D01*
X007848Y012315D01*
X007784Y012163D01*
X007784Y011997D01*
X007848Y011845D01*
X007965Y011728D01*
X008117Y011664D01*
X008283Y011664D01*
X008435Y011728D01*
X008552Y011845D01*
X008616Y011997D01*
X008616Y012163D01*
X008616Y012068D02*
X018920Y012068D01*
X018761Y011909D02*
X008579Y011909D01*
X008458Y011751D02*
X010355Y011751D01*
X010250Y011646D02*
X010484Y011880D01*
X010816Y011880D01*
X011050Y011646D01*
X011050Y011314D01*
X010816Y011080D01*
X010484Y011080D01*
X010250Y011314D01*
X010250Y011646D01*
X010250Y011592D02*
X003080Y011592D01*
X003080Y011434D02*
X010250Y011434D01*
X010289Y011275D02*
X004721Y011275D01*
X004800Y011196D02*
X004566Y011430D01*
X004234Y011430D01*
X004000Y011196D01*
X004000Y010864D01*
X004234Y010630D01*
X004566Y010630D01*
X004800Y010864D01*
X004800Y011196D01*
X004800Y011117D02*
X010448Y011117D01*
X010852Y011117D02*
X014448Y011117D01*
X014289Y011275D02*
X011011Y011275D01*
X011050Y011434D02*
X014250Y011434D01*
X014250Y011592D02*
X011050Y011592D01*
X010945Y011751D02*
X014355Y011751D01*
X014468Y012240D02*
X014650Y012240D01*
X014832Y012240D01*
X015090Y012498D01*
X015090Y012680D01*
X015090Y012862D01*
X014832Y013120D01*
X014650Y013120D01*
X014650Y012680D01*
X015090Y012680D01*
X014650Y012680D01*
X014650Y012680D01*
X014650Y012680D01*
X014650Y012240D01*
X014650Y012680D01*
X014650Y012680D01*
X014650Y012680D01*
X014210Y012680D01*
X014210Y012862D01*
X014468Y013120D01*
X014650Y013120D01*
X014650Y012680D01*
X014210Y012680D01*
X014210Y012498D01*
X014468Y012240D01*
X014323Y012385D02*
X010920Y012385D01*
X010816Y012280D02*
X011050Y012514D01*
X011050Y012846D01*
X010816Y013080D01*
X010484Y013080D01*
X010250Y012846D01*
X010250Y012514D01*
X010484Y012280D01*
X010816Y012280D01*
X011050Y012543D02*
X014210Y012543D01*
X014210Y012702D02*
X011050Y012702D01*
X011036Y012860D02*
X014210Y012860D01*
X014366Y013019D02*
X010877Y013019D01*
X010423Y013019D02*
X004800Y013019D01*
X004800Y012864D02*
X004566Y012630D01*
X004234Y012630D01*
X004000Y012864D01*
X004000Y013196D01*
X004234Y013430D01*
X004566Y013430D01*
X004800Y013196D01*
X004800Y012864D01*
X004796Y012860D02*
X010264Y012860D01*
X010250Y012702D02*
X004637Y012702D01*
X004163Y012702D02*
X003080Y012702D01*
X003080Y012860D02*
X004004Y012860D01*
X004000Y013019D02*
X003080Y013019D01*
X003080Y013177D02*
X004000Y013177D01*
X004140Y013336D02*
X003080Y013336D01*
X003080Y013494D02*
X010470Y013494D01*
X010484Y013480D02*
X010816Y013480D01*
X011050Y013714D01*
X011050Y014046D01*
X010816Y014280D01*
X010484Y014280D01*
X010250Y014046D01*
X010250Y013714D01*
X010484Y013480D01*
X010312Y013653D02*
X003080Y013653D01*
X003080Y013811D02*
X010250Y013811D01*
X010250Y013970D02*
X003080Y013970D01*
X003080Y014128D02*
X003660Y014128D01*
X003671Y014117D02*
X003832Y014050D01*
X004608Y014050D01*
X004769Y014117D01*
X004893Y014241D01*
X004960Y014402D01*
X004960Y014578D01*
X004893Y014739D01*
X004769Y014863D01*
X004608Y014930D01*
X003832Y014930D01*
X003671Y014863D01*
X003547Y014739D01*
X003480Y014578D01*
X003480Y014402D01*
X003547Y014241D01*
X003671Y014117D01*
X003528Y014287D02*
X003080Y014287D01*
X003080Y014445D02*
X003480Y014445D01*
X003491Y014604D02*
X003080Y014604D01*
X003080Y014762D02*
X003570Y014762D01*
X003810Y014921D02*
X003080Y014921D01*
X003080Y015079D02*
X011150Y015079D01*
X011150Y014964D02*
X011384Y014730D01*
X011716Y014730D01*
X011950Y014964D01*
X011950Y015296D01*
X011716Y015530D01*
X011384Y015530D01*
X011150Y015296D01*
X011150Y014964D01*
X011194Y014921D02*
X007190Y014921D01*
X007168Y014930D02*
X007329Y014863D01*
X007453Y014739D01*
X007520Y014578D01*
X007520Y014402D01*
X007453Y014241D01*
X007329Y014117D01*
X007168Y014050D01*
X006392Y014050D01*
X006231Y014117D01*
X006107Y014241D01*
X006040Y014402D01*
X006040Y014578D01*
X006107Y014739D01*
X006231Y014863D01*
X006392Y014930D01*
X007168Y014930D01*
X007430Y014762D02*
X011352Y014762D01*
X011748Y014762D02*
X015352Y014762D01*
X015384Y014730D02*
X015716Y014730D01*
X015950Y014964D01*
X015950Y015296D01*
X015716Y015530D01*
X015384Y015530D01*
X015150Y015296D01*
X015150Y014964D01*
X015384Y014730D01*
X015194Y014921D02*
X011906Y014921D01*
X011950Y015079D02*
X015150Y015079D01*
X015150Y015238D02*
X011950Y015238D01*
X011850Y015396D02*
X015250Y015396D01*
X015850Y015396D02*
X019467Y015396D01*
X019440Y015238D02*
X018762Y015238D01*
X018615Y015384D02*
X018185Y015384D01*
X017880Y015080D01*
X017880Y014649D01*
X018185Y014344D01*
X018615Y014344D01*
X018920Y014649D01*
X018920Y015080D01*
X018615Y015384D01*
X018920Y015079D02*
X019440Y015079D01*
X019440Y014921D02*
X018920Y014921D01*
X018920Y014762D02*
X019440Y014762D01*
X019440Y014604D02*
X018875Y014604D01*
X018716Y014445D02*
X019440Y014445D01*
X019440Y014287D02*
X014866Y014287D01*
X014832Y014320D02*
X015090Y014062D01*
X015090Y013880D01*
X014650Y013880D01*
X014650Y013880D01*
X014650Y013880D01*
X014650Y014320D01*
X014832Y014320D01*
X014650Y014320D02*
X014468Y014320D01*
X014210Y014062D01*
X014210Y013880D01*
X014650Y013880D01*
X015090Y013880D01*
X015090Y013698D01*
X014832Y013440D01*
X014650Y013440D01*
X014650Y013880D01*
X014650Y013880D01*
X014650Y013880D01*
X014650Y014320D01*
X014650Y014287D02*
X014650Y014287D01*
X014650Y014128D02*
X014650Y014128D01*
X014650Y013970D02*
X014650Y013970D01*
X014650Y013880D02*
X014210Y013880D01*
X014210Y013698D01*
X014468Y013440D01*
X014650Y013440D01*
X014650Y013880D01*
X014650Y013811D02*
X014650Y013811D01*
X014650Y013653D02*
X014650Y013653D01*
X014650Y013494D02*
X014650Y013494D01*
X014886Y013494D02*
X019440Y013494D01*
X019440Y013653D02*
X015045Y013653D01*
X015090Y013811D02*
X019440Y013811D01*
X019440Y013970D02*
X015090Y013970D01*
X015024Y014128D02*
X019440Y014128D01*
X018084Y014445D02*
X007520Y014445D01*
X007509Y014604D02*
X017925Y014604D01*
X017880Y014762D02*
X015748Y014762D01*
X015906Y014921D02*
X017880Y014921D01*
X017880Y015079D02*
X015950Y015079D01*
X015950Y015238D02*
X018038Y015238D01*
X016700Y016264D02*
X016466Y016030D01*
X020082Y016030D01*
X019924Y015872D02*
X007268Y015872D01*
X007329Y015897D02*
X007453Y016021D01*
X007520Y016182D01*
X007520Y016358D01*
X007453Y016519D01*
X007329Y016643D01*
X007168Y016710D01*
X006392Y016710D01*
X006231Y016643D01*
X006118Y016530D01*
X004882Y016530D01*
X004769Y016643D01*
X004608Y016710D01*
X003832Y016710D01*
X003671Y016643D01*
X003547Y016519D01*
X003480Y016358D01*
X003480Y016182D01*
X003547Y016021D01*
X003671Y015897D01*
X003832Y015830D01*
X004608Y015830D01*
X004769Y015897D01*
X004882Y016010D01*
X006118Y016010D01*
X006231Y015897D01*
X006392Y015830D01*
X007168Y015830D01*
X007329Y015897D01*
X007457Y016030D02*
X008678Y016030D01*
X008768Y015940D02*
X008510Y016198D01*
X008510Y016380D01*
X008950Y016380D01*
X009390Y016380D01*
X009390Y016562D01*
X009132Y016820D01*
X008950Y016820D01*
X008950Y016380D01*
X008950Y016380D01*
X008950Y016380D01*
X009390Y016380D01*
X009390Y016198D01*
X009132Y015940D01*
X008950Y015940D01*
X008950Y016380D01*
X008950Y016380D01*
X008950Y016380D01*
X008950Y016820D01*
X008768Y016820D01*
X008510Y016562D01*
X008510Y016380D01*
X008950Y016380D01*
X008950Y015940D01*
X008768Y015940D01*
X008950Y016030D02*
X008950Y016030D01*
X008950Y016189D02*
X008950Y016189D01*
X008950Y016347D02*
X008950Y016347D01*
X008950Y016506D02*
X008950Y016506D01*
X008950Y016664D02*
X008950Y016664D01*
X009288Y016664D02*
X009668Y016664D01*
X009784Y016780D02*
X009550Y016546D01*
X009550Y016214D01*
X009784Y015980D01*
X010116Y015980D01*
X010350Y016214D01*
X010350Y016546D01*
X010116Y016780D01*
X009784Y016780D01*
X009550Y016506D02*
X009390Y016506D01*
X009390Y016347D02*
X009550Y016347D01*
X009576Y016189D02*
X009381Y016189D01*
X009222Y016030D02*
X009734Y016030D01*
X010166Y016030D02*
X012134Y016030D01*
X012466Y016030D01*
X016134Y016030D01*
X016466Y016030D01*
X016624Y016189D02*
X020241Y016189D01*
X020399Y016347D02*
X016700Y016347D01*
X016700Y016264D02*
X016700Y016596D01*
X016466Y016830D01*
X016134Y016830D01*
X015900Y016596D01*
X015900Y016264D01*
X016134Y016030D01*
X015976Y016189D02*
X012624Y016189D01*
X012700Y016264D02*
X012466Y016030D01*
X012700Y016264D02*
X012700Y016596D01*
X012466Y016830D01*
X012134Y016830D01*
X011900Y016596D01*
X011900Y016264D01*
X012134Y016030D01*
X011976Y016189D02*
X010324Y016189D01*
X010350Y016347D02*
X011900Y016347D01*
X011900Y016506D02*
X010350Y016506D01*
X010232Y016664D02*
X011968Y016664D01*
X012127Y016823D02*
X003080Y016823D01*
X003080Y016981D02*
X019060Y016981D01*
X019060Y016898D02*
X019318Y016640D01*
X019500Y016640D01*
X019682Y016640D01*
X019940Y016898D01*
X019940Y017080D01*
X019940Y017262D01*
X019682Y017520D01*
X019500Y017520D01*
X019500Y017080D01*
X019940Y017080D01*
X019500Y017080D01*
X019500Y017080D01*
X019500Y017080D01*
X019500Y016640D01*
X019500Y017080D01*
X019500Y017080D01*
X019500Y017080D01*
X019060Y017080D01*
X019060Y017262D01*
X019318Y017520D01*
X019500Y017520D01*
X019500Y017080D01*
X019060Y017080D01*
X019060Y016898D01*
X019135Y016823D02*
X016473Y016823D01*
X016632Y016664D02*
X019294Y016664D01*
X019500Y016664D02*
X019500Y016664D01*
X019500Y016823D02*
X019500Y016823D01*
X019500Y016981D02*
X019500Y016981D01*
X019500Y017140D02*
X019500Y017140D01*
X019500Y017298D02*
X019500Y017298D01*
X019500Y017457D02*
X019500Y017457D01*
X019649Y017615D02*
X016700Y017615D01*
X016700Y017514D02*
X016466Y017280D01*
X016134Y017280D01*
X015900Y017514D01*
X015900Y017846D01*
X016134Y018080D01*
X016466Y018080D01*
X016700Y017846D01*
X016700Y017514D01*
X016642Y017457D02*
X019254Y017457D01*
X019096Y017298D02*
X016484Y017298D01*
X016116Y017298D02*
X012484Y017298D01*
X012466Y017280D02*
X012134Y017280D01*
X011900Y017514D01*
X011900Y017846D01*
X012134Y018080D01*
X012466Y018080D01*
X012700Y017846D01*
X012700Y017514D01*
X012466Y017280D01*
X012642Y017457D02*
X015958Y017457D01*
X015900Y017615D02*
X012700Y017615D01*
X012700Y017774D02*
X015900Y017774D01*
X015986Y017932D02*
X012614Y017932D01*
X012466Y018480D02*
X012134Y018480D01*
X011900Y018714D01*
X011900Y019046D01*
X012134Y019280D01*
X012466Y019280D01*
X012700Y019046D01*
X012700Y018714D01*
X012466Y018480D01*
X012552Y018566D02*
X016048Y018566D01*
X016134Y018480D02*
X015900Y018714D01*
X015900Y019046D01*
X016134Y019280D01*
X016466Y019280D01*
X016700Y019046D01*
X016700Y018714D01*
X016466Y018480D01*
X016134Y018480D01*
X015900Y018725D02*
X012700Y018725D01*
X012700Y018883D02*
X015900Y018883D01*
X015900Y019042D02*
X012700Y019042D01*
X012546Y019200D02*
X016054Y019200D01*
X016546Y019200D02*
X025090Y019200D01*
X025090Y019042D02*
X016700Y019042D01*
X016700Y018883D02*
X025090Y018883D01*
X025090Y018725D02*
X016700Y018725D01*
X016552Y018566D02*
X022120Y018566D01*
X022184Y018630D02*
X021950Y018396D01*
X021950Y018064D01*
X022184Y017830D01*
X022516Y017830D01*
X022750Y018064D01*
X022750Y018396D01*
X022516Y018630D01*
X022184Y018630D01*
X021962Y018408D02*
X006796Y018408D01*
X006840Y018452D02*
X006904Y018606D01*
X006904Y018773D01*
X006840Y018927D01*
X006722Y019046D01*
X006568Y019109D01*
X006401Y019109D01*
X006246Y019046D01*
X006128Y018927D01*
X006064Y018773D01*
X006064Y018606D01*
X006128Y018452D01*
X006246Y018333D01*
X006401Y018269D01*
X006568Y018269D01*
X006722Y018333D01*
X006840Y018452D01*
X006888Y018566D02*
X012048Y018566D01*
X011900Y018725D02*
X006904Y018725D01*
X006859Y018883D02*
X011900Y018883D01*
X011900Y019042D02*
X010972Y019042D01*
X010975Y019043D02*
X011087Y019155D01*
X011147Y019301D01*
X011147Y019459D01*
X011087Y019605D01*
X010975Y019717D01*
X010829Y019777D01*
X010671Y019777D01*
X010525Y019717D01*
X010437Y019630D01*
X010437Y019661D01*
X010425Y019707D01*
X010402Y019748D01*
X010368Y019782D01*
X010327Y019805D01*
X010281Y019817D01*
X010000Y019817D01*
X009719Y019817D01*
X009673Y019805D01*
X009632Y019782D01*
X009598Y019748D01*
X009575Y019707D01*
X009563Y019661D01*
X009563Y019630D01*
X009475Y019717D01*
X009329Y019777D01*
X009171Y019777D01*
X009025Y019717D01*
X008913Y019605D01*
X008875Y019513D01*
X008837Y019605D01*
X008725Y019717D01*
X008579Y019777D01*
X008421Y019777D01*
X008275Y019717D01*
X008163Y019605D01*
X008103Y019459D01*
X008103Y019301D01*
X008163Y019155D01*
X008275Y019043D01*
X008421Y018983D01*
X008579Y018983D01*
X008725Y019043D01*
X008837Y019155D01*
X008875Y019247D01*
X008913Y019155D01*
X009025Y019043D01*
X009171Y018983D01*
X009329Y018983D01*
X009475Y019043D01*
X009563Y019130D01*
X009563Y019099D01*
X009575Y019053D01*
X009598Y019012D01*
X009632Y018978D01*
X009673Y018955D01*
X009719Y018943D01*
X010000Y018943D01*
X010281Y018943D01*
X010327Y018955D01*
X010368Y018978D01*
X010402Y019012D01*
X010425Y019053D01*
X010437Y019099D01*
X010437Y019130D01*
X010525Y019043D01*
X010671Y018983D01*
X010829Y018983D01*
X010975Y019043D01*
X011106Y019200D02*
X012054Y019200D01*
X012551Y019807D02*
X012712Y019740D01*
X012888Y019740D01*
X013049Y019807D01*
X013173Y019931D01*
X013240Y020092D01*
X013240Y020868D01*
X013173Y021029D01*
X013049Y021153D01*
X012888Y021220D01*
X012712Y021220D01*
X012551Y021153D01*
X012427Y021029D01*
X012360Y020868D01*
X012360Y020092D01*
X012427Y019931D01*
X012551Y019807D01*
X012524Y019834D02*
X006891Y019834D01*
X006904Y019866D02*
X006840Y019711D01*
X006722Y019593D01*
X006568Y019529D01*
X006401Y019529D01*
X006246Y019593D01*
X006128Y019711D01*
X006064Y019866D01*
X006064Y020033D01*
X006128Y020187D01*
X006246Y020305D01*
X006401Y020369D01*
X006568Y020369D01*
X006722Y020305D01*
X006840Y020187D01*
X006904Y020033D01*
X006904Y019866D01*
X006904Y019993D02*
X012401Y019993D01*
X012360Y020151D02*
X006855Y020151D01*
X006712Y020310D02*
X012360Y020310D01*
X012360Y020468D02*
X003080Y020468D01*
X003080Y020310D02*
X004288Y020310D01*
X004278Y020305D02*
X004160Y020187D01*
X004096Y020033D01*
X004096Y019866D01*
X004160Y019711D01*
X004278Y019593D01*
X004432Y019529D01*
X004599Y019529D01*
X004754Y019593D01*
X004872Y019711D01*
X004936Y019866D01*
X004936Y020033D01*
X004872Y020187D01*
X004754Y020305D01*
X004599Y020369D01*
X004432Y020369D01*
X004278Y020305D01*
X004145Y020151D02*
X003080Y020151D01*
X003080Y019993D02*
X004096Y019993D01*
X004109Y019834D02*
X003080Y019834D01*
X003080Y019676D02*
X004196Y019676D01*
X004178Y019109D02*
X004096Y019027D01*
X004096Y018351D01*
X004178Y018269D01*
X004854Y018269D01*
X004936Y018351D01*
X004936Y019027D01*
X004854Y019109D01*
X004178Y019109D01*
X004110Y019042D02*
X003080Y019042D01*
X003080Y019200D02*
X008144Y019200D01*
X008103Y019359D02*
X003080Y019359D01*
X003080Y019517D02*
X008127Y019517D01*
X008233Y019676D02*
X006804Y019676D01*
X006726Y019042D02*
X008278Y019042D01*
X008722Y019042D02*
X009028Y019042D01*
X008894Y019200D02*
X008856Y019200D01*
X008873Y019517D02*
X008877Y019517D01*
X008983Y019676D02*
X008767Y019676D01*
X009517Y019676D02*
X009566Y019676D01*
X010000Y019676D02*
X010000Y019676D01*
X010000Y019817D02*
X010000Y019380D01*
X010000Y019380D01*
X010000Y019817D01*
X010000Y019517D02*
X010000Y019517D01*
X010000Y019380D02*
X010000Y018943D01*
X010000Y019380D01*
X010000Y019380D01*
X010000Y019359D02*
X010000Y019359D01*
X010000Y019200D02*
X010000Y019200D01*
X010000Y019042D02*
X010000Y019042D01*
X009581Y019042D02*
X009472Y019042D01*
X010419Y019042D02*
X010528Y019042D01*
X010483Y019676D02*
X010434Y019676D01*
X011017Y019676D02*
X025090Y019676D01*
X025074Y019834D02*
X024626Y019834D01*
X024599Y019807D02*
X024723Y019931D01*
X024790Y020092D01*
X024790Y020868D01*
X024723Y021029D01*
X024599Y021153D01*
X024438Y021220D01*
X024262Y021220D01*
X024101Y021153D01*
X023977Y021029D01*
X023910Y020868D01*
X023910Y020092D01*
X023977Y019931D01*
X024101Y019807D01*
X024262Y019740D01*
X024438Y019740D01*
X024599Y019807D01*
X024749Y019993D02*
X024951Y019993D01*
X024910Y020151D02*
X024790Y020151D01*
X024790Y020310D02*
X024910Y020310D01*
X024910Y020468D02*
X024790Y020468D01*
X024790Y020627D02*
X024910Y020627D01*
X024910Y020785D02*
X024790Y020785D01*
X024759Y020944D02*
X024941Y020944D01*
X025050Y021102D02*
X024650Y021102D01*
X024050Y021102D02*
X023650Y021102D01*
X023599Y021153D02*
X023438Y021220D01*
X023262Y021220D01*
X023101Y021153D01*
X022977Y021029D01*
X022910Y020868D01*
X022910Y020092D01*
X022977Y019931D01*
X023101Y019807D01*
X023262Y019740D01*
X023438Y019740D01*
X023599Y019807D01*
X023723Y019931D01*
X023790Y020092D01*
X023790Y020868D01*
X023723Y021029D01*
X023599Y021153D01*
X023759Y020944D02*
X023941Y020944D01*
X023910Y020785D02*
X023790Y020785D01*
X023790Y020627D02*
X023910Y020627D01*
X023910Y020468D02*
X023790Y020468D01*
X023790Y020310D02*
X023910Y020310D01*
X023910Y020151D02*
X023790Y020151D01*
X023749Y019993D02*
X023951Y019993D01*
X024074Y019834D02*
X023626Y019834D01*
X023074Y019834D02*
X022626Y019834D01*
X022599Y019807D02*
X022723Y019931D01*
X022790Y020092D01*
X022790Y020868D01*
X022723Y021029D01*
X022599Y021153D01*
X022438Y021220D01*
X022262Y021220D01*
X022101Y021153D01*
X021977Y021029D01*
X021910Y020868D01*
X021910Y020092D01*
X021977Y019931D01*
X022101Y019807D01*
X022262Y019740D01*
X022438Y019740D01*
X022599Y019807D01*
X022749Y019993D02*
X022951Y019993D01*
X022910Y020151D02*
X022790Y020151D01*
X022790Y020310D02*
X022910Y020310D01*
X022910Y020468D02*
X022790Y020468D01*
X022790Y020627D02*
X022910Y020627D01*
X022910Y020785D02*
X022790Y020785D01*
X022759Y020944D02*
X022941Y020944D01*
X023050Y021102D02*
X022650Y021102D01*
X022050Y021102D02*
X021650Y021102D01*
X021599Y021153D02*
X021723Y021029D01*
X021790Y020868D01*
X021790Y020092D01*
X021723Y019931D01*
X021599Y019807D01*
X021438Y019740D01*
X021262Y019740D01*
X021101Y019807D01*
X020977Y019931D01*
X020910Y020092D01*
X020910Y020868D01*
X020977Y021029D01*
X021101Y021153D01*
X021262Y021220D01*
X021438Y021220D01*
X021599Y021153D01*
X021759Y020944D02*
X021941Y020944D01*
X021910Y020785D02*
X021790Y020785D01*
X021790Y020627D02*
X021910Y020627D01*
X021910Y020468D02*
X021790Y020468D01*
X021790Y020310D02*
X021910Y020310D01*
X021910Y020151D02*
X021790Y020151D01*
X021749Y019993D02*
X021951Y019993D01*
X022074Y019834D02*
X021626Y019834D01*
X021074Y019834D02*
X020076Y019834D01*
X020049Y019807D02*
X020173Y019931D01*
X020240Y020092D01*
X020240Y020868D01*
X020173Y021029D01*
X020049Y021153D01*
X019888Y021220D01*
X019712Y021220D01*
X019551Y021153D01*
X019427Y021029D01*
X019360Y020868D01*
X019360Y020092D01*
X019427Y019931D01*
X019551Y019807D01*
X019712Y019740D01*
X019888Y019740D01*
X020049Y019807D01*
X020199Y019993D02*
X020951Y019993D01*
X020910Y020151D02*
X020240Y020151D01*
X020240Y020310D02*
X020910Y020310D01*
X020910Y020468D02*
X020240Y020468D01*
X020240Y020627D02*
X020910Y020627D01*
X020910Y020785D02*
X020240Y020785D01*
X020209Y020944D02*
X020941Y020944D01*
X021050Y021102D02*
X020100Y021102D01*
X019500Y021102D02*
X019100Y021102D01*
X019049Y021153D02*
X019173Y021029D01*
X019240Y020868D01*
X019240Y020092D01*
X019173Y019931D01*
X019049Y019807D01*
X018888Y019740D01*
X018712Y019740D01*
X018551Y019807D01*
X018427Y019931D01*
X018360Y020092D01*
X018360Y020868D01*
X018427Y021029D01*
X018551Y021153D01*
X018712Y021220D01*
X018888Y021220D01*
X019049Y021153D01*
X019209Y020944D02*
X019391Y020944D01*
X019360Y020785D02*
X019240Y020785D01*
X019240Y020627D02*
X019360Y020627D01*
X019360Y020468D02*
X019240Y020468D01*
X019240Y020310D02*
X019360Y020310D01*
X019360Y020151D02*
X019240Y020151D01*
X019199Y019993D02*
X019401Y019993D01*
X019524Y019834D02*
X019076Y019834D01*
X018524Y019834D02*
X018076Y019834D01*
X018049Y019807D02*
X018173Y019931D01*
X018240Y020092D01*
X018240Y020868D01*
X018173Y021029D01*
X018049Y021153D01*
X017888Y021220D01*
X017712Y021220D01*
X017551Y021153D01*
X017427Y021029D01*
X017360Y020868D01*
X017360Y020092D01*
X017427Y019931D01*
X017551Y019807D01*
X017712Y019740D01*
X017888Y019740D01*
X018049Y019807D01*
X018199Y019993D02*
X018401Y019993D01*
X018360Y020151D02*
X018240Y020151D01*
X018240Y020310D02*
X018360Y020310D01*
X018360Y020468D02*
X018240Y020468D01*
X018240Y020627D02*
X018360Y020627D01*
X018360Y020785D02*
X018240Y020785D01*
X018209Y020944D02*
X018391Y020944D01*
X018500Y021102D02*
X018100Y021102D01*
X017500Y021102D02*
X017100Y021102D01*
X017049Y021153D02*
X016888Y021220D01*
X016712Y021220D01*
X016551Y021153D01*
X016427Y021029D01*
X016360Y020868D01*
X016360Y020092D01*
X016427Y019931D01*
X016551Y019807D01*
X016712Y019740D01*
X016888Y019740D01*
X017049Y019807D01*
X017173Y019931D01*
X017240Y020092D01*
X017240Y020868D01*
X017173Y021029D01*
X017049Y021153D01*
X017209Y020944D02*
X017391Y020944D01*
X017360Y020785D02*
X017240Y020785D01*
X017240Y020627D02*
X017360Y020627D01*
X017360Y020468D02*
X017240Y020468D01*
X017240Y020310D02*
X017360Y020310D01*
X017360Y020151D02*
X017240Y020151D01*
X017199Y019993D02*
X017401Y019993D01*
X017524Y019834D02*
X017076Y019834D01*
X016524Y019834D02*
X016076Y019834D01*
X016049Y019807D02*
X016173Y019931D01*
X016240Y020092D01*
X016240Y020868D01*
X016173Y021029D01*
X016049Y021153D01*
X015888Y021220D01*
X015712Y021220D01*
X015551Y021153D01*
X015427Y021029D01*
X015360Y020868D01*
X015360Y020092D01*
X015427Y019931D01*
X015551Y019807D01*
X015712Y019740D01*
X015888Y019740D01*
X016049Y019807D01*
X016199Y019993D02*
X016401Y019993D01*
X016360Y020151D02*
X016240Y020151D01*
X016240Y020310D02*
X016360Y020310D01*
X016360Y020468D02*
X016240Y020468D01*
X016240Y020627D02*
X016360Y020627D01*
X016360Y020785D02*
X016240Y020785D01*
X016209Y020944D02*
X016391Y020944D01*
X016500Y021102D02*
X016100Y021102D01*
X015500Y021102D02*
X015100Y021102D01*
X015049Y021153D02*
X014888Y021220D01*
X014712Y021220D01*
X014551Y021153D01*
X014427Y021029D01*
X014360Y020868D01*
X014360Y020092D01*
X014427Y019931D01*
X014551Y019807D01*
X014712Y019740D01*
X014888Y019740D01*
X015049Y019807D01*
X015173Y019931D01*
X015240Y020092D01*
X015240Y020868D01*
X015173Y021029D01*
X015049Y021153D01*
X015209Y020944D02*
X015391Y020944D01*
X015360Y020785D02*
X015240Y020785D01*
X015240Y020627D02*
X015360Y020627D01*
X015360Y020468D02*
X015240Y020468D01*
X015240Y020310D02*
X015360Y020310D01*
X015360Y020151D02*
X015240Y020151D01*
X015199Y019993D02*
X015401Y019993D01*
X015524Y019834D02*
X015076Y019834D01*
X014524Y019834D02*
X014133Y019834D01*
X014113Y019814D02*
X014166Y019867D01*
X014211Y019928D01*
X014245Y019996D01*
X014268Y020068D01*
X014280Y020142D01*
X014280Y020460D01*
X013820Y020460D01*
X013820Y020500D01*
X013780Y020500D01*
X013780Y021260D01*
X013762Y021260D01*
X013688Y021248D01*
X013616Y021225D01*
X013548Y021191D01*
X013487Y021146D01*
X013434Y021093D01*
X013389Y021032D01*
X013355Y020964D01*
X013332Y020892D01*
X013320Y020818D01*
X013320Y020500D01*
X013780Y020500D01*
X013780Y020460D01*
X013320Y020460D01*
X013320Y020142D01*
X013332Y020068D01*
X013355Y019996D01*
X013389Y019928D01*
X013434Y019867D01*
X013487Y019814D01*
X013548Y019769D01*
X013616Y019735D01*
X013688Y019712D01*
X013762Y019700D01*
X013780Y019700D01*
X013780Y020460D01*
X013820Y020460D01*
X013820Y019700D01*
X013838Y019700D01*
X013912Y019712D01*
X013984Y019735D01*
X014052Y019769D01*
X014113Y019814D01*
X014243Y019993D02*
X014401Y019993D01*
X014360Y020151D02*
X014280Y020151D01*
X014280Y020310D02*
X014360Y020310D01*
X014360Y020468D02*
X013820Y020468D01*
X013820Y020500D02*
X014280Y020500D01*
X014280Y020818D01*
X014268Y020892D01*
X014245Y020964D01*
X014211Y021032D01*
X014166Y021093D01*
X014113Y021146D01*
X014052Y021191D01*
X013984Y021225D01*
X013912Y021248D01*
X013838Y021260D01*
X013820Y021260D01*
X013820Y020500D01*
X013780Y020468D02*
X013240Y020468D01*
X013240Y020310D02*
X013320Y020310D01*
X013320Y020151D02*
X013240Y020151D01*
X013199Y019993D02*
X013357Y019993D01*
X013467Y019834D02*
X013076Y019834D01*
X013780Y019834D02*
X013820Y019834D01*
X013820Y019993D02*
X013780Y019993D01*
X013780Y020151D02*
X013820Y020151D01*
X013820Y020310D02*
X013780Y020310D01*
X013780Y020627D02*
X013820Y020627D01*
X013820Y020785D02*
X013780Y020785D01*
X013780Y020944D02*
X013820Y020944D01*
X013820Y021102D02*
X013780Y021102D01*
X013443Y021102D02*
X013100Y021102D01*
X013209Y020944D02*
X013348Y020944D01*
X013320Y020785D02*
X013240Y020785D01*
X013240Y020627D02*
X013320Y020627D01*
X014157Y021102D02*
X014500Y021102D01*
X014391Y020944D02*
X014252Y020944D01*
X014280Y020785D02*
X014360Y020785D01*
X014360Y020627D02*
X014280Y020627D01*
X012500Y021102D02*
X003080Y021102D01*
X003080Y020944D02*
X012391Y020944D01*
X012360Y020785D02*
X003080Y020785D01*
X003080Y020627D02*
X012360Y020627D01*
X011123Y019517D02*
X025090Y019517D01*
X025090Y019359D02*
X011147Y019359D01*
X011986Y017932D02*
X003080Y017932D01*
X003080Y017774D02*
X011900Y017774D01*
X011900Y017615D02*
X003080Y017615D01*
X003080Y017457D02*
X011958Y017457D01*
X012116Y017298D02*
X003080Y017298D01*
X003080Y017140D02*
X019060Y017140D01*
X019600Y017664D02*
X019834Y017430D01*
X020166Y017430D01*
X020400Y017664D01*
X020400Y017996D01*
X020166Y018230D01*
X019834Y018230D01*
X019600Y017996D01*
X019600Y017664D01*
X019600Y017774D02*
X016700Y017774D01*
X016614Y017932D02*
X019600Y017932D01*
X019695Y018091D02*
X003080Y018091D01*
X003080Y018249D02*
X021950Y018249D01*
X021950Y018091D02*
X020305Y018091D01*
X020400Y017932D02*
X022082Y017932D01*
X021680Y017627D02*
X021680Y017627D01*
X021667Y017615D02*
X020351Y017615D01*
X020334Y017480D02*
X020100Y017246D01*
X020100Y016914D01*
X020334Y016680D01*
X020666Y016680D01*
X020900Y016914D01*
X020900Y017246D01*
X020666Y017480D01*
X020334Y017480D01*
X020311Y017457D02*
X020192Y017457D01*
X020152Y017298D02*
X019904Y017298D01*
X019940Y017140D02*
X020100Y017140D01*
X020100Y016981D02*
X019940Y016981D01*
X019865Y016823D02*
X020192Y016823D01*
X020558Y016506D02*
X016700Y016506D01*
X016127Y016823D02*
X012473Y016823D01*
X012632Y016664D02*
X015968Y016664D01*
X015900Y016506D02*
X012700Y016506D01*
X012700Y016347D02*
X015900Y016347D01*
X014434Y014287D02*
X007472Y014287D01*
X007340Y014128D02*
X010332Y014128D01*
X010968Y014128D02*
X014276Y014128D01*
X014210Y013970D02*
X011050Y013970D01*
X011050Y013811D02*
X014210Y013811D01*
X014255Y013653D02*
X010988Y013653D01*
X010830Y013494D02*
X014414Y013494D01*
X014650Y013019D02*
X014650Y013019D01*
X014650Y012860D02*
X014650Y012860D01*
X014650Y012702D02*
X014650Y012702D01*
X014650Y012543D02*
X014650Y012543D01*
X014650Y012385D02*
X014650Y012385D01*
X014977Y012385D02*
X018119Y012385D01*
X017961Y012543D02*
X015090Y012543D01*
X015090Y012702D02*
X017840Y012702D01*
X017840Y012860D02*
X015090Y012860D01*
X014934Y013019D02*
X017840Y013019D01*
X017889Y013177D02*
X004800Y013177D01*
X004660Y013336D02*
X018048Y013336D01*
X018603Y011751D02*
X014945Y011751D01*
X014852Y011117D02*
X019830Y011117D01*
X019852Y011064D02*
X019984Y010932D01*
X020157Y010860D01*
X020343Y010860D01*
X020516Y010932D01*
X020648Y011064D01*
X020720Y011237D01*
X020720Y011423D01*
X020648Y011596D01*
X020516Y011728D01*
X020343Y011800D01*
X020157Y011800D01*
X019984Y011728D01*
X019852Y011596D01*
X019780Y011423D01*
X019780Y011237D01*
X019852Y011064D01*
X019957Y010958D02*
X004800Y010958D01*
X004735Y010800D02*
X024000Y010800D01*
X024000Y010641D02*
X014911Y010641D01*
X014832Y010720D02*
X014650Y010720D01*
X014650Y010280D01*
X015090Y010280D01*
X015090Y010462D01*
X014832Y010720D01*
X014650Y010720D02*
X014468Y010720D01*
X014210Y010462D01*
X014210Y010280D01*
X014650Y010280D01*
X014650Y010280D01*
X014650Y010280D01*
X015090Y010280D01*
X015090Y010098D01*
X014832Y009840D01*
X014650Y009840D01*
X014650Y010280D01*
X014650Y010280D01*
X014650Y010280D01*
X014650Y010720D01*
X014650Y010641D02*
X014650Y010641D01*
X014650Y010483D02*
X014650Y010483D01*
X014650Y010324D02*
X014650Y010324D01*
X014650Y010280D02*
X014210Y010280D01*
X014210Y010098D01*
X014468Y009840D01*
X014650Y009840D01*
X014650Y010280D01*
X014650Y010166D02*
X014650Y010166D01*
X014650Y010007D02*
X014650Y010007D01*
X014650Y009849D02*
X014650Y009849D01*
X014841Y009849D02*
X024000Y009849D01*
X024000Y010007D02*
X014999Y010007D01*
X015090Y010166D02*
X024000Y010166D01*
X024000Y010324D02*
X015090Y010324D01*
X015070Y010483D02*
X024000Y010483D01*
X023957Y010958D02*
X020543Y010958D01*
X020670Y011117D02*
X023830Y011117D01*
X023780Y011275D02*
X020720Y011275D01*
X020716Y011434D02*
X023784Y011434D01*
X023850Y011592D02*
X020650Y011592D01*
X020463Y011751D02*
X024037Y011751D01*
X024405Y011909D02*
X019497Y011909D01*
X019338Y011751D02*
X020037Y011751D01*
X019850Y011592D02*
X019180Y011592D01*
X019021Y011434D02*
X019784Y011434D01*
X019780Y011275D02*
X018863Y011275D01*
X022503Y012226D02*
X023997Y012226D01*
X023843Y012385D02*
X022657Y012385D01*
X022720Y012543D02*
X023780Y012543D01*
X023780Y012702D02*
X022720Y012702D01*
X022663Y012860D02*
X023837Y012860D01*
X023974Y013019D02*
X022526Y013019D01*
X025095Y011751D02*
X026266Y011751D01*
X026046Y011909D02*
X025253Y011909D01*
X025412Y012068D02*
X025966Y012068D01*
X025947Y012226D02*
X025500Y012226D01*
X025500Y012385D02*
X025978Y012385D01*
X026075Y012543D02*
X025500Y012543D01*
X024000Y009690D02*
X007007Y009690D01*
X006985Y009638D02*
X007037Y009763D01*
X007037Y009897D01*
X006985Y010022D01*
X006890Y010117D01*
X006766Y010168D01*
X006234Y010168D01*
X006110Y010117D01*
X006015Y010022D01*
X005963Y009897D01*
X005963Y009763D01*
X006015Y009638D01*
X006110Y009543D01*
X006234Y009492D01*
X006766Y009492D01*
X006890Y009543D01*
X006985Y009638D01*
X006862Y009532D02*
X024000Y009532D01*
X026913Y005569D02*
X030320Y005569D01*
X020370Y002241D02*
X020330Y002241D01*
X020330Y002082D02*
X020370Y002082D01*
X020370Y001924D02*
X020330Y001924D01*
X020330Y001765D02*
X020370Y001765D01*
X020370Y001607D02*
X020330Y001607D01*
X020330Y001448D02*
X020370Y001448D01*
X020370Y001290D02*
X020330Y001290D01*
X020330Y001131D02*
X020370Y001131D01*
X020370Y000973D02*
X020330Y000973D01*
X020330Y000814D02*
X020370Y000814D01*
X020109Y000814D02*
X019591Y000814D01*
X019602Y000819D02*
X019663Y000864D01*
X019716Y000917D01*
X019761Y000978D01*
X019795Y001046D01*
X019818Y001118D01*
X019830Y001192D01*
X019830Y001510D01*
X019370Y001510D01*
X019370Y000750D01*
X019388Y000750D01*
X019462Y000762D01*
X019534Y000785D01*
X019602Y000819D01*
X019756Y000973D02*
X019944Y000973D01*
X019880Y001131D02*
X019820Y001131D01*
X019830Y001290D02*
X019870Y001290D01*
X019870Y001448D02*
X019830Y001448D01*
X019830Y001607D02*
X019870Y001607D01*
X019870Y001765D02*
X019830Y001765D01*
X019821Y001924D02*
X019879Y001924D01*
X019939Y002082D02*
X019984Y002143D01*
X020037Y002196D01*
X020098Y002241D01*
X019370Y002241D02*
X019330Y002241D01*
X019330Y002082D02*
X019370Y002082D01*
X019370Y001924D02*
X019330Y001924D01*
X019330Y001765D02*
X019370Y001765D01*
X019370Y001607D02*
X019330Y001607D01*
X019330Y001448D02*
X019370Y001448D01*
X019370Y001290D02*
X019330Y001290D01*
X019330Y001131D02*
X019370Y001131D01*
X019370Y000973D02*
X019330Y000973D01*
X019330Y000814D02*
X019370Y000814D01*
X018870Y001550D02*
X018870Y001868D01*
X018882Y001942D01*
X018905Y002014D01*
X018939Y002082D01*
X018984Y002143D01*
X019037Y002196D01*
X019098Y002241D01*
X018940Y002082D02*
X018720Y002082D01*
X018788Y001924D02*
X018879Y001924D01*
X018870Y001765D02*
X018790Y001765D01*
X018790Y001607D02*
X018870Y001607D01*
X017910Y001607D02*
X017790Y001607D01*
X017790Y001765D02*
X017910Y001765D01*
X017912Y001924D02*
X017788Y001924D01*
X017720Y002082D02*
X017980Y002082D01*
X018050Y002241D02*
X017509Y002241D01*
X017508Y002450D02*
X017669Y002517D01*
X017793Y002641D01*
X017860Y002802D01*
X017860Y002978D01*
X017793Y003139D01*
X017669Y003263D01*
X017508Y003330D01*
X016732Y003330D01*
X016571Y003263D01*
X016447Y003139D01*
X016380Y002978D01*
X016380Y002802D01*
X016447Y002641D01*
X016571Y002517D01*
X016732Y002450D01*
X017508Y002450D01*
X017710Y002558D02*
X018050Y002558D01*
X018050Y002716D02*
X017824Y002716D01*
X017860Y002875D02*
X018050Y002875D01*
X018050Y003033D02*
X017837Y003033D01*
X017741Y003192D02*
X018050Y003192D01*
X018050Y003350D02*
X015162Y003350D01*
X015162Y003192D02*
X016499Y003192D01*
X016403Y003033D02*
X015162Y003033D01*
X015162Y002875D02*
X016380Y002875D01*
X016416Y002716D02*
X015162Y002716D01*
X015162Y003509D02*
X018050Y003509D01*
X018050Y003667D02*
X015162Y003667D01*
X015162Y003826D02*
X018050Y003826D01*
X018050Y003984D02*
X015162Y003984D01*
X013382Y003984D02*
X011618Y003984D01*
X011618Y003826D02*
X013382Y003826D01*
X013382Y003667D02*
X011618Y003667D01*
X011618Y003509D02*
X013382Y003509D01*
X013382Y003350D02*
X011618Y003350D01*
X011618Y003192D02*
X013382Y003192D01*
X013382Y003033D02*
X011618Y003033D01*
X011618Y002875D02*
X013382Y002875D01*
X013382Y002716D02*
X011618Y002716D01*
X011618Y002666D02*
X011618Y004282D01*
X011536Y004364D01*
X009920Y004364D01*
X009838Y004282D01*
X009838Y002666D01*
X009920Y002584D01*
X011536Y002584D01*
X011618Y002666D01*
X009838Y002716D02*
X009745Y002716D01*
X009745Y002669D02*
X009663Y002587D01*
X008047Y002587D01*
X007965Y002669D01*
X007965Y004285D01*
X008047Y004367D01*
X009663Y004367D01*
X009745Y004285D01*
X009745Y002669D01*
X009745Y002875D02*
X009838Y002875D01*
X009838Y003033D02*
X009745Y003033D01*
X009745Y003192D02*
X009838Y003192D01*
X009838Y003350D02*
X009745Y003350D01*
X009745Y003509D02*
X009838Y003509D01*
X009838Y003667D02*
X009745Y003667D01*
X009745Y003826D02*
X009838Y003826D01*
X009838Y003984D02*
X009745Y003984D01*
X009745Y004143D02*
X009838Y004143D01*
X009857Y004301D02*
X009729Y004301D01*
X011599Y004301D02*
X013401Y004301D01*
X013382Y004143D02*
X011618Y004143D01*
X011879Y004777D02*
X003080Y004777D01*
X003080Y004935D02*
X011721Y004935D01*
X011562Y005094D02*
X003080Y005094D01*
X003080Y005252D02*
X011404Y005252D01*
X011245Y005411D02*
X003080Y005411D01*
X003080Y005569D02*
X011200Y005569D01*
X011200Y005728D02*
X003080Y005728D01*
X003080Y005886D02*
X006512Y005886D01*
X006632Y005886D02*
X006668Y005886D01*
X006788Y005886D02*
X011124Y005886D01*
X011030Y006045D02*
X007984Y006045D01*
X008103Y006203D02*
X010996Y006203D01*
X011007Y006362D02*
X008154Y006362D01*
X008154Y006520D02*
X011073Y006520D01*
X012094Y005411D02*
X014606Y005411D01*
X014923Y005728D02*
X013732Y005728D01*
X013927Y005886D02*
X015082Y005886D01*
X015255Y006045D02*
X014013Y006045D01*
X015863Y007630D02*
X003080Y007630D01*
X003080Y007788D02*
X015733Y007788D01*
X015667Y007947D02*
X003080Y007947D01*
X003080Y008105D02*
X006048Y008105D01*
X005963Y008264D02*
X003080Y008264D01*
X003080Y008422D02*
X005973Y008422D01*
X006073Y008581D02*
X003080Y008581D01*
X003080Y008739D02*
X006136Y008739D01*
X005968Y008898D02*
X003080Y008898D01*
X003080Y009056D02*
X005923Y009056D01*
X005923Y009080D02*
X006500Y009080D01*
X006500Y008702D01*
X006500Y009080D01*
X006500Y009080D01*
X006500Y009080D01*
X005923Y009080D01*
X005948Y009215D02*
X003080Y009215D01*
X003080Y009373D02*
X006059Y009373D01*
X006138Y009532D02*
X003080Y009532D01*
X003080Y009690D02*
X005993Y009690D01*
X005963Y009849D02*
X003080Y009849D01*
X003080Y010007D02*
X006009Y010007D01*
X006227Y010166D02*
X003080Y010166D01*
X003080Y010324D02*
X010250Y010324D01*
X010250Y010446D02*
X010250Y010114D01*
X010484Y009880D01*
X010816Y009880D01*
X011050Y010114D01*
X011050Y010446D01*
X010816Y010680D01*
X010484Y010680D01*
X010250Y010446D01*
X010287Y010483D02*
X003080Y010483D01*
X003080Y010641D02*
X004223Y010641D01*
X004065Y010800D02*
X003080Y010800D01*
X003080Y010958D02*
X004000Y010958D01*
X004000Y011117D02*
X003080Y011117D01*
X003080Y011275D02*
X004079Y011275D01*
X004577Y010641D02*
X010445Y010641D01*
X010855Y010641D02*
X014389Y010641D01*
X014230Y010483D02*
X011013Y010483D01*
X011050Y010324D02*
X014210Y010324D01*
X014210Y010166D02*
X011050Y010166D01*
X010943Y010007D02*
X014301Y010007D01*
X014459Y009849D02*
X007037Y009849D01*
X006991Y010007D02*
X010357Y010007D01*
X010250Y010166D02*
X006773Y010166D01*
X006500Y009373D02*
X006500Y009373D01*
X006500Y009215D02*
X006500Y009215D01*
X006500Y009056D02*
X006500Y009056D01*
X006500Y008898D02*
X006500Y008898D01*
X006500Y008739D02*
X006500Y008739D01*
X007027Y008422D02*
X015738Y008422D01*
X015673Y008264D02*
X007037Y008264D01*
X006952Y008105D02*
X015656Y008105D01*
X017100Y005094D02*
X017140Y005094D01*
X017140Y004935D02*
X017100Y004935D01*
X017100Y004777D02*
X017140Y004777D01*
X017140Y004618D02*
X017100Y004618D01*
X017100Y004460D02*
X017140Y004460D01*
X017140Y004301D02*
X017100Y004301D01*
X016530Y002558D02*
X003080Y002558D01*
X003080Y002716D02*
X003555Y002716D01*
X003555Y002669D02*
X003637Y002587D01*
X005253Y002587D01*
X005335Y002669D01*
X005335Y004285D01*
X005253Y004367D01*
X003637Y004367D01*
X003555Y004285D01*
X003555Y002669D01*
X003555Y002875D02*
X003080Y002875D01*
X003080Y003033D02*
X003555Y003033D01*
X003555Y003192D02*
X003080Y003192D01*
X003080Y003350D02*
X003555Y003350D01*
X003555Y003509D02*
X003080Y003509D01*
X003080Y003667D02*
X003555Y003667D01*
X003555Y003826D02*
X003080Y003826D01*
X003080Y003984D02*
X003555Y003984D01*
X003555Y004143D02*
X003080Y004143D01*
X003080Y004301D02*
X003571Y004301D01*
X005320Y004301D02*
X007980Y004301D01*
X007965Y004143D02*
X005335Y004143D01*
X005335Y003984D02*
X007965Y003984D01*
X007965Y003826D02*
X005335Y003826D01*
X005335Y003667D02*
X007965Y003667D01*
X007965Y003509D02*
X005335Y003509D01*
X005335Y003350D02*
X007965Y003350D01*
X007965Y003192D02*
X005335Y003192D01*
X005335Y003033D02*
X007965Y003033D01*
X007965Y002875D02*
X005335Y002875D01*
X005335Y002716D02*
X007965Y002716D01*
X007284Y006045D02*
X007056Y006045D01*
X007163Y006203D02*
X007165Y006203D01*
X007152Y006679D02*
X007174Y006679D01*
X007306Y006837D02*
X007035Y006837D01*
X006668Y006837D02*
X006632Y006837D01*
X006632Y006679D02*
X006668Y006679D01*
X006668Y006520D02*
X006632Y006520D01*
X006632Y006362D02*
X006668Y006362D01*
X006668Y006203D02*
X006632Y006203D01*
X006632Y006045D02*
X006668Y006045D01*
X006244Y006045D02*
X006016Y006045D01*
X006135Y006203D02*
X006137Y006203D01*
X006126Y006679D02*
X006148Y006679D01*
X006265Y006837D02*
X005994Y006837D01*
X005337Y006837D02*
X003080Y006837D01*
X003080Y006679D02*
X005206Y006679D01*
X005146Y006520D02*
X003080Y006520D01*
X003080Y006362D02*
X005146Y006362D01*
X005197Y006203D02*
X003080Y006203D01*
X003080Y006045D02*
X005316Y006045D01*
X003080Y002399D02*
X018050Y002399D01*
X017191Y002241D02*
X016509Y002241D01*
X016720Y002082D02*
X016980Y002082D01*
X016912Y001924D02*
X016788Y001924D01*
X016790Y001765D02*
X016910Y001765D01*
X016910Y001607D02*
X016790Y001607D01*
X016790Y001448D02*
X016910Y001448D01*
X016910Y001290D02*
X016790Y001290D01*
X016785Y001131D02*
X016915Y001131D01*
X016985Y000973D02*
X016715Y000973D01*
X015985Y000973D02*
X003080Y000973D01*
X003080Y001131D02*
X015915Y001131D01*
X015910Y001290D02*
X003080Y001290D01*
X003080Y001448D02*
X015910Y001448D01*
X015910Y001607D02*
X003080Y001607D01*
X003080Y001765D02*
X015910Y001765D01*
X015912Y001924D02*
X003080Y001924D01*
X003080Y002082D02*
X015980Y002082D01*
X016191Y002241D02*
X003080Y002241D01*
X006965Y011728D02*
X007117Y011664D01*
X007283Y011664D01*
X007435Y011728D01*
X007552Y011845D01*
X007616Y011997D01*
X007616Y012163D01*
X007552Y012315D01*
X007435Y012432D01*
X007283Y012496D01*
X007117Y012496D01*
X006965Y012432D01*
X006848Y012315D01*
X006784Y012163D01*
X006784Y011997D01*
X006848Y011845D01*
X006965Y011728D01*
X006942Y011751D02*
X003080Y011751D01*
X003080Y011909D02*
X006821Y011909D01*
X006784Y012068D02*
X003080Y012068D01*
X003080Y012226D02*
X006811Y012226D01*
X006917Y012385D02*
X003080Y012385D01*
X003080Y012543D02*
X010250Y012543D01*
X010380Y012385D02*
X008483Y012385D01*
X007917Y012385D02*
X007483Y012385D01*
X007589Y012226D02*
X007811Y012226D01*
X007784Y012068D02*
X007616Y012068D01*
X007579Y011909D02*
X007821Y011909D01*
X007942Y011751D02*
X007458Y011751D01*
X006220Y014128D02*
X004780Y014128D01*
X004912Y014287D02*
X006088Y014287D01*
X006040Y014445D02*
X004960Y014445D01*
X004949Y014604D02*
X006051Y014604D01*
X006130Y014762D02*
X004870Y014762D01*
X004630Y014921D02*
X006370Y014921D01*
X006292Y015872D02*
X004708Y015872D01*
X004719Y016664D02*
X006281Y016664D01*
X007279Y016664D02*
X008612Y016664D01*
X008510Y016506D02*
X007459Y016506D01*
X007520Y016347D02*
X008510Y016347D01*
X008519Y016189D02*
X007520Y016189D01*
X006172Y018408D02*
X005812Y018408D01*
X005856Y018452D02*
X005738Y018333D01*
X005584Y018269D01*
X005416Y018269D01*
X005262Y018333D01*
X005144Y018452D01*
X005080Y018606D01*
X005080Y018773D01*
X005144Y018927D01*
X005262Y019046D01*
X005416Y019109D01*
X005584Y019109D01*
X005738Y019046D01*
X005856Y018927D01*
X005920Y018773D01*
X005920Y018606D01*
X005856Y018452D01*
X005903Y018566D02*
X006081Y018566D01*
X006064Y018725D02*
X005920Y018725D01*
X005874Y018883D02*
X006110Y018883D01*
X006242Y019042D02*
X005742Y019042D01*
X005258Y019042D02*
X004922Y019042D01*
X004936Y018883D02*
X005126Y018883D01*
X005080Y018725D02*
X004936Y018725D01*
X004936Y018566D02*
X005097Y018566D01*
X005188Y018408D02*
X004936Y018408D01*
X004096Y018408D02*
X003080Y018408D01*
X003080Y018566D02*
X004096Y018566D01*
X004096Y018725D02*
X003080Y018725D01*
X003080Y018883D02*
X004096Y018883D01*
X004836Y019676D02*
X005180Y019676D01*
X005144Y019711D02*
X005262Y019593D01*
X005416Y019529D01*
X005584Y019529D01*
X005738Y019593D01*
X005856Y019711D01*
X005920Y019866D01*
X005920Y020033D01*
X005856Y020187D01*
X005738Y020305D01*
X005584Y020369D01*
X005416Y020369D01*
X005262Y020305D01*
X005144Y020187D01*
X005080Y020033D01*
X005080Y019866D01*
X005144Y019711D01*
X005093Y019834D02*
X004923Y019834D01*
X004936Y019993D02*
X005080Y019993D01*
X005129Y020151D02*
X004887Y020151D01*
X004744Y020310D02*
X005272Y020310D01*
X005728Y020310D02*
X006256Y020310D01*
X006113Y020151D02*
X005871Y020151D01*
X005920Y019993D02*
X006064Y019993D01*
X006077Y019834D02*
X005907Y019834D01*
X005820Y019676D02*
X006164Y019676D01*
X003080Y021261D02*
X030320Y021261D01*
X030320Y021419D02*
X003080Y021419D01*
X003080Y021578D02*
X030320Y021578D01*
X030320Y021102D02*
X028650Y021102D01*
X028599Y021153D02*
X028438Y021220D01*
X028262Y021220D01*
X028101Y021153D01*
X027977Y021029D01*
X027910Y020868D01*
X027910Y020092D01*
X027977Y019931D01*
X028101Y019807D01*
X028262Y019740D01*
X028438Y019740D01*
X028599Y019807D01*
X028723Y019931D01*
X028790Y020092D01*
X028790Y020868D01*
X028723Y021029D01*
X028599Y021153D01*
X028759Y020944D02*
X030320Y020944D01*
X030320Y020785D02*
X028790Y020785D01*
X028790Y020627D02*
X030320Y020627D01*
X030320Y020468D02*
X028790Y020468D01*
X028790Y020310D02*
X030320Y020310D01*
X030320Y020151D02*
X028790Y020151D01*
X028749Y019993D02*
X030320Y019993D01*
X030320Y019834D02*
X028626Y019834D01*
X028074Y019834D02*
X027626Y019834D01*
X027599Y019807D02*
X027723Y019931D01*
X027790Y020092D01*
X027790Y020868D01*
X027723Y021029D01*
X027599Y021153D01*
X027438Y021220D01*
X027262Y021220D01*
X027101Y021153D01*
X026977Y021029D01*
X026910Y020868D01*
X026910Y020092D01*
X026977Y019931D01*
X027101Y019807D01*
X027262Y019740D01*
X027438Y019740D01*
X027599Y019807D01*
X027749Y019993D02*
X027951Y019993D01*
X027910Y020151D02*
X027790Y020151D01*
X027790Y020310D02*
X027910Y020310D01*
X027910Y020468D02*
X027790Y020468D01*
X027790Y020627D02*
X027910Y020627D01*
X027910Y020785D02*
X027790Y020785D01*
X027759Y020944D02*
X027941Y020944D01*
X028050Y021102D02*
X027650Y021102D01*
X027050Y021102D02*
X026650Y021102D01*
X026599Y021153D02*
X026438Y021220D01*
X026262Y021220D01*
X026101Y021153D01*
X025977Y021029D01*
X025910Y020868D01*
X025910Y020092D01*
X025977Y019931D01*
X026101Y019807D01*
X026262Y019740D01*
X026438Y019740D01*
X026599Y019807D01*
X026723Y019931D01*
X026790Y020092D01*
X026790Y020868D01*
X026723Y021029D01*
X026599Y021153D01*
X026759Y020944D02*
X026941Y020944D01*
X026910Y020785D02*
X026790Y020785D01*
X026790Y020627D02*
X026910Y020627D01*
X026910Y020468D02*
X026790Y020468D01*
X026790Y020310D02*
X026910Y020310D01*
X026910Y020151D02*
X026790Y020151D01*
X026749Y019993D02*
X026951Y019993D01*
X027074Y019834D02*
X026626Y019834D01*
X026074Y019834D02*
X025626Y019834D01*
X025610Y019676D02*
X030320Y019676D01*
X030320Y019517D02*
X025610Y019517D01*
X025610Y019359D02*
X030320Y019359D01*
X030320Y019200D02*
X025610Y019200D01*
X025610Y019042D02*
X030320Y019042D01*
X030320Y018883D02*
X025610Y018883D01*
X025610Y018725D02*
X030320Y018725D01*
X030320Y018566D02*
X026580Y018566D01*
X026516Y018630D02*
X026184Y018630D01*
X025950Y018396D01*
X025950Y018064D01*
X026184Y017830D01*
X026516Y017830D01*
X026750Y018064D01*
X026750Y018396D01*
X026516Y018630D01*
X026738Y018408D02*
X030320Y018408D01*
X030320Y018249D02*
X026750Y018249D01*
X026750Y018091D02*
X030320Y018091D01*
X030320Y017932D02*
X026618Y017932D01*
X026082Y017932D02*
X025120Y017932D01*
X025278Y018091D02*
X025950Y018091D01*
X025950Y018249D02*
X025437Y018249D01*
X025581Y018408D02*
X025962Y018408D01*
X026120Y018566D02*
X025610Y018566D01*
X025018Y018566D02*
X022580Y018566D01*
X022738Y018408D02*
X024860Y018408D01*
X024701Y018249D02*
X022750Y018249D01*
X022750Y018091D02*
X024543Y018091D01*
X024384Y017932D02*
X022618Y017932D01*
X021927Y017140D02*
X030320Y017140D01*
X030320Y017298D02*
X024486Y017298D01*
X024644Y017457D02*
X030320Y017457D01*
X030320Y017615D02*
X024803Y017615D01*
X024961Y017774D02*
X030320Y017774D01*
X030320Y016981D02*
X024564Y016981D01*
X024679Y016823D02*
X030320Y016823D01*
X030320Y016664D02*
X024720Y016664D01*
X024707Y016506D02*
X026100Y016506D01*
X025989Y016347D02*
X024632Y016347D01*
X023936Y016981D02*
X022564Y016981D01*
X022679Y016823D02*
X023821Y016823D01*
X023780Y016664D02*
X022720Y016664D01*
X022707Y016506D02*
X023793Y016506D01*
X023868Y016347D02*
X022632Y016347D01*
X022088Y016189D02*
X020976Y016189D01*
X021135Y016347D02*
X021868Y016347D01*
X021793Y016506D02*
X021293Y016506D01*
X021452Y016664D02*
X021780Y016664D01*
X021821Y016823D02*
X021610Y016823D01*
X021769Y016981D02*
X021936Y016981D01*
X021509Y017457D02*
X020689Y017457D01*
X020848Y017298D02*
X021350Y017298D01*
X021192Y017140D02*
X020900Y017140D01*
X020900Y016981D02*
X021033Y016981D01*
X020875Y016823D02*
X020808Y016823D01*
X020716Y016664D02*
X019706Y016664D01*
X019746Y017457D02*
X019808Y017457D01*
X020400Y017774D02*
X024226Y017774D01*
X021988Y016030D02*
X020818Y016030D01*
X020659Y015872D02*
X021841Y015872D01*
X021780Y015713D02*
X020501Y015713D01*
X020342Y015555D02*
X021780Y015555D01*
X021838Y015396D02*
X020184Y015396D01*
X019765Y015713D02*
X003080Y015713D01*
X003080Y015555D02*
X019607Y015555D01*
X025749Y019993D02*
X025951Y019993D01*
X025910Y020151D02*
X025790Y020151D01*
X025790Y020310D02*
X025910Y020310D01*
X025910Y020468D02*
X025790Y020468D01*
X025790Y020627D02*
X025910Y020627D01*
X025910Y020785D02*
X025790Y020785D01*
X025759Y020944D02*
X025941Y020944D01*
X026050Y021102D02*
X025650Y021102D01*
X027484Y016506D02*
X030320Y016506D01*
X030320Y016347D02*
X027595Y016347D01*
X027637Y016189D02*
X030320Y016189D01*
X030320Y016030D02*
X027629Y016030D01*
X027563Y015872D02*
X030320Y015872D01*
X030320Y015713D02*
X027380Y015713D01*
X019700Y005094D02*
X019660Y005094D01*
X019660Y004935D02*
X019700Y004935D01*
X019700Y004777D02*
X019660Y004777D01*
X019660Y004618D02*
X019700Y004618D01*
X019700Y004460D02*
X019660Y004460D01*
X019660Y004301D02*
X019700Y004301D01*
X017910Y001448D02*
X017790Y001448D01*
X017790Y001290D02*
X017910Y001290D01*
X017915Y001131D02*
X017785Y001131D01*
X017715Y000973D02*
X017985Y000973D01*
X011150Y015238D02*
X003080Y015238D01*
X003080Y015396D02*
X011250Y015396D01*
X003732Y015872D02*
X003080Y015872D01*
X003080Y016030D02*
X003543Y016030D01*
X003480Y016189D02*
X003080Y016189D01*
X003080Y016347D02*
X003480Y016347D01*
X003541Y016506D02*
X003080Y016506D01*
X003080Y016664D02*
X003721Y016664D01*
D26*
X011500Y006214D02*
X011500Y005580D01*
X012100Y004980D01*
X014600Y004980D01*
X015400Y005780D01*
X018400Y005780D01*
X018350Y005730D01*
X018350Y001530D01*
X018400Y005780D02*
X024300Y005780D01*
X024300Y011280D01*
X024250Y011330D02*
X025200Y012280D01*
X025200Y014680D01*
X024250Y015630D01*
X028231Y007311D02*
X029061Y007311D01*
X028231Y007311D02*
X026700Y005780D01*
X024300Y005780D01*
M02*
