G75*
G70*
%OFA0B0*%
%FSLAX24Y24*%
%IPPOS*%
%LPD*%
%AMOC8*
5,1,8,0,0,1.08239X$1,22.5*
%
%ADD10C,0.0600*%
%ADD11OC8,0.0520*%
%ADD12C,0.0515*%
%ADD13R,0.0515X0.0515*%
%ADD14C,0.0760*%
%ADD15R,0.1500X0.1500*%
%ADD16C,0.0397*%
%ADD17C,0.0660*%
%ADD18C,0.0551*%
%ADD19C,0.0705*%
%ADD20C,0.0594*%
%ADD21OC8,0.0760*%
%ADD22R,0.0560X0.0560*%
%ADD23C,0.0560*%
%ADD24C,0.0320*%
%ADD25C,0.0240*%
D10*
X016350Y001230D02*
X016350Y001830D01*
X017350Y001830D02*
X017350Y001230D01*
X018350Y001230D02*
X018350Y001830D01*
X019350Y001830D02*
X019350Y001230D01*
X020350Y001230D02*
X020350Y001830D01*
X021350Y001830D02*
X021350Y001230D01*
X023400Y001180D02*
X023400Y001780D01*
X024400Y001780D02*
X024400Y001180D01*
X025400Y001180D02*
X025400Y001780D01*
X026400Y001780D02*
X026400Y001180D01*
X027400Y001180D02*
X027400Y001780D01*
X028400Y001780D02*
X028400Y001180D01*
X019980Y002890D02*
X019380Y002890D01*
X017420Y002890D02*
X016820Y002890D01*
X016820Y004670D02*
X017420Y004670D01*
X019380Y004670D02*
X019980Y004670D01*
X007080Y014490D02*
X006480Y014490D01*
X006480Y016270D02*
X007080Y016270D01*
X004520Y016270D02*
X003920Y016270D01*
X003920Y014490D02*
X004520Y014490D01*
X012800Y020180D02*
X012800Y020780D01*
X013800Y020780D02*
X013800Y020180D01*
X014800Y020180D02*
X014800Y020780D01*
X015800Y020780D02*
X015800Y020180D01*
X016800Y020180D02*
X016800Y020780D01*
X017800Y020780D02*
X017800Y020180D01*
X018800Y020180D02*
X018800Y020780D01*
X019800Y020780D02*
X019800Y020180D01*
X021350Y020180D02*
X021350Y020780D01*
X022350Y020780D02*
X022350Y020180D01*
X023350Y020180D02*
X023350Y020780D01*
X024350Y020780D02*
X024350Y020180D01*
X025350Y020180D02*
X025350Y020780D01*
X026350Y020780D02*
X026350Y020180D01*
X027350Y020180D02*
X027350Y020780D01*
X028350Y020780D02*
X028350Y020180D01*
D11*
X026350Y018230D03*
X022350Y018230D03*
X020500Y017080D03*
X020000Y017830D03*
X019500Y017080D03*
X016300Y017680D03*
X016300Y018880D03*
X016300Y016430D03*
X015550Y015130D03*
X014650Y013880D03*
X014650Y012680D03*
X014650Y011480D03*
X014650Y010280D03*
X014650Y009080D03*
X010650Y009080D03*
X010650Y010280D03*
X010650Y011480D03*
X010650Y012680D03*
X010650Y013880D03*
X011550Y015130D03*
X012300Y016430D03*
X012300Y017680D03*
X012300Y018880D03*
X009950Y016380D03*
X008950Y016380D03*
X004400Y013030D03*
X004400Y011030D03*
D12*
X008500Y019380D03*
X009250Y019380D03*
X010750Y019380D03*
D13*
X010000Y019380D03*
D14*
X007634Y006430D03*
X006650Y006430D03*
X005666Y006430D03*
X011516Y006230D03*
X012500Y006230D03*
X013484Y006230D03*
D15*
X004445Y003477D03*
X008855Y003477D03*
X010728Y003474D03*
X014272Y003474D03*
D16*
X006698Y008330D02*
X006302Y008330D01*
X006302Y009080D02*
X006698Y009080D01*
X006698Y009830D02*
X006302Y009830D01*
D17*
X020250Y011330D03*
X022250Y012630D03*
X024250Y012630D03*
X024250Y011330D03*
X024250Y015630D03*
X024250Y016630D03*
X022250Y016630D03*
X022250Y015630D03*
D18*
X008200Y012080D03*
X007200Y012080D03*
D19*
X026440Y012211D02*
X027145Y012211D01*
X027145Y014180D02*
X026440Y014180D01*
X026440Y016149D02*
X027145Y016149D01*
D20*
X028764Y008311D02*
X029357Y008311D01*
X029357Y007311D02*
X028764Y007311D01*
X028764Y006311D02*
X029357Y006311D01*
D21*
X018400Y012896D03*
X018400Y014864D03*
D22*
X004516Y018689D03*
D23*
X005500Y018689D03*
X006484Y018689D03*
X006484Y019949D03*
X005500Y019949D03*
X004516Y019949D03*
D24*
X022250Y016630D02*
X022850Y016630D01*
X023200Y016280D01*
X023200Y015180D01*
X023700Y014680D01*
X025324Y014680D01*
X026792Y016149D01*
X027300Y017080D02*
X028200Y016180D01*
X028200Y012680D01*
X027731Y012211D01*
X026792Y012211D01*
X025260Y012660D02*
X026792Y014180D01*
X025260Y012660D02*
X024250Y012630D01*
X022250Y012630D01*
X024250Y016630D02*
X024700Y017080D01*
X027300Y017080D01*
X019680Y002890D02*
X017120Y002890D01*
X016810Y002890D01*
X016400Y002480D01*
X016400Y001580D01*
X016350Y001530D01*
D25*
X015200Y004880D02*
X015800Y005480D01*
X021700Y005480D01*
X023400Y003780D01*
X023400Y001480D01*
X024400Y001480D02*
X024400Y003780D01*
X022100Y006080D01*
X015500Y006080D01*
X014800Y005380D01*
X010000Y005380D01*
X008200Y007180D01*
X006300Y007180D01*
X005666Y006546D01*
X005666Y006430D01*
X007634Y006430D02*
X008534Y005546D01*
X009200Y004880D01*
X015200Y004880D01*
X014500Y006980D02*
X022200Y006980D01*
X025400Y003780D01*
X025400Y001480D01*
X026400Y001480D02*
X026400Y003780D01*
X021000Y009180D01*
X015800Y009180D01*
X014900Y008280D01*
X010100Y008280D01*
X008550Y009830D01*
X006500Y009830D01*
X006500Y008330D02*
X004750Y008330D01*
X003600Y009480D01*
X003600Y012280D01*
X004350Y013030D01*
X004400Y013030D01*
X004400Y013680D01*
X004220Y013860D01*
X004220Y014490D01*
X005510Y014490D01*
X005500Y014500D01*
X005500Y018689D01*
X005500Y019949D01*
X006484Y019949D02*
X006484Y018689D01*
X008000Y017174D01*
X008000Y016280D01*
X010400Y013880D01*
X010650Y013880D01*
X011900Y013880D01*
X014800Y016780D01*
X014800Y020480D01*
X015800Y020480D02*
X015800Y019480D01*
X015400Y019080D01*
X015400Y016180D01*
X011900Y012680D01*
X010650Y012680D01*
X010500Y012780D01*
X007010Y016270D01*
X006780Y016270D01*
X006780Y014490D02*
X005510Y014490D01*
X006490Y014490D02*
X006780Y014490D01*
X006780Y013500D01*
X007200Y013080D01*
X007200Y012080D01*
X008200Y012080D02*
X008800Y012080D01*
X010600Y010280D01*
X010650Y010280D01*
X011250Y010880D01*
X015100Y010880D01*
X015800Y010180D01*
X022000Y010180D01*
X028400Y003780D01*
X028400Y001480D01*
X027400Y001480D02*
X027400Y003780D01*
X021500Y009680D01*
X011300Y009680D01*
X010650Y009080D01*
X008700Y011030D01*
X004400Y011030D01*
X006500Y008330D02*
X008140Y008330D01*
X010300Y006180D01*
X011466Y006180D01*
X011516Y006230D01*
X012500Y006230D02*
X012500Y006880D01*
X012900Y007280D01*
X014200Y007280D01*
X014500Y006980D01*
X020250Y011330D02*
X020250Y015380D01*
X020500Y015630D01*
X022250Y015630D01*
X020500Y015630D02*
X020500Y017080D01*
X020000Y017830D02*
X020450Y018230D01*
X022350Y018230D01*
X022000Y018980D02*
X020100Y018980D01*
X016250Y015130D01*
X015550Y015130D01*
X016300Y016430D02*
X018800Y018930D01*
X018800Y020480D01*
X017800Y020480D02*
X017800Y019180D01*
X016300Y017680D01*
X016300Y018880D02*
X016800Y019380D01*
X016800Y020480D01*
X012300Y018880D02*
X011300Y018880D01*
X010750Y019380D01*
X009250Y019380D02*
X009250Y018830D01*
X010400Y017680D01*
X012300Y017680D01*
X012300Y016430D02*
X011000Y016380D01*
X008500Y018880D01*
X008500Y019380D01*
X009950Y016380D02*
X011150Y015130D01*
X011550Y015130D01*
X011250Y012080D02*
X010650Y011480D01*
X011250Y012080D02*
X015600Y012080D01*
X018384Y014864D01*
X018400Y014864D01*
X022000Y018980D02*
X022350Y019330D01*
X022350Y020480D01*
X023350Y020480D02*
X023350Y019330D01*
X025100Y017580D01*
X027600Y017580D01*
X028800Y016380D01*
X028800Y012680D01*
X029069Y012411D01*
X029061Y008311D01*
X026350Y018230D02*
X026350Y020480D01*
M02*
