%
M48
M72
T01C0.0197
T02C0.0276
T03C0.0315
T04C0.0320
T05C0.0394
T06C0.0400
T07C0.0433
T08C0.0440
T09C0.0470
T10C0.0787
T11C0.0906
%
T01
X6500Y8330
X6500Y9080
X6500Y9830
T02
X6484Y18689
X5500Y18689
X4516Y18689
X4516Y19949
X5500Y19949
X6484Y19949
T03
X8500Y19380
X9250Y19380
X10000Y19380
X10750Y19380
X18400Y14864
X18400Y12896
X22250Y12630
X24250Y12630
X24250Y15630
X24250Y16630
X22250Y16630
X22250Y15630
X8200Y12080
X7200Y12080
T04
X4400Y13030
X4400Y11030
X10650Y11480
X10650Y10280
X10650Y9080
X14650Y9080
X14650Y10280
X14650Y11480
X14650Y12680
X14650Y13880
X15550Y15130
X16300Y16430
X16300Y17680
X16300Y18880
X19500Y17080
X20000Y17830
X20500Y17080
X22350Y18230
X26350Y18230
X12300Y17680
X12300Y18880
X12300Y16430
X11550Y15130
X10650Y13880
X10650Y12680
X9950Y16380
X8950Y16380
T05
X7634Y6430
X6650Y6430
X5666Y6430
X29061Y6311
X29061Y7311
X29061Y8311
T06
X28400Y1480
X27400Y1480
X26400Y1480
X25400Y1480
X24400Y1480
X23400Y1480
X21350Y1530
X20350Y1530
X19350Y1530
X18350Y1530
X17350Y1530
X16350Y1530
X17120Y2890
X17120Y4670
X19680Y4670
X19680Y2890
X6780Y14490
X6780Y16270
X4220Y16270
X4220Y14490
X12800Y20480
X13800Y20480
X14800Y20480
X15800Y20480
X16800Y20480
X17800Y20480
X18800Y20480
X19800Y20480
X21350Y20480
X22350Y20480
X23350Y20480
X24350Y20480
X25350Y20480
X26350Y20480
X27350Y20480
X28350Y20480
T07
X13484Y6230
X12500Y6230
X11516Y6230
T08
X20250Y11330
X24250Y11330
T09
X26792Y12211
X26792Y14180
X26792Y16149
T10
X4445Y3477
X8855Y3477
X10728Y3474
X14272Y3474
T11
X16289Y8098
X27135Y8098
M30
