G75*
G70*
%OFA0B0*%
%FSLAX24Y24*%
%IPPOS*%
%LPD*%
%AMOC8*
5,1,8,0,0,1.08239X$1,22.5*
%
%ADD10C,0.0640*%
%ADD11OC8,0.0560*%
%ADD12C,0.0555*%
%ADD13R,0.0555X0.0555*%
%ADD14C,0.0800*%
%ADD15R,0.1540X0.1540*%
%ADD16C,0.0437*%
%ADD17C,0.0700*%
%ADD18C,0.0591*%
%ADD19C,0.0745*%
%ADD20C,0.0634*%
%ADD21C,0.0946*%
%ADD22OC8,0.0800*%
%ADD23R,0.0600X0.0600*%
%ADD24C,0.0600*%
D10*
X016350Y001230D02*
X016350Y001830D01*
X017350Y001830D02*
X017350Y001230D01*
X018350Y001230D02*
X018350Y001830D01*
X019350Y001830D02*
X019350Y001230D01*
X020350Y001230D02*
X020350Y001830D01*
X021350Y001830D02*
X021350Y001230D01*
X023400Y001180D02*
X023400Y001780D01*
X024400Y001780D02*
X024400Y001180D01*
X025400Y001180D02*
X025400Y001780D01*
X026400Y001780D02*
X026400Y001180D01*
X027400Y001180D02*
X027400Y001780D01*
X028400Y001780D02*
X028400Y001180D01*
X019980Y002890D02*
X019380Y002890D01*
X017420Y002890D02*
X016820Y002890D01*
X016820Y004670D02*
X017420Y004670D01*
X019380Y004670D02*
X019980Y004670D01*
X007080Y014490D02*
X006480Y014490D01*
X006480Y016270D02*
X007080Y016270D01*
X004520Y016270D02*
X003920Y016270D01*
X003920Y014490D02*
X004520Y014490D01*
X012800Y020180D02*
X012800Y020780D01*
X013800Y020780D02*
X013800Y020180D01*
X014800Y020180D02*
X014800Y020780D01*
X015800Y020780D02*
X015800Y020180D01*
X016800Y020180D02*
X016800Y020780D01*
X017800Y020780D02*
X017800Y020180D01*
X018800Y020180D02*
X018800Y020780D01*
X019800Y020780D02*
X019800Y020180D01*
X021350Y020180D02*
X021350Y020780D01*
X022350Y020780D02*
X022350Y020180D01*
X023350Y020180D02*
X023350Y020780D01*
X024350Y020780D02*
X024350Y020180D01*
X025350Y020180D02*
X025350Y020780D01*
X026350Y020780D02*
X026350Y020180D01*
X027350Y020180D02*
X027350Y020780D01*
X028350Y020780D02*
X028350Y020180D01*
D11*
X026350Y018230D03*
X022350Y018230D03*
X020500Y017080D03*
X020000Y017830D03*
X019500Y017080D03*
X016300Y017680D03*
X016300Y018880D03*
X016300Y016430D03*
X015550Y015130D03*
X014650Y013880D03*
X014650Y012680D03*
X014650Y011480D03*
X014650Y010280D03*
X014650Y009080D03*
X010650Y009080D03*
X010650Y010280D03*
X010650Y011480D03*
X010650Y012680D03*
X010650Y013880D03*
X011550Y015130D03*
X012300Y016430D03*
X012300Y017680D03*
X012300Y018880D03*
X009950Y016380D03*
X008950Y016380D03*
X004400Y013030D03*
X004400Y011030D03*
D12*
X008500Y019380D03*
X009250Y019380D03*
X010750Y019380D03*
D13*
X010000Y019380D03*
D14*
X007634Y006430D03*
X006650Y006430D03*
X005666Y006430D03*
X011516Y006230D03*
X012500Y006230D03*
X013484Y006230D03*
D15*
X004445Y003477D03*
X008855Y003477D03*
X010728Y003474D03*
X014272Y003474D03*
D16*
X006698Y008330D02*
X006302Y008330D01*
X006302Y009080D02*
X006698Y009080D01*
X006698Y009830D02*
X006302Y009830D01*
D17*
X020250Y011330D03*
X022250Y012630D03*
X024250Y012630D03*
X024250Y011330D03*
X024250Y015630D03*
X024250Y016630D03*
X022250Y016630D03*
X022250Y015630D03*
D18*
X008200Y012080D03*
X007200Y012080D03*
D19*
X026440Y012211D02*
X027145Y012211D01*
X027145Y014180D02*
X026440Y014180D01*
X026440Y016149D02*
X027145Y016149D01*
D20*
X028764Y008311D02*
X029357Y008311D01*
X029357Y007311D02*
X028764Y007311D01*
X028764Y006311D02*
X029357Y006311D01*
D21*
X027135Y008098D03*
X016289Y008098D03*
D22*
X018400Y012896D03*
X018400Y014864D03*
D23*
X004516Y018689D03*
D24*
X005500Y018689D03*
X006484Y018689D03*
X006484Y019949D03*
X005500Y019949D03*
X004516Y019949D03*
M02*
