%
M48
M72
T01C0.0190
T02C0.0335
T03C0.0394
%
T01
X850Y3450
X1350Y3950
X1350Y4550
X1850Y3450
X2750Y2350
X5150Y3050
X5850Y2950
X6950Y2950
X5450Y4950
X5550Y6150
X4150Y7850
X3750Y8550
X3150Y9850
X750Y9150
X2350Y6050
T02
X3850Y6141
X3850Y4959
T03
X6550Y6650
X6550Y7650
X6550Y8650
X6550Y9650
X1100Y9650
X1100Y8650
X1100Y7650
X1100Y6650
M30
