G75*
G70*
%OFA0B0*%
%FSLAX24Y24*%
%IPPOS*%
%LPD*%
%AMOC8*
5,1,8,0,0,1.08239X$1,22.5*
%
%ADD10C,0.0000*%
%ADD11C,0.0020*%
%ADD12C,0.0080*%
%ADD13C,0.0050*%
%ADD14R,0.0598X0.0193*%
%ADD15C,0.0040*%
%ADD16C,0.0030*%
%ADD17R,0.0240X0.0620*%
D10*
X000150Y000950D02*
X000150Y010250D01*
X007550Y010250D01*
X007550Y000950D01*
X000150Y000950D01*
X003683Y004959D02*
X003685Y004984D01*
X003691Y005009D01*
X003700Y005033D01*
X003713Y005055D01*
X003730Y005075D01*
X003749Y005092D01*
X003770Y005106D01*
X003794Y005116D01*
X003818Y005123D01*
X003844Y005126D01*
X003869Y005125D01*
X003894Y005120D01*
X003918Y005111D01*
X003941Y005099D01*
X003961Y005084D01*
X003979Y005065D01*
X003994Y005044D01*
X004005Y005021D01*
X004013Y004997D01*
X004017Y004972D01*
X004017Y004946D01*
X004013Y004921D01*
X004005Y004897D01*
X003994Y004874D01*
X003979Y004853D01*
X003961Y004834D01*
X003941Y004819D01*
X003918Y004807D01*
X003894Y004798D01*
X003869Y004793D01*
X003844Y004792D01*
X003818Y004795D01*
X003794Y004802D01*
X003770Y004812D01*
X003749Y004826D01*
X003730Y004843D01*
X003713Y004863D01*
X003700Y004885D01*
X003691Y004909D01*
X003685Y004934D01*
X003683Y004959D01*
X003683Y006141D02*
X003685Y006166D01*
X003691Y006191D01*
X003700Y006215D01*
X003713Y006237D01*
X003730Y006257D01*
X003749Y006274D01*
X003770Y006288D01*
X003794Y006298D01*
X003818Y006305D01*
X003844Y006308D01*
X003869Y006307D01*
X003894Y006302D01*
X003918Y006293D01*
X003941Y006281D01*
X003961Y006266D01*
X003979Y006247D01*
X003994Y006226D01*
X004005Y006203D01*
X004013Y006179D01*
X004017Y006154D01*
X004017Y006128D01*
X004013Y006103D01*
X004005Y006079D01*
X003994Y006056D01*
X003979Y006035D01*
X003961Y006016D01*
X003941Y006001D01*
X003918Y005989D01*
X003894Y005980D01*
X003869Y005975D01*
X003844Y005974D01*
X003818Y005977D01*
X003794Y005984D01*
X003770Y005994D01*
X003749Y006008D01*
X003730Y006025D01*
X003713Y006045D01*
X003700Y006067D01*
X003691Y006091D01*
X003685Y006116D01*
X003683Y006141D01*
D11*
X003080Y006560D02*
X003080Y006670D01*
X003043Y006707D01*
X002970Y006707D01*
X002933Y006670D01*
X002933Y006560D01*
X002860Y006560D02*
X003080Y006560D01*
X002933Y006633D02*
X002860Y006707D01*
X002970Y006781D02*
X002970Y006928D01*
X002860Y006891D02*
X003080Y006891D01*
X002970Y006781D01*
X004860Y005780D02*
X004860Y005660D01*
X004860Y005720D02*
X005040Y005720D01*
X004980Y005660D01*
X005010Y005596D02*
X004890Y005596D01*
X004860Y005566D01*
X004860Y005476D01*
X005040Y005476D01*
X005040Y005566D01*
X005010Y005596D01*
X005010Y004680D02*
X005040Y004650D01*
X005040Y004590D01*
X005010Y004560D01*
X005010Y004496D02*
X004890Y004496D01*
X004860Y004466D01*
X004860Y004376D01*
X005040Y004376D01*
X005040Y004466D01*
X005010Y004496D01*
X004860Y004560D02*
X004860Y004680D01*
X004860Y004560D02*
X004980Y004680D01*
X005010Y004680D01*
X005436Y004510D02*
X005436Y004480D01*
X005466Y004450D01*
X005436Y004420D01*
X005436Y004390D01*
X005466Y004360D01*
X005526Y004360D01*
X005556Y004390D01*
X005620Y004360D02*
X005680Y004420D01*
X005650Y004420D02*
X005740Y004420D01*
X005740Y004360D02*
X005740Y004540D01*
X005650Y004540D01*
X005620Y004510D01*
X005620Y004450D01*
X005650Y004420D01*
X005556Y004510D02*
X005526Y004540D01*
X005466Y004540D01*
X005436Y004510D01*
X005466Y004450D02*
X005496Y004450D01*
X006534Y002740D02*
X006594Y002740D01*
X006624Y002710D01*
X006688Y002710D02*
X006718Y002740D01*
X006808Y002740D01*
X006808Y002560D01*
X006808Y002620D02*
X006718Y002620D01*
X006688Y002650D01*
X006688Y002710D01*
X006748Y002620D02*
X006688Y002560D01*
X006624Y002560D02*
X006504Y002680D01*
X006504Y002710D01*
X006534Y002740D01*
X006504Y002560D02*
X006624Y002560D01*
X000940Y002592D02*
X000940Y002682D01*
X000910Y002712D01*
X000850Y002712D01*
X000820Y002682D01*
X000820Y002592D01*
X000820Y002652D02*
X000760Y002712D01*
X000760Y002776D02*
X000760Y002896D01*
X000760Y002836D02*
X000940Y002836D01*
X000880Y002776D01*
X000940Y002592D02*
X000760Y002592D01*
D12*
X003653Y004153D02*
X003653Y004547D01*
X004047Y004350D01*
X003653Y004153D01*
X003653Y005353D02*
X003653Y005747D01*
X004047Y005550D01*
X003653Y005353D01*
X002815Y007126D02*
X004610Y007126D01*
X004610Y009174D01*
X002815Y009174D01*
X004610Y009174D02*
X004885Y009174D01*
X004885Y007126D02*
X004610Y007126D01*
D13*
X004570Y009304D02*
X004485Y009389D01*
X004485Y009814D01*
X004309Y009644D02*
X004139Y009814D01*
X004139Y009304D01*
X004309Y009304D02*
X003969Y009304D01*
X004570Y009304D02*
X004740Y009304D01*
X004825Y009389D01*
X004825Y009814D01*
D14*
X005185Y008900D03*
X005185Y008400D03*
X005185Y007900D03*
X005185Y007400D03*
X002515Y007400D03*
X002515Y007900D03*
X002515Y008400D03*
X002515Y008900D03*
D15*
X004253Y008007D02*
X004253Y007854D01*
X004330Y007777D01*
X004327Y006480D02*
X004327Y006020D01*
X004480Y006020D02*
X004173Y006020D01*
X004480Y006327D02*
X004327Y006480D01*
X003943Y005357D02*
X003943Y005204D01*
X004020Y005127D01*
X004173Y004897D02*
X004173Y004820D01*
X004250Y004820D01*
X004250Y004897D01*
X004173Y004897D01*
X004403Y004897D02*
X004403Y004820D01*
X004480Y004820D01*
X004480Y004897D01*
X004403Y004897D01*
X005183Y003507D02*
X005183Y003200D01*
X005183Y003047D02*
X005183Y002970D01*
X006183Y001554D02*
X006490Y001247D01*
X006337Y001247D02*
X006337Y001554D01*
X006490Y001554D02*
X006183Y001247D01*
X006183Y001400D02*
X006490Y001400D01*
X000677Y002840D02*
X000600Y002840D01*
X000600Y002917D01*
X000677Y002917D01*
X000677Y002840D01*
X000447Y002840D02*
X000370Y002840D01*
X000370Y002917D01*
X000447Y002917D01*
X000447Y002840D01*
D16*
X002686Y003071D02*
X002809Y003195D01*
X002809Y003133D01*
X002871Y003133D01*
X002871Y003195D01*
X002809Y003195D01*
X002809Y003317D02*
X002809Y003379D01*
X002871Y003379D01*
X002871Y003317D01*
X002809Y003317D01*
D17*
X004070Y004350D03*
X004070Y005550D03*
M02*
