G75*
G70*
%OFA0B0*%
%FSLAX24Y24*%
%IPPOS*%
%LPD*%
%AMOC8*
5,1,8,0,0,1.08239X$1,22.5*
%
%ADD10R,0.0512X0.0630*%
%ADD11R,0.0472X0.0472*%
%ADD12R,0.0138X0.0551*%
%ADD13R,0.0709X0.0748*%
%ADD14R,0.0748X0.0748*%
%ADD15R,0.0453X0.0394*%
%ADD16C,0.0660*%
%ADD17C,0.0100*%
%ADD18C,0.0350*%
D10*
X003476Y003550D03*
X004224Y003550D03*
D11*
X006137Y001450D03*
X006963Y001450D03*
X001563Y001550D03*
X000737Y001550D03*
D12*
X003338Y002593D03*
X003594Y002593D03*
X003850Y002593D03*
X004106Y002593D03*
X004362Y002593D03*
D13*
X005425Y001550D03*
X002275Y001550D03*
D14*
X003350Y001550D03*
X004350Y001550D03*
D15*
X004962Y004566D03*
X004962Y005550D03*
X004962Y006534D03*
X002738Y006534D03*
X002738Y005550D03*
X002738Y004566D03*
D16*
X001100Y006650D03*
X001100Y007650D03*
X001100Y008650D03*
X001100Y009650D03*
X006550Y009650D03*
X006550Y008650D03*
X006550Y007650D03*
X006550Y006650D03*
D17*
X000300Y007845D02*
X000300Y001100D01*
X001813Y001100D01*
X001791Y001122D01*
X001791Y001184D01*
X001273Y001184D01*
X001197Y001260D01*
X001197Y001840D01*
X001273Y001916D01*
X001791Y001916D01*
X001791Y001955D01*
X001670Y002075D01*
X001670Y003199D01*
X001591Y003277D01*
X001545Y003389D01*
X001545Y003511D01*
X001155Y003511D01*
X001109Y003623D01*
X001023Y003709D01*
X000911Y003755D01*
X000789Y003755D01*
X000677Y003709D01*
X000591Y003623D01*
X000545Y003511D01*
X000300Y003511D01*
X000300Y003413D02*
X000545Y003413D01*
X000545Y003389D02*
X000591Y003277D01*
X000670Y003199D01*
X000670Y001916D01*
X000447Y001916D01*
X000370Y001840D01*
X000370Y001260D01*
X000447Y001184D01*
X001027Y001184D01*
X001103Y001260D01*
X001103Y001840D01*
X001030Y001913D01*
X001030Y003199D01*
X001109Y003277D01*
X001155Y003389D01*
X001155Y003511D01*
X001155Y003413D02*
X001545Y003413D01*
X001545Y003511D02*
X001591Y003623D01*
X001677Y003709D01*
X001789Y003755D01*
X001911Y003755D01*
X002023Y003709D01*
X002109Y003623D01*
X002155Y003511D01*
X003426Y003511D01*
X003426Y003500D02*
X003070Y003500D01*
X003070Y003215D01*
X003080Y003177D01*
X003100Y003143D01*
X003128Y003115D01*
X003162Y003095D01*
X003200Y003085D01*
X003426Y003085D01*
X003426Y003500D01*
X003526Y003500D01*
X003526Y003085D01*
X003730Y003085D01*
X003670Y003025D01*
X003670Y002999D01*
X003482Y002999D01*
X003465Y003009D01*
X003427Y003019D01*
X003338Y003019D01*
X003250Y003019D01*
X003211Y003009D01*
X003177Y002989D01*
X003149Y002961D01*
X003130Y002927D01*
X003119Y002889D01*
X003119Y002593D01*
X003119Y002298D01*
X003130Y002260D01*
X003149Y002226D01*
X003177Y002198D01*
X003211Y002178D01*
X003250Y002168D01*
X003338Y002168D01*
X003338Y002593D01*
X003338Y002593D01*
X003119Y002593D01*
X003338Y002593D01*
X003338Y002593D01*
X003338Y002168D01*
X003414Y002168D01*
X003414Y002131D01*
X003470Y002075D01*
X003491Y002054D01*
X002922Y002054D01*
X002846Y001978D01*
X002846Y001122D01*
X002868Y001100D01*
X002737Y001100D01*
X002760Y001122D01*
X002760Y001978D01*
X002683Y002054D01*
X002201Y002054D01*
X002125Y002130D01*
X002030Y002225D01*
X002030Y003199D01*
X002109Y003277D01*
X002155Y003389D01*
X002155Y003511D01*
X002155Y003413D02*
X003070Y003413D01*
X003070Y003314D02*
X002124Y003314D01*
X002047Y003216D02*
X003070Y003216D01*
X003126Y003117D02*
X002030Y003117D01*
X002030Y003019D02*
X003248Y003019D01*
X003128Y002920D02*
X002030Y002920D01*
X002030Y002822D02*
X003119Y002822D01*
X003119Y002723D02*
X002030Y002723D01*
X002030Y002625D02*
X003119Y002625D01*
X003119Y002526D02*
X002030Y002526D01*
X002030Y002428D02*
X003119Y002428D01*
X003119Y002329D02*
X002030Y002329D01*
X002030Y002231D02*
X003146Y002231D01*
X003250Y002350D02*
X002750Y002350D01*
X002704Y002034D02*
X002902Y002034D01*
X002846Y001935D02*
X002760Y001935D01*
X002760Y001837D02*
X002846Y001837D01*
X002846Y001738D02*
X002760Y001738D01*
X002760Y001640D02*
X002846Y001640D01*
X002846Y001541D02*
X002760Y001541D01*
X002760Y001443D02*
X002846Y001443D01*
X002846Y001344D02*
X002760Y001344D01*
X002760Y001246D02*
X002846Y001246D01*
X002846Y001147D02*
X002760Y001147D01*
X002275Y001550D02*
X002050Y001550D01*
X002050Y001950D01*
X001850Y002150D01*
X001850Y003450D01*
X001653Y003216D02*
X001047Y003216D01*
X001030Y003117D02*
X001670Y003117D01*
X001670Y003019D02*
X001030Y003019D01*
X001030Y002920D02*
X001670Y002920D01*
X001670Y002822D02*
X001030Y002822D01*
X001030Y002723D02*
X001670Y002723D01*
X001670Y002625D02*
X001030Y002625D01*
X001030Y002526D02*
X001670Y002526D01*
X001670Y002428D02*
X001030Y002428D01*
X001030Y002329D02*
X001670Y002329D01*
X001670Y002231D02*
X001030Y002231D01*
X001030Y002132D02*
X001670Y002132D01*
X001712Y002034D02*
X001030Y002034D01*
X001030Y001935D02*
X001791Y001935D01*
X002123Y002132D02*
X003414Y002132D01*
X003338Y002231D02*
X003338Y002231D01*
X003338Y002329D02*
X003338Y002329D01*
X003250Y002350D02*
X003350Y002450D01*
X003350Y003400D01*
X003338Y003412D01*
X003338Y002593D01*
X003338Y003019D01*
X003338Y002593D01*
X003338Y002593D01*
X003338Y002625D02*
X003338Y002625D01*
X003338Y002723D02*
X003338Y002723D01*
X003338Y002822D02*
X003338Y002822D01*
X003338Y002920D02*
X003338Y002920D01*
X003338Y003019D02*
X003338Y003019D01*
X003428Y003019D02*
X003670Y003019D01*
X003526Y003117D02*
X003426Y003117D01*
X003426Y003216D02*
X003526Y003216D01*
X003526Y003314D02*
X003426Y003314D01*
X003426Y003413D02*
X003526Y003413D01*
X003426Y003500D02*
X003426Y003600D01*
X003426Y004015D01*
X003200Y004015D01*
X003162Y004005D01*
X003128Y003985D01*
X003100Y003957D01*
X003080Y003923D01*
X003070Y003885D01*
X003070Y003600D01*
X003426Y003600D01*
X003526Y003600D01*
X003526Y004015D01*
X003752Y004015D01*
X003790Y004005D01*
X003824Y003985D01*
X003852Y003957D01*
X003861Y003942D01*
X003914Y003995D01*
X004044Y003995D01*
X004044Y004699D01*
X004470Y005125D01*
X004575Y005230D01*
X004675Y005230D01*
X004606Y005299D01*
X004606Y005370D01*
X004475Y005370D01*
X004270Y005575D01*
X004270Y007570D01*
X004211Y007545D01*
X004089Y007545D01*
X003977Y007591D01*
X003891Y007677D01*
X003845Y007789D01*
X003845Y007911D01*
X003870Y007970D01*
X003825Y007970D01*
X003530Y007675D01*
X003530Y004775D01*
X003425Y004670D01*
X003140Y004386D01*
X003094Y004386D01*
X003094Y004315D01*
X003018Y004239D01*
X002458Y004239D01*
X002381Y004315D01*
X002381Y004370D01*
X001601Y004370D01*
X001523Y004291D01*
X001411Y004245D01*
X001289Y004245D01*
X001177Y004291D01*
X001091Y004377D01*
X001045Y004489D01*
X001045Y004611D01*
X001091Y004723D01*
X001177Y004809D01*
X001289Y004855D01*
X001411Y004855D01*
X001523Y004809D01*
X001601Y004730D01*
X002381Y004730D01*
X002381Y004816D01*
X002458Y004893D01*
X003018Y004893D01*
X003078Y004833D01*
X003170Y004925D01*
X003170Y007825D01*
X003570Y008225D01*
X003619Y008274D01*
X003577Y008291D01*
X003499Y008370D01*
X002340Y008370D01*
X002130Y008090D01*
X002130Y006261D01*
X002177Y006309D01*
X002289Y006355D01*
X002381Y006355D01*
X002381Y006785D01*
X002458Y006861D01*
X003018Y006861D01*
X003094Y006785D01*
X003094Y006284D01*
X003018Y006207D01*
X002918Y006207D01*
X002918Y006063D01*
X002731Y005877D01*
X003018Y005877D01*
X003094Y005801D01*
X003094Y005299D01*
X003018Y005223D01*
X002458Y005223D01*
X002381Y005299D01*
X002381Y005370D01*
X002075Y005370D01*
X001770Y005675D01*
X001770Y008137D01*
X001761Y008198D01*
X001770Y008210D01*
X001770Y008225D01*
X001814Y008268D01*
X002070Y008610D01*
X002070Y008625D01*
X002114Y008668D01*
X002151Y008718D01*
X002165Y008720D01*
X002175Y008730D01*
X002237Y008730D01*
X002298Y008739D01*
X002310Y008730D01*
X003499Y008730D01*
X003577Y008809D01*
X003689Y008855D01*
X003811Y008855D01*
X003923Y008809D01*
X003970Y008761D01*
X003970Y009025D01*
X004270Y009325D01*
X004375Y009430D01*
X005925Y009430D01*
X006025Y009330D01*
X006130Y009225D01*
X006130Y008838D01*
X006160Y008911D01*
X006289Y009040D01*
X006458Y009110D01*
X006641Y009110D01*
X006811Y009040D01*
X006940Y008911D01*
X006973Y008830D01*
X007400Y008830D01*
X007400Y008732D02*
X007123Y008732D01*
X007025Y008830D02*
X006973Y008830D01*
X007025Y008830D02*
X007225Y008630D01*
X007330Y008525D01*
X007330Y004775D01*
X007046Y004491D01*
X006940Y004386D01*
X005319Y004386D01*
X005319Y004315D01*
X005242Y004239D01*
X004682Y004239D01*
X004606Y004315D01*
X004606Y004751D01*
X004404Y004549D01*
X004404Y003995D01*
X004534Y003995D01*
X004610Y003919D01*
X004610Y003764D01*
X004670Y003825D01*
X004775Y003930D01*
X005725Y003930D01*
X005925Y003730D01*
X006030Y003625D01*
X006030Y003201D01*
X006109Y003123D01*
X006155Y003011D01*
X006155Y002900D01*
X006317Y002738D01*
X006317Y001816D01*
X006427Y001816D01*
X006503Y001740D01*
X006503Y001160D01*
X006443Y001100D01*
X006657Y001100D01*
X006597Y001160D01*
X006597Y001740D01*
X006673Y001816D01*
X006770Y001816D01*
X006770Y002699D01*
X006691Y002777D01*
X006645Y002889D01*
X006645Y003011D01*
X006691Y003123D01*
X006777Y003209D01*
X006889Y003255D01*
X007011Y003255D01*
X007123Y003209D01*
X007209Y003123D01*
X007255Y003011D01*
X007255Y002889D01*
X007209Y002777D01*
X007130Y002699D01*
X007130Y001816D01*
X007253Y001816D01*
X007330Y001740D01*
X007330Y001160D01*
X007270Y001100D01*
X007400Y001100D01*
X007400Y010100D01*
X006666Y010100D01*
X006811Y010040D01*
X006940Y009911D01*
X007010Y009741D01*
X007010Y009558D01*
X006940Y009389D01*
X006811Y009260D01*
X006641Y009190D01*
X006458Y009190D01*
X006289Y009260D01*
X006160Y009389D01*
X006090Y009558D01*
X006090Y009741D01*
X006160Y009911D01*
X006289Y010040D01*
X006434Y010100D01*
X001216Y010100D01*
X001361Y010040D01*
X001490Y009911D01*
X001560Y009741D01*
X001560Y009558D01*
X001490Y009389D01*
X001361Y009260D01*
X001191Y009190D01*
X001055Y009190D01*
X001055Y009110D01*
X001191Y009110D01*
X001361Y009040D01*
X001490Y008911D01*
X001560Y008741D01*
X001560Y008558D01*
X001490Y008389D01*
X001361Y008260D01*
X001191Y008190D01*
X001008Y008190D01*
X000839Y008260D01*
X000710Y008389D01*
X000640Y008558D01*
X000640Y008741D01*
X000684Y008847D01*
X000630Y008870D01*
X000630Y008025D01*
X000727Y007928D01*
X000839Y008040D01*
X001008Y008110D01*
X001191Y008110D01*
X001361Y008040D01*
X001490Y007911D01*
X001560Y007741D01*
X001560Y007558D01*
X001490Y007389D01*
X001361Y007260D01*
X001191Y007190D01*
X001008Y007190D01*
X000839Y007260D01*
X000710Y007389D01*
X000677Y007470D01*
X000675Y007470D01*
X000375Y007770D01*
X000300Y007845D01*
X000300Y007845D01*
X000300Y007747D02*
X000399Y007747D01*
X000497Y007648D02*
X000300Y007648D01*
X000300Y007550D02*
X000596Y007550D01*
X000685Y007451D02*
X000300Y007451D01*
X000300Y007353D02*
X000747Y007353D01*
X000854Y007254D02*
X000300Y007254D01*
X000300Y007156D02*
X001770Y007156D01*
X001770Y007254D02*
X001346Y007254D01*
X001453Y007353D02*
X001770Y007353D01*
X001770Y007451D02*
X001515Y007451D01*
X001556Y007550D02*
X001770Y007550D01*
X001770Y007648D02*
X001560Y007648D01*
X001558Y007747D02*
X001770Y007747D01*
X001770Y007845D02*
X001517Y007845D01*
X001457Y007944D02*
X001770Y007944D01*
X001770Y008042D02*
X001356Y008042D01*
X001310Y008239D02*
X001784Y008239D01*
X001770Y008141D02*
X000630Y008141D01*
X000630Y008239D02*
X000890Y008239D01*
X000762Y008338D02*
X000630Y008338D01*
X000630Y008436D02*
X000691Y008436D01*
X000650Y008535D02*
X000630Y008535D01*
X000630Y008633D02*
X000640Y008633D01*
X000630Y008732D02*
X000640Y008732D01*
X000630Y008830D02*
X000677Y008830D01*
X000450Y008950D02*
X000650Y009150D01*
X000750Y009150D01*
X001055Y009126D02*
X004071Y009126D01*
X004169Y009224D02*
X001274Y009224D01*
X001423Y009323D02*
X004268Y009323D01*
X004366Y009421D02*
X001503Y009421D01*
X001544Y009520D02*
X006106Y009520D01*
X006090Y009618D02*
X001560Y009618D01*
X001560Y009717D02*
X006090Y009717D01*
X006120Y009815D02*
X001530Y009815D01*
X001487Y009914D02*
X006163Y009914D01*
X006261Y010012D02*
X001389Y010012D01*
X001650Y009450D02*
X002050Y009850D01*
X003150Y009850D01*
X003629Y008830D02*
X001523Y008830D01*
X001560Y008732D02*
X002248Y008732D01*
X002308Y008732D02*
X003500Y008732D01*
X003750Y008550D02*
X002250Y008550D01*
X001950Y008150D01*
X001950Y005750D01*
X002150Y005550D01*
X002738Y005550D01*
X002750Y005550D01*
X003094Y005580D02*
X003170Y005580D01*
X003170Y005678D02*
X003094Y005678D01*
X003094Y005777D02*
X003170Y005777D01*
X003170Y005875D02*
X003020Y005875D01*
X002918Y006072D02*
X003170Y006072D01*
X003170Y005974D02*
X002828Y005974D01*
X002738Y006138D02*
X002650Y006050D01*
X002350Y006050D01*
X002138Y006269D02*
X002130Y006269D01*
X002130Y006368D02*
X002381Y006368D01*
X002381Y006466D02*
X002130Y006466D01*
X002130Y006565D02*
X002381Y006565D01*
X002381Y006663D02*
X002130Y006663D01*
X002130Y006762D02*
X002381Y006762D01*
X002456Y006860D02*
X002130Y006860D01*
X002130Y006959D02*
X003170Y006959D01*
X003170Y007057D02*
X002130Y007057D01*
X002130Y007156D02*
X003170Y007156D01*
X003170Y007254D02*
X002130Y007254D01*
X002130Y007353D02*
X003170Y007353D01*
X003170Y007451D02*
X002130Y007451D01*
X002130Y007550D02*
X003170Y007550D01*
X003170Y007648D02*
X002130Y007648D01*
X002130Y007747D02*
X003170Y007747D01*
X003190Y007845D02*
X002130Y007845D01*
X002130Y007944D02*
X003289Y007944D01*
X003387Y008042D02*
X002130Y008042D01*
X002168Y008141D02*
X003486Y008141D01*
X003584Y008239D02*
X002242Y008239D01*
X002316Y008338D02*
X003531Y008338D01*
X003750Y008150D02*
X003950Y008150D01*
X004150Y008350D01*
X004150Y008950D01*
X004450Y009250D01*
X005850Y009250D01*
X005950Y009150D01*
X005950Y007950D01*
X006250Y007650D01*
X006550Y007650D01*
X007150Y008450D02*
X007150Y004850D01*
X006866Y004566D01*
X004962Y004566D01*
X005303Y004299D02*
X007400Y004299D01*
X007400Y004201D02*
X004404Y004201D01*
X004404Y004299D02*
X004622Y004299D01*
X004606Y004398D02*
X004404Y004398D01*
X004404Y004496D02*
X004606Y004496D01*
X004606Y004595D02*
X004449Y004595D01*
X004548Y004693D02*
X004606Y004693D01*
X004650Y005050D02*
X005250Y005050D01*
X005350Y004950D01*
X005450Y005050D01*
X004962Y005550D02*
X004550Y005550D01*
X004450Y005650D01*
X004450Y007750D01*
X004350Y007850D01*
X004150Y007850D01*
X004078Y007550D02*
X003530Y007550D01*
X003530Y007648D02*
X003921Y007648D01*
X003863Y007747D02*
X003601Y007747D01*
X003700Y007845D02*
X003845Y007845D01*
X003859Y007944D02*
X003798Y007944D01*
X003750Y008150D02*
X003350Y007750D01*
X003350Y004850D01*
X003066Y004566D01*
X002738Y004566D01*
X002722Y004550D01*
X001350Y004550D01*
X001540Y004792D02*
X002381Y004792D01*
X002455Y004890D02*
X000300Y004890D01*
X000300Y004792D02*
X001160Y004792D01*
X001079Y004693D02*
X000300Y004693D01*
X000300Y004595D02*
X001045Y004595D01*
X001045Y004496D02*
X000300Y004496D01*
X000300Y004398D02*
X001083Y004398D01*
X001170Y004299D02*
X000300Y004299D01*
X000300Y004201D02*
X004044Y004201D01*
X004044Y004299D02*
X003078Y004299D01*
X003152Y004398D02*
X004044Y004398D01*
X004044Y004496D02*
X003251Y004496D01*
X003349Y004595D02*
X004044Y004595D01*
X004030Y004690D02*
X004119Y004780D01*
X004167Y004896D01*
X004167Y005023D01*
X004119Y005139D01*
X004030Y005228D01*
X003913Y005277D01*
X003787Y005277D01*
X003670Y005228D01*
X003581Y005139D01*
X003533Y005023D01*
X003533Y004896D01*
X003581Y004780D01*
X003670Y004690D01*
X003787Y004642D01*
X003913Y004642D01*
X004030Y004690D01*
X004032Y004693D02*
X004044Y004693D01*
X004124Y004792D02*
X004137Y004792D01*
X004165Y004890D02*
X004235Y004890D01*
X004167Y004989D02*
X004334Y004989D01*
X004432Y005087D02*
X004141Y005087D01*
X004073Y005186D02*
X004531Y005186D01*
X004621Y005284D02*
X003530Y005284D01*
X003530Y005186D02*
X003627Y005186D01*
X003559Y005087D02*
X003530Y005087D01*
X003530Y004989D02*
X003533Y004989D01*
X003530Y004890D02*
X003535Y004890D01*
X003530Y004792D02*
X003576Y004792D01*
X003668Y004693D02*
X003448Y004693D01*
X003135Y004890D02*
X003021Y004890D01*
X003170Y004989D02*
X000300Y004989D01*
X000300Y005087D02*
X003170Y005087D01*
X003170Y005186D02*
X000300Y005186D01*
X000300Y005284D02*
X002397Y005284D01*
X002063Y005383D02*
X000300Y005383D01*
X000300Y005481D02*
X001964Y005481D01*
X001866Y005580D02*
X000300Y005580D01*
X000300Y005678D02*
X001770Y005678D01*
X001770Y005777D02*
X000300Y005777D01*
X000300Y005875D02*
X001770Y005875D01*
X001770Y005974D02*
X000300Y005974D01*
X000300Y006072D02*
X001770Y006072D01*
X001770Y006171D02*
X000300Y006171D01*
X000300Y006269D02*
X000808Y006269D01*
X000787Y006284D02*
X000848Y006239D01*
X000916Y006205D01*
X000988Y006182D01*
X001052Y006172D01*
X001052Y006602D01*
X001148Y006602D01*
X001148Y006698D01*
X001578Y006698D01*
X001568Y006762D01*
X001545Y006834D01*
X001511Y006902D01*
X001466Y006963D01*
X001413Y007016D01*
X001352Y007061D01*
X001284Y007095D01*
X001212Y007118D01*
X001148Y007128D01*
X001148Y006698D01*
X001052Y006698D01*
X001052Y006602D01*
X000622Y006602D01*
X000632Y006538D01*
X000655Y006466D01*
X000300Y006466D01*
X000300Y006368D02*
X000712Y006368D01*
X000734Y006337D02*
X000787Y006284D01*
X000734Y006337D02*
X000689Y006398D01*
X000655Y006466D01*
X000628Y006565D02*
X000300Y006565D01*
X000300Y006663D02*
X001052Y006663D01*
X001052Y006698D02*
X000622Y006698D01*
X000632Y006762D01*
X000655Y006834D01*
X000689Y006902D01*
X000734Y006963D01*
X000787Y007016D01*
X000848Y007061D01*
X000916Y007095D01*
X000988Y007118D01*
X001052Y007128D01*
X001052Y006698D01*
X001052Y006762D02*
X001148Y006762D01*
X001148Y006860D02*
X001052Y006860D01*
X001052Y006959D02*
X001148Y006959D01*
X001148Y007057D02*
X001052Y007057D01*
X000844Y007057D02*
X000300Y007057D01*
X000300Y006959D02*
X000731Y006959D01*
X000668Y006860D02*
X000300Y006860D01*
X000300Y006762D02*
X000632Y006762D01*
X000850Y006400D02*
X000850Y004150D01*
X001050Y003950D01*
X001350Y003950D01*
X001114Y003610D02*
X001586Y003610D01*
X001677Y003708D02*
X001023Y003708D01*
X000850Y003450D02*
X000850Y001663D01*
X000737Y001550D01*
X000670Y001935D02*
X000300Y001935D01*
X000300Y001837D02*
X000370Y001837D01*
X000370Y001738D02*
X000300Y001738D01*
X000300Y001640D02*
X000370Y001640D01*
X000370Y001541D02*
X000300Y001541D01*
X000300Y001443D02*
X000370Y001443D01*
X000370Y001344D02*
X000300Y001344D01*
X000300Y001246D02*
X000385Y001246D01*
X000300Y001147D02*
X001791Y001147D01*
X001563Y001550D02*
X002050Y001550D01*
X001197Y001541D02*
X001103Y001541D01*
X001103Y001443D02*
X001197Y001443D01*
X001197Y001344D02*
X001103Y001344D01*
X001088Y001246D02*
X001212Y001246D01*
X001197Y001640D02*
X001103Y001640D01*
X001103Y001738D02*
X001197Y001738D01*
X001197Y001837D02*
X001103Y001837D01*
X000670Y002034D02*
X000300Y002034D01*
X000300Y002132D02*
X000670Y002132D01*
X000670Y002231D02*
X000300Y002231D01*
X000300Y002329D02*
X000670Y002329D01*
X000670Y002428D02*
X000300Y002428D01*
X000300Y002526D02*
X000670Y002526D01*
X000670Y002625D02*
X000300Y002625D01*
X000300Y002723D02*
X000670Y002723D01*
X000670Y002822D02*
X000300Y002822D01*
X000300Y002920D02*
X000670Y002920D01*
X000670Y003019D02*
X000300Y003019D01*
X000300Y003117D02*
X000670Y003117D01*
X000653Y003216D02*
X000300Y003216D01*
X000300Y003314D02*
X000576Y003314D01*
X000545Y003389D02*
X000545Y003511D01*
X000586Y003610D02*
X000300Y003610D01*
X000300Y003708D02*
X000677Y003708D01*
X000300Y003807D02*
X003070Y003807D01*
X003076Y003905D02*
X000300Y003905D01*
X000300Y004004D02*
X003160Y004004D01*
X003070Y003708D02*
X002023Y003708D01*
X002114Y003610D02*
X003070Y003610D01*
X003338Y003412D02*
X003476Y003550D01*
X003426Y003610D02*
X003526Y003610D01*
X003526Y003708D02*
X003426Y003708D01*
X003426Y003807D02*
X003526Y003807D01*
X003526Y003905D02*
X003426Y003905D01*
X003426Y004004D02*
X003526Y004004D01*
X003792Y004004D02*
X004044Y004004D01*
X004044Y004102D02*
X000300Y004102D01*
X001124Y003314D02*
X001576Y003314D01*
X001530Y004299D02*
X002397Y004299D01*
X003079Y005284D02*
X003170Y005284D01*
X003170Y005383D02*
X003094Y005383D01*
X003094Y005481D02*
X003170Y005481D01*
X003530Y005481D02*
X004364Y005481D01*
X004270Y005580D02*
X003530Y005580D01*
X003530Y005678D02*
X004270Y005678D01*
X004270Y005777D02*
X003530Y005777D01*
X003530Y005875D02*
X003667Y005875D01*
X003670Y005872D02*
X003787Y005823D01*
X003913Y005823D01*
X004030Y005872D01*
X004119Y005961D01*
X004167Y006077D01*
X004167Y006204D01*
X004119Y006320D01*
X004030Y006410D01*
X003913Y006458D01*
X003787Y006458D01*
X003670Y006410D01*
X003581Y006320D01*
X003533Y006204D01*
X003533Y006077D01*
X003581Y005961D01*
X003670Y005872D01*
X003576Y005974D02*
X003530Y005974D01*
X003530Y006072D02*
X003535Y006072D01*
X003530Y006171D02*
X003533Y006171D01*
X003530Y006269D02*
X003560Y006269D01*
X003530Y006368D02*
X003628Y006368D01*
X003530Y006466D02*
X004270Y006466D01*
X004270Y006368D02*
X004072Y006368D01*
X004140Y006269D02*
X004270Y006269D01*
X004270Y006171D02*
X004167Y006171D01*
X004165Y006072D02*
X004270Y006072D01*
X004270Y005974D02*
X004124Y005974D01*
X004033Y005875D02*
X004270Y005875D01*
X004463Y005383D02*
X003530Y005383D01*
X003170Y006171D02*
X002918Y006171D01*
X002738Y006138D02*
X002738Y006534D01*
X003019Y006860D02*
X003170Y006860D01*
X003170Y006762D02*
X003094Y006762D01*
X003094Y006663D02*
X003170Y006663D01*
X003170Y006565D02*
X003094Y006565D01*
X003094Y006466D02*
X003170Y006466D01*
X003170Y006368D02*
X003094Y006368D01*
X003080Y006269D02*
X003170Y006269D01*
X003530Y006565D02*
X004270Y006565D01*
X004270Y006663D02*
X003530Y006663D01*
X003530Y006762D02*
X004270Y006762D01*
X004270Y006860D02*
X003530Y006860D01*
X003530Y006959D02*
X004270Y006959D01*
X004270Y007057D02*
X003530Y007057D01*
X003530Y007156D02*
X004270Y007156D01*
X004270Y007254D02*
X003530Y007254D01*
X003530Y007353D02*
X004270Y007353D01*
X004270Y007451D02*
X003530Y007451D01*
X004222Y007550D02*
X004270Y007550D01*
X004966Y006634D02*
X005066Y006634D01*
X005050Y006550D01*
X005050Y006250D01*
X005150Y006150D01*
X005550Y006150D01*
X004962Y006534D02*
X004966Y006634D01*
X004650Y005050D02*
X004224Y004624D01*
X004224Y003550D01*
X004150Y003476D01*
X004150Y003250D01*
X003850Y002950D01*
X003850Y002593D01*
X003594Y002593D02*
X003594Y002206D01*
X003650Y002150D01*
X004850Y002150D01*
X005150Y002450D01*
X005150Y003050D01*
X004750Y003050D02*
X004750Y003650D01*
X004850Y003750D01*
X005650Y003750D01*
X005850Y003550D01*
X005850Y002950D01*
X006137Y002663D01*
X006137Y001450D01*
X005525Y001450D01*
X005425Y001550D01*
X006317Y001837D02*
X006770Y001837D01*
X006770Y001935D02*
X006317Y001935D01*
X006317Y002034D02*
X006770Y002034D01*
X006770Y002132D02*
X006317Y002132D01*
X006317Y002231D02*
X006770Y002231D01*
X006770Y002329D02*
X006317Y002329D01*
X006317Y002428D02*
X006770Y002428D01*
X006770Y002526D02*
X006317Y002526D01*
X006317Y002625D02*
X006770Y002625D01*
X006746Y002723D02*
X006317Y002723D01*
X006233Y002822D02*
X006673Y002822D01*
X006645Y002920D02*
X006155Y002920D01*
X006152Y003019D02*
X006648Y003019D01*
X006689Y003117D02*
X006111Y003117D01*
X006030Y003216D02*
X006794Y003216D01*
X006950Y002950D02*
X006950Y001450D01*
X006963Y001450D01*
X006597Y001443D02*
X006503Y001443D01*
X006503Y001541D02*
X006597Y001541D01*
X006597Y001640D02*
X006503Y001640D01*
X006503Y001738D02*
X006597Y001738D01*
X006597Y001344D02*
X006503Y001344D01*
X006503Y001246D02*
X006597Y001246D01*
X006610Y001147D02*
X006490Y001147D01*
X007130Y001837D02*
X007400Y001837D01*
X007400Y001935D02*
X007130Y001935D01*
X007130Y002034D02*
X007400Y002034D01*
X007400Y002132D02*
X007130Y002132D01*
X007130Y002231D02*
X007400Y002231D01*
X007400Y002329D02*
X007130Y002329D01*
X007130Y002428D02*
X007400Y002428D01*
X007400Y002526D02*
X007130Y002526D01*
X007130Y002625D02*
X007400Y002625D01*
X007400Y002723D02*
X007154Y002723D01*
X007227Y002822D02*
X007400Y002822D01*
X007400Y002920D02*
X007255Y002920D01*
X007252Y003019D02*
X007400Y003019D01*
X007400Y003117D02*
X007211Y003117D01*
X007106Y003216D02*
X007400Y003216D01*
X007400Y003314D02*
X006030Y003314D01*
X006030Y003413D02*
X007400Y003413D01*
X007400Y003511D02*
X006030Y003511D01*
X006030Y003610D02*
X007400Y003610D01*
X007400Y003708D02*
X005947Y003708D01*
X005848Y003807D02*
X007400Y003807D01*
X007400Y003905D02*
X005750Y003905D01*
X004750Y003905D02*
X004610Y003905D01*
X004610Y003807D02*
X004652Y003807D01*
X004404Y004004D02*
X007400Y004004D01*
X007400Y004102D02*
X004404Y004102D01*
X004750Y003050D02*
X004350Y002650D01*
X004350Y002605D01*
X004362Y002593D01*
X003338Y002526D02*
X003338Y002526D01*
X003338Y002428D02*
X003338Y002428D01*
X001284Y006205D02*
X001212Y006182D01*
X001148Y006172D01*
X001148Y006602D01*
X001578Y006602D01*
X001568Y006538D01*
X001545Y006466D01*
X001770Y006466D01*
X001770Y006368D02*
X001488Y006368D01*
X001466Y006337D02*
X001413Y006284D01*
X001352Y006239D01*
X001284Y006205D01*
X001392Y006269D02*
X001770Y006269D01*
X001511Y006398D02*
X001545Y006466D01*
X001511Y006398D02*
X001466Y006337D01*
X001572Y006565D02*
X001770Y006565D01*
X001770Y006663D02*
X001148Y006663D01*
X001100Y006650D02*
X000850Y006400D01*
X001052Y006368D02*
X001148Y006368D01*
X001148Y006466D02*
X001052Y006466D01*
X001052Y006565D02*
X001148Y006565D01*
X001100Y006650D02*
X001650Y007200D01*
X001650Y009450D01*
X001374Y009027D02*
X003972Y009027D01*
X003970Y008929D02*
X001472Y008929D01*
X001560Y008633D02*
X002078Y008633D01*
X002013Y008535D02*
X001550Y008535D01*
X001509Y008436D02*
X001940Y008436D01*
X001866Y008338D02*
X001438Y008338D01*
X001100Y007650D02*
X000750Y007650D01*
X000450Y007950D01*
X000450Y008950D01*
X000630Y008042D02*
X000844Y008042D01*
X000743Y007944D02*
X000711Y007944D01*
X001356Y007057D02*
X001770Y007057D01*
X001770Y006959D02*
X001469Y006959D01*
X001532Y006860D02*
X001770Y006860D01*
X001770Y006762D02*
X001568Y006762D01*
X001148Y006269D02*
X001052Y006269D01*
X003871Y008830D02*
X003970Y008830D01*
X005934Y009421D02*
X006147Y009421D01*
X006227Y009323D02*
X006032Y009323D01*
X006130Y009224D02*
X006376Y009224D01*
X006276Y009027D02*
X006130Y009027D01*
X006130Y008929D02*
X006178Y008929D01*
X006130Y009126D02*
X007400Y009126D01*
X007400Y009224D02*
X006724Y009224D01*
X006873Y009323D02*
X007400Y009323D01*
X007400Y009421D02*
X006953Y009421D01*
X006994Y009520D02*
X007400Y009520D01*
X007400Y009618D02*
X007010Y009618D01*
X007010Y009717D02*
X007400Y009717D01*
X007400Y009815D02*
X006980Y009815D01*
X006937Y009914D02*
X007400Y009914D01*
X007400Y010012D02*
X006839Y010012D01*
X006824Y009027D02*
X007400Y009027D01*
X007400Y008929D02*
X006922Y008929D01*
X006950Y008650D02*
X007150Y008450D01*
X007330Y008436D02*
X007400Y008436D01*
X007400Y008338D02*
X007330Y008338D01*
X007330Y008239D02*
X007400Y008239D01*
X007400Y008141D02*
X007330Y008141D01*
X007330Y008042D02*
X007400Y008042D01*
X007400Y007944D02*
X007330Y007944D01*
X007330Y007845D02*
X007400Y007845D01*
X007400Y007747D02*
X007330Y007747D01*
X007330Y007648D02*
X007400Y007648D01*
X007400Y007550D02*
X007330Y007550D01*
X007330Y007451D02*
X007400Y007451D01*
X007400Y007353D02*
X007330Y007353D01*
X007330Y007254D02*
X007400Y007254D01*
X007400Y007156D02*
X007330Y007156D01*
X007330Y007057D02*
X007400Y007057D01*
X007400Y006959D02*
X007330Y006959D01*
X007330Y006860D02*
X007400Y006860D01*
X007400Y006762D02*
X007330Y006762D01*
X007330Y006663D02*
X007400Y006663D01*
X007400Y006565D02*
X007330Y006565D01*
X007330Y006466D02*
X007400Y006466D01*
X007400Y006368D02*
X007330Y006368D01*
X007330Y006269D02*
X007400Y006269D01*
X007400Y006171D02*
X007330Y006171D01*
X007330Y006072D02*
X007400Y006072D01*
X007400Y005974D02*
X007330Y005974D01*
X007330Y005875D02*
X007400Y005875D01*
X007400Y005777D02*
X007330Y005777D01*
X007330Y005678D02*
X007400Y005678D01*
X007400Y005580D02*
X007330Y005580D01*
X007330Y005481D02*
X007400Y005481D01*
X007400Y005383D02*
X007330Y005383D01*
X007330Y005284D02*
X007400Y005284D01*
X007400Y005186D02*
X007330Y005186D01*
X007330Y005087D02*
X007400Y005087D01*
X007400Y004989D02*
X007330Y004989D01*
X007330Y004890D02*
X007400Y004890D01*
X007400Y004792D02*
X007330Y004792D01*
X007400Y004693D02*
X007248Y004693D01*
X007149Y004595D02*
X007400Y004595D01*
X007400Y004496D02*
X007051Y004496D01*
X006952Y004398D02*
X007400Y004398D01*
X007330Y001738D02*
X007400Y001738D01*
X007400Y001640D02*
X007330Y001640D01*
X007330Y001541D02*
X007400Y001541D01*
X007400Y001443D02*
X007330Y001443D01*
X007330Y001344D02*
X007400Y001344D01*
X007400Y001246D02*
X007330Y001246D01*
X007317Y001147D02*
X007400Y001147D01*
X007320Y008535D02*
X007400Y008535D01*
X007400Y008633D02*
X007222Y008633D01*
X006950Y008650D02*
X006550Y008650D01*
D18*
X005550Y006150D03*
X005450Y005050D03*
X005150Y003050D03*
X005850Y002950D03*
X006950Y002950D03*
X004150Y007850D03*
X003750Y008550D03*
X003150Y009850D03*
X000750Y009150D03*
X002350Y006050D03*
X001350Y004550D03*
X001350Y003950D03*
X001850Y003450D03*
X002750Y002350D03*
X000850Y003450D03*
M02*
