G75*
G70*
%OFA0B0*%
%FSLAX24Y24*%
%IPPOS*%
%LPD*%
%AMOC8*
5,1,8,0,0,1.08239X$1,22.5*
%
%ADD10R,0.0900X0.0236*%
%ADD11R,0.0630X0.0512*%
%ADD12R,0.0512X0.0630*%
%ADD13R,0.0551X0.0709*%
%ADD14C,0.0660*%
%ADD15C,0.0100*%
%ADD16C,0.0350*%
D10*
X002539Y007400D03*
X002539Y007900D03*
X002539Y008400D03*
X002539Y008900D03*
X005161Y008900D03*
X005161Y008400D03*
X005161Y007900D03*
X005161Y007400D03*
D11*
X002450Y003844D03*
X002450Y003056D03*
X001350Y002924D03*
X001350Y002176D03*
D12*
X003476Y006950D03*
X004224Y006950D03*
X005176Y003950D03*
X005924Y003950D03*
X006176Y002150D03*
X006924Y002150D03*
D13*
X004519Y004350D03*
X004519Y005550D03*
X003181Y005550D03*
X003181Y004350D03*
D14*
X001100Y006650D03*
X001100Y007650D03*
X001100Y008650D03*
X001100Y009650D03*
X006550Y009650D03*
X006550Y008650D03*
X006550Y007650D03*
X006550Y006650D03*
D15*
X000300Y001645D02*
X000300Y001100D01*
X007400Y001100D01*
X007400Y010100D01*
X006718Y010100D01*
X006734Y010095D01*
X006802Y010061D01*
X006863Y010016D01*
X006916Y009963D01*
X006961Y009902D01*
X006995Y009834D01*
X007018Y009762D01*
X007028Y009698D01*
X006598Y009698D01*
X006598Y009602D01*
X007028Y009602D01*
X007018Y009538D01*
X006995Y009466D01*
X006961Y009398D01*
X006916Y009337D01*
X006863Y009284D01*
X006802Y009239D01*
X006734Y009205D01*
X006662Y009182D01*
X006598Y009172D01*
X006598Y009602D01*
X006502Y009602D01*
X006502Y009172D01*
X006438Y009182D01*
X006366Y009205D01*
X006298Y009239D01*
X006237Y009284D01*
X006184Y009337D01*
X006139Y009398D01*
X006105Y009466D01*
X006082Y009538D01*
X006072Y009602D01*
X006502Y009602D01*
X006502Y009698D01*
X006072Y009698D01*
X006082Y009762D01*
X006105Y009834D01*
X006139Y009902D01*
X006184Y009963D01*
X006237Y010016D01*
X006298Y010061D01*
X006366Y010095D01*
X006382Y010100D01*
X003331Y010100D01*
X003409Y010023D01*
X003455Y009911D01*
X003455Y009789D01*
X003409Y009677D01*
X003323Y009591D01*
X003211Y009545D01*
X003089Y009545D01*
X002977Y009591D01*
X002899Y009670D01*
X002830Y009670D01*
X002830Y009148D01*
X003043Y009148D01*
X003119Y009072D01*
X003119Y008728D01*
X003043Y008652D01*
X002035Y008652D01*
X001959Y008728D01*
X001959Y009072D01*
X002035Y009148D01*
X002470Y009148D01*
X002470Y009825D01*
X002575Y009930D01*
X002675Y010030D01*
X002899Y010030D01*
X002969Y010100D01*
X001216Y010100D01*
X001361Y010040D01*
X001490Y009911D01*
X001560Y009741D01*
X001560Y009558D01*
X001490Y009389D01*
X001431Y009330D01*
X001725Y009330D01*
X001830Y009225D01*
X001830Y008630D01*
X002017Y008630D01*
X002035Y008648D01*
X003043Y008648D01*
X003119Y008572D01*
X003119Y008228D01*
X003043Y008152D01*
X002035Y008152D01*
X001959Y008228D01*
X001959Y008270D01*
X001785Y008270D01*
X001925Y008130D01*
X002017Y008130D01*
X002035Y008148D01*
X003043Y008148D01*
X003119Y008072D01*
X003119Y007728D01*
X003043Y007652D01*
X002035Y007652D01*
X001959Y007728D01*
X001959Y007770D01*
X001775Y007770D01*
X001307Y008238D01*
X001191Y008190D01*
X001008Y008190D01*
X000839Y008260D01*
X000710Y008389D01*
X000640Y008558D01*
X000640Y008741D01*
X000684Y008847D01*
X000630Y008870D01*
X000630Y006310D01*
X000840Y006030D01*
X001575Y006030D01*
X001870Y006325D01*
X001870Y007325D01*
X001959Y007414D01*
X001959Y007572D01*
X002035Y007648D01*
X001560Y007648D01*
X001560Y007558D02*
X001490Y007389D01*
X001361Y007260D01*
X001191Y007190D01*
X001008Y007190D01*
X000839Y007260D01*
X000710Y007389D01*
X000640Y007558D01*
X000640Y007741D01*
X000710Y007911D01*
X000839Y008040D01*
X001008Y008110D01*
X001191Y008110D01*
X001361Y008040D01*
X001490Y007911D01*
X001560Y007741D01*
X001560Y007558D01*
X001556Y007550D02*
X001959Y007550D01*
X001959Y007451D02*
X001515Y007451D01*
X001453Y007353D02*
X001898Y007353D01*
X001870Y007254D02*
X001346Y007254D01*
X001319Y007057D02*
X001870Y007057D01*
X001870Y006959D02*
X001442Y006959D01*
X001490Y006911D02*
X001361Y007040D01*
X001191Y007110D01*
X001008Y007110D01*
X000839Y007040D01*
X000710Y006911D01*
X000640Y006741D01*
X000640Y006558D01*
X000710Y006389D01*
X000839Y006260D01*
X001008Y006190D01*
X001191Y006190D01*
X001361Y006260D01*
X001490Y006389D01*
X001560Y006558D01*
X001560Y006741D01*
X001490Y006911D01*
X001511Y006860D02*
X001870Y006860D01*
X001870Y006762D02*
X001552Y006762D01*
X001560Y006663D02*
X001870Y006663D01*
X001870Y006565D02*
X001560Y006565D01*
X001522Y006466D02*
X001870Y006466D01*
X001870Y006368D02*
X001468Y006368D01*
X001370Y006269D02*
X001814Y006269D01*
X001716Y006171D02*
X000735Y006171D01*
X000661Y006269D02*
X000830Y006269D01*
X000732Y006368D02*
X000630Y006368D01*
X000630Y006466D02*
X000678Y006466D01*
X000640Y006565D02*
X000630Y006565D01*
X000630Y006663D02*
X000640Y006663D01*
X000630Y006762D02*
X000648Y006762D01*
X000630Y006860D02*
X000689Y006860D01*
X000630Y006959D02*
X000758Y006959D01*
X000881Y007057D02*
X000630Y007057D01*
X000630Y007156D02*
X001870Y007156D01*
X002050Y007250D02*
X002200Y007400D01*
X002539Y007400D01*
X002550Y007389D01*
X002550Y007350D01*
X002650Y007350D01*
X003043Y007648D02*
X002035Y007648D01*
X001959Y007747D02*
X001558Y007747D01*
X001517Y007845D02*
X001700Y007845D01*
X001602Y007944D02*
X001457Y007944D01*
X001503Y008042D02*
X001356Y008042D01*
X001405Y008141D02*
X000630Y008141D01*
X000630Y008239D02*
X000890Y008239D01*
X000762Y008338D02*
X000630Y008338D01*
X000630Y008436D02*
X000691Y008436D01*
X000650Y008535D02*
X000630Y008535D01*
X000630Y008633D02*
X000640Y008633D01*
X000630Y008732D02*
X000640Y008732D01*
X000630Y008830D02*
X000677Y008830D01*
X000750Y009150D02*
X001650Y009150D01*
X001650Y008550D01*
X001750Y008450D01*
X002250Y008450D01*
X002300Y008400D01*
X002539Y008400D01*
X002900Y008400D01*
X003058Y008633D02*
X003454Y008633D01*
X003445Y008611D02*
X003445Y008489D01*
X003491Y008377D01*
X003577Y008291D01*
X003689Y008245D01*
X003811Y008245D01*
X003923Y008291D01*
X004001Y008370D01*
X004275Y008370D01*
X004375Y008270D01*
X004581Y008270D01*
X004581Y008228D01*
X004657Y008152D01*
X005665Y008152D01*
X005741Y008228D01*
X005741Y008572D01*
X005665Y008648D01*
X004657Y008648D01*
X004639Y008630D01*
X004525Y008630D01*
X004425Y008730D01*
X004001Y008730D01*
X003923Y008809D01*
X003811Y008855D01*
X003689Y008855D01*
X003577Y008809D01*
X003491Y008723D01*
X003445Y008611D01*
X003445Y008535D02*
X003119Y008535D01*
X003119Y008436D02*
X003467Y008436D01*
X003531Y008338D02*
X003119Y008338D01*
X003119Y008239D02*
X004581Y008239D01*
X004657Y008148D02*
X004589Y008080D01*
X004351Y008080D01*
X004323Y008109D01*
X004211Y008155D01*
X004089Y008155D01*
X003977Y008109D01*
X003891Y008023D01*
X003845Y007911D01*
X003845Y007789D01*
X003891Y007677D01*
X003977Y007591D01*
X004089Y007545D01*
X004211Y007545D01*
X004323Y007591D01*
X004409Y007677D01*
X004426Y007720D01*
X004589Y007720D01*
X004652Y007657D01*
X004619Y007638D01*
X004591Y007610D01*
X004571Y007576D01*
X004561Y007538D01*
X004561Y007409D01*
X005152Y007409D01*
X005152Y007391D01*
X004561Y007391D01*
X004561Y007368D01*
X004534Y007395D01*
X003914Y007395D01*
X003850Y007331D01*
X003786Y007395D01*
X003166Y007395D01*
X003119Y007348D01*
X003119Y007572D01*
X003043Y007648D01*
X003921Y007648D01*
X003863Y007747D02*
X003119Y007747D01*
X003119Y007845D02*
X003845Y007845D01*
X003859Y007944D02*
X003119Y007944D01*
X003119Y008042D02*
X003911Y008042D01*
X004054Y008141D02*
X003050Y008141D01*
X003350Y007650D02*
X003650Y007450D01*
X004850Y007450D01*
X004900Y007400D01*
X005161Y007400D01*
X005152Y007391D02*
X005170Y007391D01*
X005170Y007132D01*
X005631Y007132D01*
X005669Y007142D01*
X005703Y007162D01*
X005731Y007190D01*
X005751Y007224D01*
X005761Y007262D01*
X005761Y007391D01*
X005170Y007391D01*
X005170Y007409D01*
X005761Y007409D01*
X005761Y007538D01*
X005751Y007576D01*
X005731Y007610D01*
X005703Y007638D01*
X005670Y007657D01*
X005741Y007728D01*
X005741Y008072D01*
X005665Y008148D01*
X004657Y008148D01*
X004650Y008141D02*
X004246Y008141D01*
X004308Y008338D02*
X003969Y008338D01*
X003750Y008550D02*
X004350Y008550D01*
X004450Y008450D01*
X005111Y008450D01*
X005161Y008400D01*
X005161Y008900D02*
X005211Y008950D01*
X005750Y008950D01*
X005950Y008750D01*
X005950Y007250D01*
X006550Y006650D01*
X006378Y007077D02*
X006130Y007325D01*
X006130Y007462D01*
X006160Y007389D01*
X006289Y007260D01*
X006458Y007190D01*
X006641Y007190D01*
X006811Y007260D01*
X006940Y007389D01*
X007010Y007558D01*
X007010Y007741D01*
X006940Y007911D01*
X006811Y008040D01*
X006641Y008110D01*
X006458Y008110D01*
X006289Y008040D01*
X006160Y007911D01*
X006130Y007838D01*
X006130Y008462D01*
X006160Y008389D01*
X006289Y008260D01*
X006458Y008190D01*
X006641Y008190D01*
X006811Y008260D01*
X006940Y008389D01*
X007010Y008558D01*
X007010Y008741D01*
X006940Y008911D01*
X006811Y009040D01*
X006641Y009110D01*
X006458Y009110D01*
X006289Y009040D01*
X006160Y008911D01*
X006126Y008829D01*
X006025Y008930D01*
X005825Y009130D01*
X005683Y009130D01*
X005665Y009148D01*
X004657Y009148D01*
X004581Y009072D01*
X004581Y008728D01*
X004657Y008652D01*
X005665Y008652D01*
X005729Y008716D01*
X005770Y008675D01*
X005770Y007175D01*
X006123Y006822D01*
X006090Y006741D01*
X006090Y006558D01*
X006160Y006389D01*
X006289Y006260D01*
X006458Y006190D01*
X006641Y006190D01*
X006811Y006260D01*
X006940Y006389D01*
X007010Y006558D01*
X007010Y006741D01*
X006940Y006911D01*
X006811Y007040D01*
X006641Y007110D01*
X006458Y007110D01*
X006378Y007077D01*
X006299Y007156D02*
X007400Y007156D01*
X007400Y007254D02*
X006796Y007254D01*
X006903Y007353D02*
X007400Y007353D01*
X007400Y007451D02*
X006965Y007451D01*
X007006Y007550D02*
X007400Y007550D01*
X007400Y007648D02*
X007010Y007648D01*
X007008Y007747D02*
X007400Y007747D01*
X007400Y007845D02*
X006967Y007845D01*
X006907Y007944D02*
X007400Y007944D01*
X007400Y008042D02*
X006806Y008042D01*
X006760Y008239D02*
X007400Y008239D01*
X007400Y008141D02*
X006130Y008141D01*
X006130Y008239D02*
X006340Y008239D01*
X006212Y008338D02*
X006130Y008338D01*
X006130Y008436D02*
X006141Y008436D01*
X006130Y008042D02*
X006294Y008042D01*
X006193Y007944D02*
X006130Y007944D01*
X006130Y007845D02*
X006133Y007845D01*
X006130Y007451D02*
X006135Y007451D01*
X006130Y007353D02*
X006197Y007353D01*
X006201Y007254D02*
X006304Y007254D01*
X005987Y006959D02*
X005096Y006959D01*
X004998Y007057D02*
X005888Y007057D01*
X005790Y007156D02*
X005692Y007156D01*
X005759Y007254D02*
X005770Y007254D01*
X005761Y007353D02*
X005770Y007353D01*
X005761Y007451D02*
X005770Y007451D01*
X005758Y007550D02*
X005770Y007550D01*
X005770Y007648D02*
X005686Y007648D01*
X005741Y007747D02*
X005770Y007747D01*
X005770Y007845D02*
X005741Y007845D01*
X005741Y007944D02*
X005770Y007944D01*
X005770Y008042D02*
X005741Y008042D01*
X005770Y008141D02*
X005672Y008141D01*
X005741Y008239D02*
X005770Y008239D01*
X005770Y008338D02*
X005741Y008338D01*
X005741Y008436D02*
X005770Y008436D01*
X005770Y008535D02*
X005741Y008535D01*
X005770Y008633D02*
X005680Y008633D01*
X006026Y008929D02*
X006178Y008929D01*
X006127Y008830D02*
X006125Y008830D01*
X006276Y009027D02*
X005928Y009027D01*
X005829Y009126D02*
X007400Y009126D01*
X007400Y009224D02*
X006771Y009224D01*
X006901Y009323D02*
X007400Y009323D01*
X007400Y009421D02*
X006972Y009421D01*
X007012Y009520D02*
X007400Y009520D01*
X007400Y009618D02*
X006598Y009618D01*
X006550Y009650D02*
X003650Y009650D01*
X003350Y009450D01*
X003350Y007650D01*
X003119Y007550D02*
X004078Y007550D01*
X004222Y007550D02*
X004564Y007550D01*
X004561Y007451D02*
X003119Y007451D01*
X003119Y007353D02*
X003124Y007353D01*
X003450Y006950D02*
X003476Y006950D01*
X003376Y006850D01*
X002850Y006850D01*
X002750Y006750D01*
X002750Y006150D01*
X002650Y006050D01*
X002350Y006050D01*
X002487Y005777D02*
X002755Y005777D01*
X002725Y005870D02*
X002755Y005901D01*
X002755Y005600D01*
X003131Y005600D01*
X003131Y006054D01*
X002909Y006054D01*
X002930Y006075D01*
X002930Y006670D01*
X003090Y006670D01*
X003090Y006581D01*
X003166Y006505D01*
X003786Y006505D01*
X003850Y006569D01*
X003914Y006505D01*
X004534Y006505D01*
X004610Y006581D01*
X004610Y006770D01*
X004775Y006770D01*
X004870Y006675D01*
X004870Y006013D01*
X004849Y006034D01*
X004190Y006034D01*
X004121Y005965D01*
X004167Y006077D01*
X004167Y006204D01*
X004119Y006320D01*
X004030Y006410D01*
X003913Y006458D01*
X003787Y006458D01*
X003670Y006410D01*
X003581Y006320D01*
X003533Y006204D01*
X003533Y006077D01*
X003559Y006014D01*
X003548Y006024D01*
X003514Y006044D01*
X003476Y006054D01*
X003231Y006054D01*
X003231Y005600D01*
X003606Y005600D01*
X003606Y005924D01*
X003602Y005940D01*
X003670Y005872D01*
X003787Y005823D01*
X003913Y005823D01*
X004030Y005872D01*
X004114Y005955D01*
X004114Y005145D01*
X004030Y005228D01*
X003913Y005277D01*
X003787Y005277D01*
X003670Y005228D01*
X003602Y005160D01*
X003606Y005176D01*
X003606Y005500D01*
X003231Y005500D01*
X003231Y005600D01*
X003131Y005600D01*
X003131Y005500D01*
X003231Y005500D01*
X003231Y005046D01*
X003476Y005046D01*
X003514Y005056D01*
X003548Y005076D01*
X003559Y005086D01*
X003533Y005023D01*
X003533Y004896D01*
X003572Y004800D01*
X003548Y004824D01*
X003514Y004844D01*
X003476Y004854D01*
X003231Y004854D01*
X003231Y004400D01*
X003606Y004400D01*
X003606Y004724D01*
X003596Y004762D01*
X003593Y004768D01*
X003670Y004690D01*
X003787Y004642D01*
X003913Y004642D01*
X004030Y004690D01*
X004119Y004780D01*
X004167Y004896D01*
X004167Y005023D01*
X004121Y005135D01*
X004190Y005066D01*
X004849Y005066D01*
X004914Y005131D01*
X005170Y004875D01*
X005275Y004770D01*
X005329Y004770D01*
X005389Y004745D01*
X005511Y004745D01*
X005623Y004791D01*
X005688Y004857D01*
X005770Y004775D01*
X005770Y004395D01*
X005614Y004395D01*
X005550Y004331D01*
X005486Y004395D01*
X004925Y004395D01*
X004925Y004758D01*
X004849Y004834D01*
X004190Y004834D01*
X004114Y004758D01*
X004114Y003942D01*
X004190Y003866D01*
X004480Y003866D01*
X004570Y003775D01*
X004675Y003670D01*
X004790Y003670D01*
X004790Y003581D01*
X004866Y003505D01*
X004970Y003505D01*
X004970Y003301D01*
X004891Y003223D01*
X004845Y003111D01*
X004845Y002989D01*
X004891Y002877D01*
X004977Y002791D01*
X005089Y002745D01*
X005211Y002745D01*
X005323Y002791D01*
X005409Y002877D01*
X005455Y002989D01*
X005455Y003111D01*
X005409Y003223D01*
X005330Y003301D01*
X005330Y003505D01*
X005486Y003505D01*
X005550Y003569D01*
X005614Y003505D01*
X006234Y003505D01*
X006310Y003581D01*
X006310Y004319D01*
X006234Y004395D01*
X006130Y004395D01*
X006130Y004925D01*
X006030Y005025D01*
X006030Y005825D01*
X005829Y006026D01*
X005855Y006089D01*
X005855Y006211D01*
X005809Y006323D01*
X005723Y006409D01*
X005611Y006455D01*
X005489Y006455D01*
X005377Y006409D01*
X005291Y006323D01*
X005245Y006211D01*
X005245Y006089D01*
X005291Y005977D01*
X005377Y005891D01*
X005489Y005845D01*
X005500Y005845D01*
X005670Y005675D01*
X005670Y005261D01*
X005623Y005309D01*
X005511Y005355D01*
X005389Y005355D01*
X005277Y005309D01*
X005262Y005293D01*
X005230Y005325D01*
X005230Y006825D01*
X004925Y007130D01*
X004610Y007130D01*
X004610Y007171D01*
X004619Y007162D01*
X004653Y007142D01*
X004691Y007132D01*
X005152Y007132D01*
X005152Y007391D01*
X005152Y007353D02*
X005170Y007353D01*
X005170Y007254D02*
X005152Y007254D01*
X005152Y007156D02*
X005170Y007156D01*
X005195Y006860D02*
X006085Y006860D01*
X006098Y006762D02*
X005230Y006762D01*
X005230Y006663D02*
X006090Y006663D01*
X006090Y006565D02*
X005230Y006565D01*
X005230Y006466D02*
X006128Y006466D01*
X006182Y006368D02*
X005764Y006368D01*
X005831Y006269D02*
X006280Y006269D01*
X005980Y005875D02*
X007400Y005875D01*
X007400Y005777D02*
X006030Y005777D01*
X006030Y005678D02*
X007400Y005678D01*
X007400Y005580D02*
X006030Y005580D01*
X006030Y005481D02*
X007400Y005481D01*
X007400Y005383D02*
X006030Y005383D01*
X006030Y005284D02*
X007400Y005284D01*
X007400Y005186D02*
X006030Y005186D01*
X006030Y005087D02*
X007400Y005087D01*
X007400Y004989D02*
X006066Y004989D01*
X006130Y004890D02*
X007400Y004890D01*
X007400Y004792D02*
X006130Y004792D01*
X006130Y004693D02*
X007400Y004693D01*
X007400Y004595D02*
X006130Y004595D01*
X006130Y004496D02*
X007400Y004496D01*
X007400Y004398D02*
X006130Y004398D01*
X006310Y004299D02*
X007400Y004299D01*
X007400Y004201D02*
X006310Y004201D01*
X006310Y004102D02*
X007400Y004102D01*
X007400Y004004D02*
X006310Y004004D01*
X006310Y003905D02*
X007400Y003905D01*
X007400Y003807D02*
X006310Y003807D01*
X006310Y003708D02*
X007400Y003708D01*
X007400Y003610D02*
X006310Y003610D01*
X006240Y003511D02*
X007400Y003511D01*
X007400Y003413D02*
X005330Y003413D01*
X005330Y003314D02*
X007400Y003314D01*
X007400Y003216D02*
X007106Y003216D01*
X007123Y003209D02*
X007011Y003255D01*
X006889Y003255D01*
X006777Y003209D01*
X006691Y003123D01*
X006645Y003011D01*
X006645Y002889D01*
X006691Y002777D01*
X006744Y002725D01*
X006744Y002595D01*
X006614Y002595D01*
X006550Y002531D01*
X006486Y002595D01*
X005866Y002595D01*
X005790Y002519D01*
X005790Y001781D01*
X005866Y001705D01*
X005996Y001705D01*
X005996Y001630D01*
X001325Y001630D01*
X001225Y001730D01*
X000725Y001730D01*
X000630Y001825D01*
X000630Y003239D01*
X000670Y003199D01*
X000670Y002175D01*
X000775Y002070D01*
X000849Y001996D01*
X000905Y001996D01*
X000905Y001866D01*
X000981Y001790D01*
X001719Y001790D01*
X001795Y001866D01*
X001795Y002486D01*
X001731Y002550D01*
X001795Y002614D01*
X001795Y002870D01*
X002005Y002870D01*
X002005Y002747D01*
X002081Y002670D01*
X002270Y002670D01*
X002270Y002575D01*
X002375Y002470D01*
X002445Y002400D01*
X002445Y002289D01*
X002491Y002177D01*
X002577Y002091D01*
X002689Y002045D01*
X002811Y002045D01*
X002923Y002091D01*
X003009Y002177D01*
X003055Y002289D01*
X003055Y002411D01*
X003009Y002523D01*
X002923Y002609D01*
X002811Y002655D01*
X002700Y002655D01*
X002684Y002670D01*
X002819Y002670D01*
X002895Y002747D01*
X002895Y003366D01*
X002819Y003442D01*
X002801Y003442D01*
X002823Y003448D01*
X002857Y003468D01*
X002885Y003496D01*
X002905Y003530D01*
X002915Y003568D01*
X002915Y003794D01*
X002500Y003794D01*
X002500Y003894D01*
X002400Y003894D01*
X002400Y004250D01*
X002115Y004250D01*
X002077Y004239D01*
X002043Y004220D01*
X002015Y004192D01*
X001995Y004158D01*
X001985Y004119D01*
X001985Y003894D01*
X002400Y003894D01*
X002400Y003794D01*
X001985Y003794D01*
X001985Y003568D01*
X001995Y003530D01*
X002015Y003496D01*
X002043Y003468D01*
X002077Y003448D01*
X002099Y003442D01*
X002081Y003442D01*
X002005Y003366D01*
X002005Y003230D01*
X001795Y003230D01*
X001795Y003234D01*
X001719Y003310D01*
X001530Y003310D01*
X001530Y003699D01*
X001609Y003777D01*
X001655Y003889D01*
X001655Y004011D01*
X001609Y004123D01*
X001523Y004209D01*
X001423Y004250D01*
X001523Y004291D01*
X001609Y004377D01*
X001655Y004489D01*
X001655Y004611D01*
X001609Y004723D01*
X001523Y004809D01*
X001411Y004855D01*
X001289Y004855D01*
X001177Y004809D01*
X001099Y004730D01*
X000575Y004730D01*
X000300Y004455D01*
X000300Y006145D01*
X000314Y006132D01*
X000570Y005790D01*
X000570Y005775D01*
X000614Y005732D01*
X000651Y005682D01*
X000665Y005680D01*
X000675Y005670D01*
X000737Y005670D01*
X000798Y005661D01*
X000810Y005670D01*
X001725Y005670D01*
X002045Y005990D01*
X002045Y005989D01*
X002091Y005877D01*
X002177Y005791D01*
X002289Y005745D01*
X002411Y005745D01*
X002523Y005791D01*
X002601Y005870D01*
X002725Y005870D01*
X002730Y005875D02*
X002755Y005875D01*
X002755Y005678D02*
X001733Y005678D01*
X001831Y005777D02*
X002213Y005777D01*
X002094Y005875D02*
X001930Y005875D01*
X002028Y005974D02*
X002052Y005974D01*
X002050Y006250D02*
X001650Y005850D01*
X000750Y005850D01*
X000450Y006250D01*
X000450Y009550D01*
X000550Y009650D01*
X001100Y009650D01*
X001389Y010012D02*
X002657Y010012D01*
X002559Y009914D02*
X001487Y009914D01*
X001530Y009815D02*
X002470Y009815D01*
X002470Y009717D02*
X001560Y009717D01*
X001560Y009618D02*
X002470Y009618D01*
X002470Y009520D02*
X001544Y009520D01*
X001503Y009421D02*
X002470Y009421D01*
X002470Y009323D02*
X001732Y009323D01*
X001830Y009224D02*
X002470Y009224D01*
X002500Y008900D02*
X002650Y008950D01*
X002650Y009750D01*
X002750Y009850D01*
X003150Y009850D01*
X002951Y009618D02*
X002830Y009618D01*
X002830Y009520D02*
X006088Y009520D01*
X006128Y009421D02*
X002830Y009421D01*
X002830Y009323D02*
X006199Y009323D01*
X006329Y009224D02*
X002830Y009224D01*
X003065Y009126D02*
X004635Y009126D01*
X004581Y009027D02*
X003119Y009027D01*
X003119Y008929D02*
X004581Y008929D01*
X004581Y008830D02*
X003871Y008830D01*
X004000Y008732D02*
X004581Y008732D01*
X004522Y008633D02*
X004642Y008633D01*
X004200Y007900D02*
X004150Y007850D01*
X004200Y007900D02*
X005161Y007900D01*
X004636Y007648D02*
X004379Y007648D01*
X004610Y007156D02*
X004630Y007156D01*
X004850Y006950D02*
X005050Y006750D01*
X005050Y005650D01*
X004950Y005550D01*
X004519Y005550D01*
X004870Y005087D02*
X004958Y005087D01*
X005057Y004989D02*
X004167Y004989D01*
X004169Y005087D02*
X004141Y005087D01*
X004114Y005186D02*
X004073Y005186D01*
X004114Y005284D02*
X003606Y005284D01*
X003606Y005186D02*
X003627Y005186D01*
X003606Y005383D02*
X004114Y005383D01*
X004114Y005481D02*
X003606Y005481D01*
X003606Y005678D02*
X004114Y005678D01*
X004114Y005580D02*
X003231Y005580D01*
X003181Y005550D02*
X003181Y004350D01*
X003250Y004281D01*
X003250Y002850D01*
X003450Y002650D01*
X005650Y002650D01*
X005850Y002850D01*
X005850Y002950D01*
X005850Y003050D01*
X007150Y004350D01*
X007150Y009450D01*
X006950Y009650D01*
X006550Y009650D01*
X006502Y009618D02*
X003349Y009618D01*
X003425Y009717D02*
X006075Y009717D01*
X006099Y009815D02*
X003455Y009815D01*
X003454Y009914D02*
X006148Y009914D01*
X006233Y010012D02*
X003413Y010012D01*
X003629Y008830D02*
X003119Y008830D01*
X003119Y008732D02*
X003500Y008732D01*
X002550Y008850D02*
X002500Y008900D01*
X002539Y008900D01*
X002020Y008633D02*
X001830Y008633D01*
X001830Y008732D02*
X001959Y008732D01*
X001959Y008830D02*
X001830Y008830D01*
X001830Y008929D02*
X001959Y008929D01*
X001959Y009027D02*
X001830Y009027D01*
X001830Y009126D02*
X002013Y009126D01*
X001959Y008239D02*
X001816Y008239D01*
X001914Y008141D02*
X002028Y008141D01*
X001850Y007950D02*
X001150Y008650D01*
X001100Y008650D01*
X000844Y008042D02*
X000630Y008042D01*
X000630Y007944D02*
X000743Y007944D01*
X000683Y007845D02*
X000630Y007845D01*
X000630Y007747D02*
X000642Y007747D01*
X000630Y007648D02*
X000640Y007648D01*
X000630Y007550D02*
X000644Y007550D01*
X000630Y007451D02*
X000685Y007451D01*
X000630Y007353D02*
X000747Y007353D01*
X000854Y007254D02*
X000630Y007254D01*
X000808Y006072D02*
X001617Y006072D01*
X002050Y006250D02*
X002050Y007250D01*
X001850Y007950D02*
X002489Y007950D01*
X002539Y007900D01*
X002930Y006663D02*
X003090Y006663D01*
X003107Y006565D02*
X002930Y006565D01*
X002930Y006466D02*
X004870Y006466D01*
X004870Y006368D02*
X004072Y006368D01*
X004140Y006269D02*
X004870Y006269D01*
X004870Y006171D02*
X004167Y006171D01*
X004165Y006072D02*
X004870Y006072D01*
X005050Y005650D02*
X005050Y005250D01*
X005350Y004950D01*
X005450Y005050D01*
X005647Y005284D02*
X005670Y005284D01*
X005670Y005383D02*
X005230Y005383D01*
X005230Y005481D02*
X005670Y005481D01*
X005670Y005580D02*
X005230Y005580D01*
X005230Y005678D02*
X005667Y005678D01*
X005569Y005777D02*
X005230Y005777D01*
X005230Y005875D02*
X005417Y005875D01*
X005295Y005974D02*
X005230Y005974D01*
X005230Y006072D02*
X005252Y006072D01*
X005245Y006171D02*
X005230Y006171D01*
X005230Y006269D02*
X005269Y006269D01*
X005230Y006368D02*
X005336Y006368D01*
X005550Y006150D02*
X005550Y006050D01*
X005850Y005750D01*
X005850Y004950D01*
X005950Y004850D01*
X005950Y003976D01*
X005924Y003950D01*
X005770Y004398D02*
X004925Y004398D01*
X004925Y004496D02*
X005770Y004496D01*
X005770Y004595D02*
X004925Y004595D01*
X004925Y004693D02*
X005770Y004693D01*
X005754Y004792D02*
X005623Y004792D01*
X005254Y004792D02*
X004892Y004792D01*
X005155Y004890D02*
X004165Y004890D01*
X004147Y004792D02*
X004124Y004792D01*
X004114Y004693D02*
X004032Y004693D01*
X004114Y004595D02*
X003606Y004595D01*
X003606Y004693D02*
X003668Y004693D01*
X003606Y004496D02*
X004114Y004496D01*
X004114Y004398D02*
X003231Y004398D01*
X003231Y004400D02*
X003231Y004300D01*
X003606Y004300D01*
X003606Y003976D01*
X003596Y003938D01*
X003576Y003904D01*
X003548Y003876D01*
X003514Y003856D01*
X003476Y003846D01*
X003231Y003846D01*
X003231Y004300D01*
X003131Y004300D01*
X003131Y003846D01*
X002885Y003846D01*
X002847Y003856D01*
X002813Y003876D01*
X002795Y003894D01*
X002500Y003894D01*
X002500Y004250D01*
X002755Y004250D01*
X002755Y004300D01*
X003131Y004300D01*
X003131Y004400D01*
X003131Y004854D01*
X002885Y004854D01*
X002847Y004844D01*
X002813Y004824D01*
X002785Y004796D01*
X002765Y004762D01*
X002755Y004724D01*
X002755Y004400D01*
X003131Y004400D01*
X003231Y004400D01*
X003150Y004350D02*
X002956Y004350D01*
X002450Y003844D01*
X001944Y003844D01*
X001850Y003750D01*
X001850Y003450D01*
X002006Y003511D02*
X001530Y003511D01*
X001530Y003413D02*
X002051Y003413D01*
X002005Y003314D02*
X001530Y003314D01*
X001324Y003050D02*
X001350Y002924D01*
X001350Y003950D01*
X001539Y003708D02*
X001985Y003708D01*
X001985Y003610D02*
X001530Y003610D01*
X001621Y003807D02*
X002400Y003807D01*
X002400Y003905D02*
X002500Y003905D01*
X002500Y003807D02*
X004539Y003807D01*
X004637Y003708D02*
X002915Y003708D01*
X002915Y003610D02*
X004790Y003610D01*
X004860Y003511D02*
X002894Y003511D01*
X002849Y003413D02*
X004970Y003413D01*
X004970Y003314D02*
X002895Y003314D01*
X002895Y003216D02*
X004888Y003216D01*
X004848Y003117D02*
X002895Y003117D01*
X002895Y003019D02*
X004845Y003019D01*
X004874Y002920D02*
X002895Y002920D01*
X002895Y002822D02*
X004947Y002822D01*
X005150Y003050D02*
X005150Y003850D01*
X005150Y003950D01*
X005176Y003950D01*
X005150Y003850D02*
X004750Y003850D01*
X004519Y004081D01*
X004519Y004350D01*
X004114Y004299D02*
X003606Y004299D01*
X003606Y004201D02*
X004114Y004201D01*
X004114Y004102D02*
X003606Y004102D01*
X003606Y004004D02*
X004114Y004004D01*
X004151Y003905D02*
X003577Y003905D01*
X003231Y003905D02*
X003131Y003905D01*
X003131Y004004D02*
X003231Y004004D01*
X003231Y004102D02*
X003131Y004102D01*
X003131Y004201D02*
X003231Y004201D01*
X003231Y004299D02*
X003131Y004299D01*
X003131Y004398D02*
X001617Y004398D01*
X001655Y004496D02*
X002755Y004496D01*
X002755Y004595D02*
X001655Y004595D01*
X001621Y004693D02*
X002755Y004693D01*
X002782Y004792D02*
X001540Y004792D01*
X001350Y004550D02*
X000650Y004550D01*
X000450Y004350D01*
X000450Y001750D01*
X000650Y001550D01*
X001150Y001550D01*
X001250Y001450D01*
X006150Y001450D01*
X006176Y001476D01*
X006176Y002150D01*
X006356Y001705D02*
X006486Y001705D01*
X006550Y001769D01*
X006614Y001705D01*
X007234Y001705D01*
X007310Y001781D01*
X007310Y002519D01*
X007234Y002595D01*
X007104Y002595D01*
X007104Y002684D01*
X007123Y002691D01*
X007209Y002777D01*
X007255Y002889D01*
X007255Y003011D01*
X007209Y003123D01*
X007123Y003209D01*
X007211Y003117D02*
X007400Y003117D01*
X007400Y003019D02*
X007252Y003019D01*
X007255Y002920D02*
X007400Y002920D01*
X007400Y002822D02*
X007227Y002822D01*
X007154Y002723D02*
X007400Y002723D01*
X007400Y002625D02*
X007104Y002625D01*
X006924Y002924D02*
X006950Y002950D01*
X006924Y002924D02*
X006924Y002150D01*
X007267Y001738D02*
X007400Y001738D01*
X007400Y001640D02*
X006356Y001640D01*
X006356Y001705D02*
X006356Y001401D01*
X006330Y001375D01*
X006225Y001270D01*
X001175Y001270D01*
X001075Y001370D01*
X000575Y001370D01*
X000470Y001475D01*
X000375Y001570D01*
X000300Y001645D01*
X000300Y001640D02*
X000306Y001640D01*
X000300Y001541D02*
X000404Y001541D01*
X000503Y001443D02*
X000300Y001443D01*
X000300Y001344D02*
X001101Y001344D01*
X001315Y001640D02*
X005996Y001640D01*
X005833Y001738D02*
X000717Y001738D01*
X000630Y001837D02*
X000935Y001837D01*
X000905Y001935D02*
X000630Y001935D01*
X000630Y002034D02*
X000812Y002034D01*
X000713Y002132D02*
X000630Y002132D01*
X000630Y002231D02*
X000670Y002231D01*
X000670Y002329D02*
X000630Y002329D01*
X000630Y002428D02*
X000670Y002428D01*
X000670Y002526D02*
X000630Y002526D01*
X000630Y002625D02*
X000670Y002625D01*
X000670Y002723D02*
X000630Y002723D01*
X000630Y002822D02*
X000670Y002822D01*
X000670Y002920D02*
X000630Y002920D01*
X000630Y003019D02*
X000670Y003019D01*
X000670Y003117D02*
X000630Y003117D01*
X000630Y003216D02*
X000653Y003216D01*
X000850Y003450D02*
X000850Y002250D01*
X000924Y002176D01*
X001350Y002176D01*
X001755Y002526D02*
X002319Y002526D01*
X002270Y002625D02*
X001795Y002625D01*
X001795Y002723D02*
X002029Y002723D01*
X002005Y002822D02*
X001795Y002822D01*
X001795Y002428D02*
X002418Y002428D01*
X002445Y002329D02*
X001795Y002329D01*
X001795Y002231D02*
X002469Y002231D01*
X002537Y002132D02*
X001795Y002132D01*
X001795Y002034D02*
X005790Y002034D01*
X005790Y002132D02*
X002963Y002132D01*
X003031Y002231D02*
X005790Y002231D01*
X005790Y002329D02*
X003055Y002329D01*
X003048Y002428D02*
X005790Y002428D01*
X005797Y002526D02*
X003005Y002526D01*
X002884Y002625D02*
X006744Y002625D01*
X006744Y002723D02*
X002871Y002723D01*
X002750Y002350D02*
X002450Y002650D01*
X002450Y003056D01*
X002450Y003050D01*
X001324Y003050D01*
X001655Y003905D02*
X001985Y003905D01*
X001985Y004004D02*
X001655Y004004D01*
X001617Y004102D02*
X001985Y004102D01*
X002024Y004201D02*
X001531Y004201D01*
X001530Y004299D02*
X002755Y004299D01*
X002500Y004201D02*
X002400Y004201D01*
X002400Y004102D02*
X002500Y004102D01*
X002500Y004004D02*
X002400Y004004D01*
X003131Y004496D02*
X003231Y004496D01*
X003231Y004595D02*
X003131Y004595D01*
X003131Y004693D02*
X003231Y004693D01*
X003231Y004792D02*
X003131Y004792D01*
X003131Y005046D02*
X002885Y005046D01*
X002847Y005056D01*
X002813Y005076D01*
X002785Y005104D01*
X002765Y005138D01*
X002755Y005176D01*
X002755Y005500D01*
X003131Y005500D01*
X003131Y005046D01*
X003131Y005087D02*
X003231Y005087D01*
X003231Y005186D02*
X003131Y005186D01*
X003131Y005284D02*
X003231Y005284D01*
X003231Y005383D02*
X003131Y005383D01*
X003131Y005481D02*
X003231Y005481D01*
X003131Y005580D02*
X000300Y005580D01*
X000300Y005678D02*
X000667Y005678D01*
X000570Y005777D02*
X000300Y005777D01*
X000300Y005875D02*
X000506Y005875D01*
X000432Y005974D02*
X000300Y005974D01*
X000300Y006072D02*
X000358Y006072D01*
X000300Y005481D02*
X002755Y005481D01*
X002755Y005383D02*
X000300Y005383D01*
X000300Y005284D02*
X002755Y005284D01*
X002755Y005186D02*
X000300Y005186D01*
X000300Y005087D02*
X002802Y005087D01*
X003131Y005678D02*
X003231Y005678D01*
X003231Y005777D02*
X003131Y005777D01*
X003131Y005875D02*
X003231Y005875D01*
X003231Y005974D02*
X003131Y005974D01*
X002927Y006072D02*
X003535Y006072D01*
X003533Y006171D02*
X002930Y006171D01*
X002930Y006269D02*
X003560Y006269D01*
X003628Y006368D02*
X002930Y006368D01*
X003450Y006850D02*
X003450Y006950D01*
X003845Y006565D02*
X003855Y006565D01*
X004224Y006950D02*
X004850Y006950D01*
X004784Y006762D02*
X004610Y006762D01*
X004610Y006663D02*
X004870Y006663D01*
X004870Y006565D02*
X004593Y006565D01*
X004129Y005974D02*
X004124Y005974D01*
X004114Y005875D02*
X004033Y005875D01*
X004114Y005777D02*
X003606Y005777D01*
X003606Y005875D02*
X003667Y005875D01*
X003533Y004989D02*
X000300Y004989D01*
X000300Y004890D02*
X003535Y004890D01*
X003828Y007353D02*
X003872Y007353D01*
X005855Y006171D02*
X007400Y006171D01*
X007400Y006269D02*
X006820Y006269D01*
X006918Y006368D02*
X007400Y006368D01*
X007400Y006466D02*
X006972Y006466D01*
X007010Y006565D02*
X007400Y006565D01*
X007400Y006663D02*
X007010Y006663D01*
X007002Y006762D02*
X007400Y006762D01*
X007400Y006860D02*
X006961Y006860D01*
X006892Y006959D02*
X007400Y006959D01*
X007400Y007057D02*
X006769Y007057D01*
X007400Y006072D02*
X005848Y006072D01*
X005881Y005974D02*
X007400Y005974D01*
X007400Y008338D02*
X006888Y008338D01*
X006959Y008436D02*
X007400Y008436D01*
X007400Y008535D02*
X007000Y008535D01*
X007010Y008633D02*
X007400Y008633D01*
X007400Y008732D02*
X007010Y008732D01*
X006973Y008830D02*
X007400Y008830D01*
X007400Y008929D02*
X006922Y008929D01*
X006824Y009027D02*
X007400Y009027D01*
X007400Y009717D02*
X007025Y009717D01*
X007001Y009815D02*
X007400Y009815D01*
X007400Y009914D02*
X006952Y009914D01*
X006867Y010012D02*
X007400Y010012D01*
X006598Y009520D02*
X006502Y009520D01*
X006502Y009421D02*
X006598Y009421D01*
X006598Y009323D02*
X006502Y009323D01*
X006502Y009224D02*
X006598Y009224D01*
X005608Y003511D02*
X005492Y003511D01*
X005412Y003216D02*
X006794Y003216D01*
X006689Y003117D02*
X005452Y003117D01*
X005455Y003019D02*
X006648Y003019D01*
X006645Y002920D02*
X005426Y002920D01*
X005353Y002822D02*
X006673Y002822D01*
X007303Y002526D02*
X007400Y002526D01*
X007400Y002428D02*
X007310Y002428D01*
X007310Y002329D02*
X007400Y002329D01*
X007400Y002231D02*
X007310Y002231D01*
X007310Y002132D02*
X007400Y002132D01*
X007400Y002034D02*
X007310Y002034D01*
X007310Y001935D02*
X007400Y001935D01*
X007400Y001837D02*
X007310Y001837D01*
X007400Y001541D02*
X006356Y001541D01*
X006356Y001443D02*
X007400Y001443D01*
X007400Y001344D02*
X006299Y001344D01*
X006519Y001738D02*
X006581Y001738D01*
X005790Y001837D02*
X001765Y001837D01*
X001795Y001935D02*
X005790Y001935D01*
X007400Y001246D02*
X000300Y001246D01*
X000300Y001147D02*
X007400Y001147D01*
X001160Y004792D02*
X000300Y004792D01*
X000300Y004693D02*
X000538Y004693D01*
X000440Y004595D02*
X000300Y004595D01*
X000300Y004496D02*
X000341Y004496D01*
D16*
X000850Y003450D03*
X001350Y003950D03*
X001350Y004550D03*
X001850Y003450D03*
X002750Y002350D03*
X005150Y003050D03*
X005850Y002950D03*
X006950Y002950D03*
X005450Y005050D03*
X005550Y006150D03*
X004150Y007850D03*
X003750Y008550D03*
X003150Y009850D03*
X000750Y009150D03*
X002350Y006050D03*
M02*
