G75*
G70*
%OFA0B0*%
%FSLAX24Y24*%
%IPPOS*%
%LPD*%
%AMOC8*
5,1,8,0,0,1.08239X$1,22.5*
%
%ADD10R,0.0980X0.0316*%
%ADD11R,0.0710X0.0592*%
%ADD12R,0.0592X0.0710*%
%ADD13R,0.0631X0.0789*%
%ADD14C,0.0415*%
%ADD15C,0.0740*%
%ADD16C,0.0430*%
D10*
X002539Y007400D03*
X002539Y007900D03*
X002539Y008400D03*
X002539Y008900D03*
X005161Y008900D03*
X005161Y008400D03*
X005161Y007900D03*
X005161Y007400D03*
D11*
X001350Y002176D03*
X001350Y002924D03*
X002450Y003056D03*
X002450Y003844D03*
D12*
X003476Y006950D03*
X004224Y006950D03*
X005176Y003950D03*
X005924Y003950D03*
X006176Y002150D03*
X006924Y002150D03*
D13*
X004519Y004350D03*
X004519Y005550D03*
X003181Y005550D03*
X003181Y004350D03*
D14*
X003850Y004959D03*
X003850Y006141D03*
D15*
X006550Y006650D03*
X006550Y007650D03*
X006550Y008650D03*
X006550Y009650D03*
X001100Y009650D03*
X001100Y008650D03*
X001100Y007650D03*
X001100Y006650D03*
D16*
X002350Y006050D03*
X001350Y004550D03*
X001350Y003950D03*
X001850Y003450D03*
X002750Y002350D03*
X000850Y003450D03*
X004150Y007850D03*
X003750Y008550D03*
X003150Y009850D03*
X000750Y009150D03*
X005150Y003050D03*
X005850Y002950D03*
X006950Y002950D03*
X005450Y005050D03*
X005550Y006150D03*
M02*
