G75*
G70*
%OFA0B0*%
%FSLAX24Y24*%
%IPPOS*%
%LPD*%
%AMOC8*
5,1,8,0,0,1.08239X$1,22.5*
%
%ADD10C,0.0000*%
%ADD11C,0.0020*%
%ADD12C,0.0040*%
%ADD13C,0.0025*%
%ADD14C,0.0098*%
%ADD15C,0.0080*%
%ADD16C,0.0010*%
%ADD17C,0.0060*%
D10*
X000150Y000950D02*
X000150Y010250D01*
X007550Y010250D01*
X007550Y000950D01*
X000150Y000950D01*
X003683Y004959D02*
X003685Y004984D01*
X003691Y005009D01*
X003700Y005033D01*
X003713Y005055D01*
X003730Y005075D01*
X003749Y005092D01*
X003770Y005106D01*
X003794Y005116D01*
X003818Y005123D01*
X003844Y005126D01*
X003869Y005125D01*
X003894Y005120D01*
X003918Y005111D01*
X003941Y005099D01*
X003961Y005084D01*
X003979Y005065D01*
X003994Y005044D01*
X004005Y005021D01*
X004013Y004997D01*
X004017Y004972D01*
X004017Y004946D01*
X004013Y004921D01*
X004005Y004897D01*
X003994Y004874D01*
X003979Y004853D01*
X003961Y004834D01*
X003941Y004819D01*
X003918Y004807D01*
X003894Y004798D01*
X003869Y004793D01*
X003844Y004792D01*
X003818Y004795D01*
X003794Y004802D01*
X003770Y004812D01*
X003749Y004826D01*
X003730Y004843D01*
X003713Y004863D01*
X003700Y004885D01*
X003691Y004909D01*
X003685Y004934D01*
X003683Y004959D01*
X003683Y006141D02*
X003685Y006166D01*
X003691Y006191D01*
X003700Y006215D01*
X003713Y006237D01*
X003730Y006257D01*
X003749Y006274D01*
X003770Y006288D01*
X003794Y006298D01*
X003818Y006305D01*
X003844Y006308D01*
X003869Y006307D01*
X003894Y006302D01*
X003918Y006293D01*
X003941Y006281D01*
X003961Y006266D01*
X003979Y006247D01*
X003994Y006226D01*
X004005Y006203D01*
X004013Y006179D01*
X004017Y006154D01*
X004017Y006128D01*
X004013Y006103D01*
X004005Y006079D01*
X003994Y006056D01*
X003979Y006035D01*
X003961Y006016D01*
X003941Y006001D01*
X003918Y005989D01*
X003894Y005980D01*
X003869Y005975D01*
X003844Y005974D01*
X003818Y005977D01*
X003794Y005984D01*
X003770Y005994D01*
X003749Y006008D01*
X003730Y006025D01*
X003713Y006045D01*
X003700Y006067D01*
X003691Y006091D01*
X003685Y006116D01*
X003683Y006141D01*
D11*
X002978Y007560D02*
X002918Y007560D01*
X002888Y007590D01*
X003008Y007710D01*
X003008Y007590D01*
X002978Y007560D01*
X002888Y007590D02*
X002888Y007710D01*
X002918Y007740D01*
X002978Y007740D01*
X003008Y007710D01*
X002824Y007710D02*
X002824Y007680D01*
X002794Y007650D01*
X002704Y007650D01*
X002640Y007650D02*
X002609Y007620D01*
X002519Y007620D01*
X002519Y007560D02*
X002519Y007740D01*
X002609Y007740D01*
X002640Y007710D01*
X002640Y007650D01*
X002704Y007560D02*
X002794Y007560D01*
X002824Y007590D01*
X002824Y007620D01*
X002794Y007650D01*
X002824Y007710D02*
X002794Y007740D01*
X002704Y007740D01*
X002704Y007560D01*
X002455Y007740D02*
X002335Y007560D01*
X002273Y007560D02*
X002212Y007560D01*
X002242Y007560D02*
X002242Y007740D01*
X002212Y007740D02*
X002273Y007740D01*
X002148Y007710D02*
X002118Y007740D01*
X002058Y007740D01*
X002028Y007710D01*
X002028Y007680D01*
X002058Y007650D01*
X002118Y007650D01*
X002148Y007620D01*
X002148Y007590D01*
X002118Y007560D01*
X002058Y007560D01*
X002028Y007590D01*
X001964Y007590D02*
X001964Y007710D01*
X001934Y007740D01*
X001874Y007740D01*
X001844Y007710D01*
X001844Y007590D01*
X001874Y007560D01*
X001934Y007560D01*
X001964Y007590D01*
X001780Y007560D02*
X001780Y007740D01*
X001720Y007680D01*
X001660Y007740D01*
X001660Y007560D01*
X001660Y006740D02*
X001660Y006620D01*
X001720Y006560D01*
X001780Y006620D01*
X001780Y006740D01*
X001844Y006710D02*
X001844Y006590D01*
X001874Y006560D01*
X001934Y006560D01*
X001964Y006590D01*
X002028Y006590D02*
X002058Y006560D01*
X002118Y006560D01*
X002148Y006590D01*
X002028Y006590D02*
X002028Y006710D01*
X002058Y006740D01*
X002118Y006740D01*
X002148Y006710D01*
X001964Y006710D02*
X001934Y006740D01*
X001874Y006740D01*
X001844Y006710D01*
X001844Y008660D02*
X001904Y008660D01*
X001874Y008660D02*
X001874Y008840D01*
X001844Y008840D02*
X001904Y008840D01*
X001967Y008810D02*
X001967Y008780D01*
X001997Y008750D01*
X002057Y008750D01*
X002087Y008720D01*
X002087Y008690D01*
X002057Y008660D01*
X001997Y008660D01*
X001967Y008690D01*
X001967Y008810D02*
X001997Y008840D01*
X002057Y008840D01*
X002087Y008810D01*
X002151Y008810D02*
X002151Y008690D01*
X002181Y008660D01*
X002241Y008660D01*
X002271Y008690D01*
X002271Y008810D01*
X002241Y008840D01*
X002181Y008840D01*
X002151Y008810D01*
X002335Y008660D02*
X002455Y008840D01*
X002519Y008840D02*
X002609Y008840D01*
X002640Y008810D01*
X002640Y008750D01*
X002609Y008720D01*
X002519Y008720D01*
X002519Y008660D02*
X002519Y008840D01*
X002704Y008840D02*
X002704Y008660D01*
X002794Y008660D01*
X002824Y008690D01*
X002824Y008720D01*
X002794Y008750D01*
X002704Y008750D01*
X002704Y008840D02*
X002794Y008840D01*
X002824Y008810D01*
X002824Y008780D01*
X002794Y008750D01*
X002888Y008780D02*
X002948Y008840D01*
X002948Y008660D01*
X002888Y008660D02*
X003008Y008660D01*
X002885Y009560D02*
X002765Y009560D01*
X002885Y009680D01*
X002885Y009710D01*
X002855Y009740D01*
X002795Y009740D01*
X002765Y009710D01*
X002701Y009710D02*
X002701Y009680D01*
X002671Y009650D01*
X002581Y009650D01*
X002517Y009650D02*
X002487Y009620D01*
X002397Y009620D01*
X002397Y009560D02*
X002397Y009740D01*
X002487Y009740D01*
X002517Y009710D01*
X002517Y009650D01*
X002581Y009560D02*
X002671Y009560D01*
X002701Y009590D01*
X002701Y009620D01*
X002671Y009650D01*
X002701Y009710D02*
X002671Y009740D01*
X002581Y009740D01*
X002581Y009560D01*
X002333Y009740D02*
X002212Y009560D01*
X002148Y009560D02*
X002058Y009650D01*
X002028Y009620D02*
X002148Y009740D01*
X002028Y009740D02*
X002028Y009560D01*
X001964Y009590D02*
X001934Y009560D01*
X001874Y009560D01*
X001844Y009590D01*
X001844Y009710D01*
X001874Y009740D01*
X001934Y009740D01*
X001964Y009710D01*
X001780Y009710D02*
X001750Y009740D01*
X001690Y009740D01*
X001660Y009710D01*
X001660Y009680D01*
X001690Y009650D01*
X001750Y009650D01*
X001780Y009620D01*
X001780Y009590D01*
X001750Y009560D01*
X001690Y009560D01*
X001660Y009590D01*
X001660Y008840D02*
X001720Y008780D01*
X001780Y008840D01*
X001780Y008660D01*
X001660Y008660D02*
X001660Y008840D01*
X005260Y007140D02*
X005260Y006960D01*
X005260Y007020D02*
X005350Y007020D01*
X005380Y007050D01*
X005380Y007110D01*
X005350Y007140D01*
X005260Y007140D01*
X005320Y007020D02*
X005380Y006960D01*
X005444Y006960D02*
X005564Y006960D01*
X005628Y006990D02*
X005658Y006960D01*
X005718Y006960D01*
X005748Y006990D01*
X005748Y007020D01*
X005718Y007050D01*
X005658Y007050D01*
X005628Y007080D01*
X005628Y007110D01*
X005658Y007140D01*
X005718Y007140D01*
X005748Y007110D01*
X005812Y007140D02*
X005812Y006960D01*
X005933Y006960D01*
X005873Y007050D02*
X005812Y007050D01*
X005812Y007140D02*
X005933Y007140D01*
X005997Y007140D02*
X006117Y007140D01*
X006057Y007140D02*
X006057Y006960D01*
X006150Y006396D02*
X006120Y006366D01*
X006120Y006276D01*
X006060Y006276D02*
X006240Y006276D01*
X006240Y006366D01*
X006210Y006396D01*
X006150Y006396D01*
X006150Y006212D02*
X006240Y006212D01*
X006240Y006122D01*
X006210Y006092D01*
X006180Y006122D01*
X006180Y006212D01*
X006150Y006212D02*
X006120Y006182D01*
X006120Y006122D01*
X006240Y006028D02*
X006240Y005908D01*
X006060Y005908D01*
X006120Y005661D02*
X006120Y005601D01*
X006090Y005631D02*
X006210Y005631D01*
X006240Y005661D01*
X006240Y005537D02*
X006150Y005537D01*
X006120Y005507D01*
X006120Y005416D01*
X006240Y005416D01*
X006180Y005352D02*
X006180Y005232D01*
X006210Y005232D02*
X006150Y005232D01*
X006120Y005262D01*
X006120Y005322D01*
X006150Y005352D01*
X006180Y005352D01*
X006240Y005322D02*
X006240Y005262D01*
X006210Y005232D01*
X006240Y005168D02*
X006150Y005168D01*
X006120Y005138D01*
X006150Y005108D01*
X006240Y005108D01*
X006240Y005048D02*
X006120Y005048D01*
X006120Y005078D01*
X006150Y005108D01*
X006150Y004984D02*
X006120Y004954D01*
X006120Y004864D01*
X006300Y004864D01*
X006240Y004864D02*
X006240Y004954D01*
X006210Y004984D01*
X006150Y004984D01*
X006150Y004800D02*
X006120Y004770D01*
X006120Y004710D01*
X006150Y004680D01*
X006210Y004680D01*
X006240Y004710D01*
X006240Y004770D01*
X006210Y004800D01*
X006150Y004800D01*
X006240Y004617D02*
X006240Y004557D01*
X006240Y004587D02*
X006060Y004587D01*
X006060Y004557D01*
X006150Y004493D02*
X006120Y004463D01*
X006120Y004403D01*
X006150Y004373D01*
X006210Y004373D01*
X006240Y004403D01*
X006240Y004463D01*
X006180Y004493D02*
X006180Y004373D01*
X006120Y004309D02*
X006240Y004249D01*
X006120Y004189D01*
X006150Y004125D02*
X006120Y004095D01*
X006120Y004035D01*
X006150Y004005D01*
X006210Y004005D01*
X006240Y004035D01*
X006240Y004095D01*
X006180Y004125D02*
X006180Y004005D01*
X006210Y003941D02*
X006090Y003941D01*
X006060Y003910D01*
X006060Y003820D01*
X006240Y003820D01*
X006240Y003910D01*
X006210Y003941D01*
X006180Y004125D02*
X006150Y004125D01*
X006150Y004493D02*
X006180Y004493D01*
X006460Y004488D02*
X006490Y004458D01*
X006610Y004458D01*
X006640Y004488D01*
X006640Y004548D01*
X006610Y004578D01*
X006490Y004578D01*
X006460Y004548D01*
X006460Y004488D01*
X006490Y004394D02*
X006520Y004394D01*
X006550Y004364D01*
X006550Y004274D01*
X006550Y004364D02*
X006580Y004394D01*
X006610Y004394D01*
X006640Y004364D01*
X006640Y004274D01*
X006460Y004274D01*
X006460Y004364D01*
X006490Y004394D01*
X006460Y004642D02*
X006520Y004702D01*
X006460Y004762D01*
X006640Y004762D01*
X006640Y004826D02*
X006640Y004916D01*
X006610Y004946D01*
X006580Y004946D01*
X006550Y004916D01*
X006550Y004826D01*
X006640Y004826D02*
X006460Y004826D01*
X006460Y004916D01*
X006490Y004946D01*
X006520Y004946D01*
X006550Y004916D01*
X006550Y005010D02*
X006550Y005131D01*
X006520Y005131D02*
X006640Y005131D01*
X006520Y005131D02*
X006460Y005071D01*
X006520Y005010D01*
X006640Y005010D01*
X006490Y005195D02*
X006550Y005255D01*
X006640Y005255D01*
X006550Y005255D02*
X006490Y005315D01*
X006460Y005315D01*
X006460Y005195D02*
X006490Y005195D01*
X006460Y004642D02*
X006640Y004642D01*
X006460Y004026D02*
X006460Y003906D01*
X006460Y003966D02*
X006640Y003966D01*
X006640Y003843D02*
X006640Y003783D01*
X006640Y003813D02*
X006460Y003813D01*
X006460Y003783D02*
X006460Y003843D01*
X006460Y003720D02*
X006460Y003660D01*
X006460Y003690D02*
X006640Y003690D01*
X006640Y003660D02*
X006640Y003720D01*
X006240Y003572D02*
X006240Y003482D01*
X006210Y003452D01*
X006150Y003452D01*
X006120Y003482D01*
X006120Y003572D01*
X006060Y003572D02*
X006240Y003572D01*
X006180Y003388D02*
X006180Y003268D01*
X006210Y003268D02*
X006150Y003268D01*
X006120Y003298D01*
X006120Y003358D01*
X006150Y003388D01*
X006180Y003388D01*
X006240Y003358D02*
X006240Y003298D01*
X006210Y003268D01*
X006240Y003205D02*
X006210Y003175D01*
X006090Y003175D01*
X006120Y003145D02*
X006120Y003205D01*
X006150Y003081D02*
X006120Y003051D01*
X006120Y002991D01*
X006180Y002991D02*
X006180Y003081D01*
X006150Y003081D02*
X006240Y003081D01*
X006240Y002991D01*
X006210Y002961D01*
X006180Y002991D01*
X006120Y002898D02*
X006120Y002868D01*
X006180Y002808D01*
X006240Y002808D02*
X006120Y002808D01*
X006120Y002743D02*
X006120Y002653D01*
X006150Y002623D01*
X006210Y002623D01*
X006240Y002653D01*
X006240Y002743D01*
X006270Y002743D02*
X006120Y002743D01*
X006270Y002743D02*
X006300Y002713D01*
X006300Y002683D01*
X006240Y002529D02*
X006240Y002469D01*
X006210Y002439D01*
X006150Y002439D01*
X006120Y002469D01*
X006120Y002529D01*
X006150Y002559D01*
X006180Y002559D01*
X006180Y002439D01*
X006240Y002377D02*
X006210Y002346D01*
X006090Y002346D01*
X006120Y002316D02*
X006120Y002377D01*
X006150Y002252D02*
X006120Y002222D01*
X006120Y002132D01*
X006240Y002132D01*
X006240Y002070D02*
X006240Y002010D01*
X006240Y002040D02*
X006060Y002040D01*
X006060Y002010D02*
X006060Y002070D01*
X006150Y002252D02*
X006240Y002252D01*
X006608Y002220D02*
X006698Y002220D01*
X006728Y002250D01*
X006728Y002310D01*
X006698Y002340D01*
X006608Y002340D01*
X006608Y002160D01*
X006792Y002160D02*
X006792Y002340D01*
X006882Y002340D01*
X006912Y002310D01*
X006912Y002280D01*
X006882Y002250D01*
X006792Y002250D01*
X006882Y002250D02*
X006912Y002220D01*
X006912Y002190D01*
X006882Y002160D01*
X006792Y002160D01*
X006976Y002190D02*
X007006Y002160D01*
X007066Y002160D01*
X007096Y002190D01*
X007096Y002220D01*
X007066Y002250D01*
X007036Y002250D01*
X007066Y002250D02*
X007096Y002280D01*
X007096Y002310D01*
X007066Y002340D01*
X007006Y002340D01*
X006976Y002310D01*
X005444Y006960D02*
X005444Y007140D01*
X005564Y007140D01*
X005504Y007050D02*
X005444Y007050D01*
X005460Y007560D02*
X005460Y007740D01*
X005550Y007740D01*
X005580Y007710D01*
X005580Y007650D01*
X005550Y007620D01*
X005460Y007620D01*
X005644Y007650D02*
X005734Y007650D01*
X005764Y007620D01*
X005764Y007590D01*
X005734Y007560D01*
X005644Y007560D01*
X005644Y007740D01*
X005734Y007740D01*
X005764Y007710D01*
X005764Y007680D01*
X005734Y007650D01*
X005828Y007590D02*
X005858Y007560D01*
X005918Y007560D01*
X005948Y007590D01*
X005948Y007620D01*
X005918Y007650D01*
X005888Y007650D01*
X005918Y007650D02*
X005948Y007680D01*
X005948Y007710D01*
X005918Y007740D01*
X005858Y007740D01*
X005828Y007710D01*
X005918Y008560D02*
X005918Y008740D01*
X005828Y008650D01*
X005948Y008650D01*
X005764Y008620D02*
X005764Y008590D01*
X005734Y008560D01*
X005644Y008560D01*
X005644Y008740D01*
X005734Y008740D01*
X005764Y008710D01*
X005764Y008680D01*
X005734Y008650D01*
X005644Y008650D01*
X005580Y008650D02*
X005550Y008620D01*
X005460Y008620D01*
X005460Y008560D02*
X005460Y008740D01*
X005550Y008740D01*
X005580Y008710D01*
X005580Y008650D01*
X005734Y008650D02*
X005764Y008620D01*
X005728Y009560D02*
X005818Y009560D01*
X005848Y009590D01*
X005848Y009710D01*
X005818Y009740D01*
X005728Y009740D01*
X005728Y009560D01*
X005664Y009560D02*
X005664Y009740D01*
X005544Y009740D02*
X005664Y009560D01*
X005544Y009560D02*
X005544Y009740D01*
X005480Y009710D02*
X005450Y009740D01*
X005390Y009740D01*
X005360Y009710D01*
X005360Y009590D01*
X005390Y009560D01*
X005450Y009560D01*
X005480Y009590D01*
X005480Y009650D01*
X005420Y009650D01*
X003010Y003596D02*
X003040Y003566D01*
X003040Y003506D01*
X003010Y003476D01*
X002950Y003476D02*
X002920Y003536D01*
X002920Y003566D01*
X002950Y003596D01*
X003010Y003596D01*
X002950Y003476D02*
X002860Y003476D01*
X002860Y003596D01*
X002890Y003412D02*
X002860Y003382D01*
X002860Y003292D01*
X003040Y003292D01*
X002980Y003292D02*
X002980Y003382D01*
X002950Y003412D01*
X002890Y003412D01*
X002980Y003352D02*
X003040Y003412D01*
X003323Y001656D02*
X003323Y001469D01*
X003230Y001562D02*
X003417Y001562D01*
X001348Y002260D02*
X001288Y002320D01*
X001318Y002320D02*
X001228Y002320D01*
X001228Y002260D02*
X001228Y002440D01*
X001318Y002440D01*
X001348Y002410D01*
X001348Y002350D01*
X001318Y002320D01*
X001164Y002260D02*
X001164Y002440D01*
X001104Y002320D02*
X001164Y002260D01*
X001104Y002320D02*
X001044Y002260D01*
X001044Y002440D01*
X000980Y002410D02*
X000980Y002350D01*
X000950Y002320D01*
X000860Y002320D01*
X000860Y002260D02*
X000860Y002440D01*
X000950Y002440D01*
X000980Y002410D01*
D12*
X001530Y000753D02*
X001530Y000676D01*
X001607Y000676D01*
X001607Y000753D01*
X001530Y000753D01*
X001607Y000676D02*
X001454Y000523D01*
X003910Y002877D02*
X003986Y002954D01*
X003986Y003107D01*
X004140Y002877D02*
X004217Y002954D01*
X004217Y003107D01*
X005979Y001940D02*
X005979Y001864D01*
X006056Y001864D01*
X006056Y001940D01*
X005979Y001940D01*
X006210Y001710D02*
X006363Y001864D01*
X006286Y001864D01*
X006286Y001940D01*
X006363Y001940D01*
X006363Y001864D01*
D13*
X006550Y001509D02*
X006609Y001450D01*
X006540Y001381D01*
X006481Y001440D01*
X006550Y001509D01*
X001219Y001560D02*
X001160Y001619D01*
X001091Y001550D01*
X001150Y001491D01*
X001219Y001560D01*
D14*
X001258Y001393D03*
X006442Y001607D03*
D15*
X005189Y002042D02*
X005189Y002672D01*
X004716Y002672D01*
X004716Y002121D01*
X002984Y002121D01*
X002984Y002672D01*
X002511Y002672D01*
X002511Y002042D01*
X002511Y000979D02*
X005189Y000979D01*
X004539Y004133D02*
X003161Y004133D01*
X003161Y006967D01*
X004539Y006967D01*
X004539Y004133D01*
D16*
X003395Y004580D02*
X003370Y004555D01*
X003395Y004580D02*
X003395Y004630D01*
X003370Y004655D01*
X003345Y004655D01*
X003320Y004630D01*
X003320Y004580D01*
X003295Y004555D01*
X003270Y004555D01*
X003245Y004580D01*
X003245Y004630D01*
X003270Y004655D01*
X003270Y004702D02*
X003245Y004727D01*
X003245Y004777D01*
X003270Y004802D01*
X003295Y004802D01*
X003395Y004702D01*
X003395Y004802D01*
D17*
X005757Y006150D02*
X005757Y006193D01*
X005800Y006193D01*
X005800Y006150D01*
X005757Y006150D01*
X005757Y006297D02*
X005757Y006341D01*
X005800Y006341D01*
X005800Y006297D01*
X005757Y006297D01*
X006550Y005890D02*
X006550Y005800D01*
X006660Y005770D01*
X006700Y005690D01*
X006630Y005600D01*
X006700Y005530D01*
X006790Y005590D01*
X006880Y005560D01*
X006900Y005450D01*
X006990Y005450D01*
X007010Y005550D01*
X007100Y005590D01*
X007190Y005530D01*
X007250Y005600D01*
X007190Y005680D01*
X007210Y005720D01*
X007050Y005780D01*
X007050Y005900D02*
X007210Y005960D01*
X007190Y006000D01*
X007250Y006080D01*
X007190Y006150D01*
X007100Y006090D01*
X007010Y006130D01*
X006990Y006230D01*
X006900Y006230D01*
X006880Y006130D01*
X006790Y006090D01*
X006700Y006150D01*
X006630Y006080D01*
X006700Y005990D01*
X006660Y005910D01*
X006550Y005890D01*
X007050Y005900D02*
X007038Y005917D01*
X007023Y005932D01*
X007006Y005945D01*
X006987Y005954D01*
X006966Y005959D01*
X006945Y005961D01*
X006924Y005959D01*
X006904Y005954D01*
X006885Y005945D01*
X006867Y005933D01*
X006852Y005918D01*
X006840Y005901D01*
X006831Y005881D01*
X006826Y005861D01*
X006824Y005840D01*
X006826Y005819D01*
X006831Y005799D01*
X006840Y005779D01*
X006852Y005762D01*
X006867Y005747D01*
X006885Y005735D01*
X006904Y005726D01*
X006924Y005721D01*
X006945Y005719D01*
X006966Y005721D01*
X006987Y005726D01*
X007006Y005735D01*
X007023Y005748D01*
X007038Y005763D01*
X007050Y005780D01*
X002110Y010063D02*
X002110Y010106D01*
X002067Y010106D01*
X002067Y010063D01*
X002110Y010063D01*
M02*
